<svg width="50" height="50" viewBox="0 0 50 50" fill="none" xmlns="http://www.w3.org/2000/svg">
<path d="M30.7168 4.14454C30.3226 3.95182 29.8822 3.87363 29.4458 3.91886C29.0093 3.96409 28.5943 4.13094 28.248 4.4004L14.8203 14.8438H6.25C5.214 14.8438 4.22043 15.2553 3.48786 15.9879C2.7553 16.7204 2.34375 17.714 2.34375 18.75V31.25C2.34375 32.286 2.7553 33.2796 3.48786 34.0121C4.22043 34.7447 5.214 35.1563 6.25 35.1563H14.8203L28.248 45.5996C28.5943 45.8691 29.0093 46.036 29.4458 46.0812C29.8823 46.1265 30.3227 46.0483 30.7169 45.8556C31.1111 45.6628 31.4433 45.3633 31.6757 44.9911C31.9081 44.6188 32.0312 44.1888 32.0312 43.75V6.25001C32.0312 5.8112 31.908 5.38121 31.6756 5.00899C31.4432 4.63676 31.111 4.33725 30.7168 4.14454ZM7.03125 19.5313H13.2812V30.4688H7.03125V19.5313ZM27.3438 38.957L17.9688 31.666V18.334L27.3438 11.043V38.957ZM41.4062 25C41.4066 27.0936 40.6426 29.1153 39.2578 30.6856C39.0542 30.9164 38.807 31.1049 38.5305 31.2402C38.2541 31.3755 37.9536 31.4551 37.6464 31.4743C37.3392 31.4935 37.0312 31.4521 36.74 31.3522C36.4487 31.2524 36.1801 31.0962 35.9492 30.8926C35.7184 30.6889 35.5299 30.4418 35.3946 30.1653C35.2592 29.8888 35.1797 29.5884 35.1605 29.2812C35.1412 28.9739 35.1827 28.6659 35.2825 28.3747C35.3823 28.0835 35.5385 27.8148 35.7422 27.584C36.37 26.8708 36.7164 25.9531 36.7164 25.0029C36.7164 24.0527 36.37 23.1351 35.7422 22.4219C35.3519 21.9529 35.16 21.3502 35.207 20.7419C35.2541 20.1336 35.5366 19.5676 35.9944 19.1643C36.4521 18.7609 37.0492 18.552 37.6586 18.5818C38.268 18.6117 38.8417 18.878 39.2578 19.3242C40.6413 20.8914 41.4053 22.9096 41.4062 25ZM49.2188 25C49.2211 29.036 47.7335 32.9308 45.041 35.9375C44.6266 36.4009 44.0451 36.6806 43.4245 36.7152C42.8038 36.7498 42.1948 36.5365 41.7314 36.1221C41.2681 35.7077 40.9883 35.1262 40.9537 34.5055C40.9191 33.8849 41.1325 33.2759 41.5469 32.8125C43.4686 30.664 44.531 27.8826 44.531 25C44.531 22.1175 43.4686 19.336 41.5469 17.1875C41.3333 16.9596 41.1674 16.6913 41.059 16.3984C40.9506 16.1055 40.9018 15.7939 40.9155 15.4819C40.9292 15.1699 41.0051 14.8637 41.1388 14.5815C41.2725 14.2992 41.4613 14.0465 41.6941 13.8382C41.9268 13.6299 42.1988 13.4703 42.4942 13.3686C42.7895 13.267 43.1021 13.2254 43.4138 13.2463C43.7254 13.2672 44.0297 13.3501 44.3088 13.4903C44.5879 13.6305 44.8362 13.825 45.0391 14.0625C47.7322 17.0689 49.2206 20.9637 49.2188 25Z" fill="white"/>
</svg>
