<svg width="60" height="60" viewBox="0 0 60 60" fill="none" xmlns="http://www.w3.org/2000/svg">
<g clip-path="url(#clip0_143_1181)">
<path d="M30.0469 55.5996C22.2865 55.5996 14.6354 55.2142 6.66667 54.4225C4.50521 54.2038 2.76563 52.61 2.33855 50.4538C0.0729217 39.0475 0.0729217 26.9902 2.33855 15.5892C2.76563 13.4277 4.50521 11.834 6.66667 11.6204C14.6354 10.8288 22.2865 10.4434 30.0469 10.4434C37.8125 10.4434 45.4583 10.8288 53.4323 11.6204C55.5938 11.834 57.3281 13.4277 57.7604 15.5892C60.026 26.9902 60.026 39.0475 57.7604 50.4538C57.3281 52.61 55.5938 54.2038 53.4323 54.4225C45.4583 55.2142 37.8125 55.5996 30.0469 55.5996ZM30.0469 12.4017C22.3542 12.4017 14.7656 12.7871 6.85938 13.5736C5.56771 13.6986 4.52084 14.6621 4.26563 15.9694C2.04688 27.1204 2.04688 38.9173 4.26563 50.0684C4.52605 51.3757 5.56771 52.3392 6.85938 52.4642C14.7656 53.2507 22.3542 53.6361 30.0469 53.6361C37.7448 53.6361 45.3333 53.2507 53.2396 52.4694C54.5313 52.3392 55.5781 51.3757 55.8333 50.0684C58.0469 38.9173 58.0469 27.1257 55.8333 15.9694C55.5729 14.6673 54.5313 13.7038 53.2396 13.5736C45.3333 12.7871 37.7448 12.4017 30.0469 12.4017Z" fill="black"/>
<path d="M26.125 50.6875C21.474 50.6875 16.8177 50.474 12.1979 50.0417C8.89063 49.7292 6.28646 47.0781 6 43.7344C5.38021 36.4271 5.38021 29.6146 6 22.3021C6.28646 18.9583 8.89063 16.3073 12.1979 16C21.4375 15.1354 30.8125 15.1354 40.0521 16C43.3594 16.3073 45.9688 18.9583 46.25 22.3021C46.5677 26.0104 46.7188 29.5156 46.7188 33.0208H44.7604C44.7604 29.5729 44.6094 26.125 44.2969 22.4688C44.0938 20.0729 42.2292 18.1771 39.8698 17.9531C30.75 17.099 21.5052 17.099 12.3802 17.9531C10.0208 18.1771 8.15625 20.0729 7.95313 22.4688C7.34375 29.6667 7.34375 36.3698 7.95313 43.5677C8.15625 45.9635 10.0208 47.8646 12.3802 48.0833C21.5052 48.9375 30.75 48.9375 39.8698 48.0833C42.2292 47.8646 44.0938 45.9635 44.2969 43.5677C44.4323 41.9583 44.5417 40.3542 44.6146 38.7917L46.5781 38.8906C46.5 40.474 46.3906 42.1042 46.25 43.7344C45.9688 47.0781 43.3594 49.7292 40.0521 50.0417C35.4323 50.474 30.7813 50.6875 26.125 50.6875Z" fill="black"/>
<path d="M46.6563 36.9792L44.6927 36.9115C44.7136 36.2813 44.7292 35.6563 44.7448 35.0312L46.7031 35.0625C46.6927 35.6979 46.6771 36.3385 46.6563 36.9792Z" fill="black"/>
<path d="M15.3646 21.6725L15.1927 19.7194C15.8698 19.6569 16.5521 19.6048 17.2344 19.5527L17.375 21.5111C16.7031 21.5579 16.0365 21.6152 15.3646 21.6725Z" fill="black"/>
<path d="M11.4219 32.1035L9.45833 32.0879C9.47916 29.6764 9.58854 27.265 9.80729 24.7129C9.96874 22.8066 11.1354 21.1035 12.8437 20.2754L13.6979 22.041C12.6094 22.5723 11.8646 23.6556 11.7604 24.8796C11.5521 27.3796 11.4375 29.7441 11.4219 32.1035Z" fill="black"/>
<path d="M48.6823 18.291H54.5677V20.2546H48.6823V18.291Z" fill="black"/>
<path d="M48.6823 23.2031H54.5677V25.1667H48.6823V23.2031Z" fill="black"/>
<path d="M48.6823 28.1094H54.5677V30.0729H48.6823V28.1094Z" fill="black"/>
<path d="M48.6823 33.0215H50.6406V34.985H48.6823V33.0215Z" fill="black"/>
<path d="M52.6042 33.0215H54.5677V34.985H52.6042V33.0215Z" fill="black"/>
<path d="M48.6823 36.9473H50.6406V38.9108H48.6823V36.9473Z" fill="black"/>
<path d="M52.6042 36.9473H54.5677V38.9108H52.6042V36.9473Z" fill="black"/>
<path d="M51.625 46.7604C50 46.7604 48.6823 45.4427 48.6823 43.8177C48.6823 42.1927 50 40.875 51.625 40.875C53.2448 40.875 54.5677 42.1927 54.5677 43.8177C54.5677 45.4427 53.2448 46.7604 51.625 46.7604ZM51.625 42.8385C51.0833 42.8385 50.6406 43.276 50.6406 43.8177C50.6406 44.3594 51.0833 44.8021 51.625 44.8021C52.1667 44.8021 52.6042 44.3594 52.6042 43.8177C52.6042 43.276 52.1667 42.8385 51.625 42.8385Z" fill="black"/>
<mask id="mask0_143_1181" style="mask-type:luminance" maskUnits="userSpaceOnUse" x="12" y="53" width="6" height="7">
<path d="M12 53.334H17.3333V59.5267H12V53.334Z" fill="white"/>
</mask>
<g mask="url(#mask0_143_1181)">
<path d="M13.375 59.526C13.2292 59.526 13.0781 59.4895 12.9375 59.4218C12.4531 59.177 12.2604 58.5885 12.5 58.1041L14.4635 54.177C14.7031 53.6926 15.2969 53.4999 15.776 53.7395C16.2604 53.9791 16.4583 54.5729 16.2188 55.0572L14.2552 58.9843C14.0833 59.3281 13.7344 59.526 13.375 59.526Z" fill="black"/>
</g>
<mask id="mask1_143_1181" style="mask-type:luminance" maskUnits="userSpaceOnUse" x="42" y="53" width="6" height="7">
<path d="M42.6667 53.334H48V59.5267H42.6667V53.334Z" fill="white"/>
</mask>
<g mask="url(#mask1_143_1181)">
<path d="M46.7187 59.5263C46.3594 59.5263 46.0156 59.3284 45.8437 58.9846L43.8802 55.0576C43.6406 54.5732 43.8333 53.9794 44.3177 53.7399C44.8021 53.4951 45.3906 53.693 45.6354 54.1774L47.599 58.1044C47.8385 58.5888 47.6406 59.1774 47.1562 59.4221C47.0208 59.4899 46.8698 59.5263 46.7187 59.5263Z" fill="black"/>
</g>
<path d="M10.7708 13.2083L11.6354 11.6198C13.3594 8.46875 16.6562 6.51562 20.2448 6.51562C23.5365 6.51562 26.5937 8.15625 28.4167 10.9115L29.4167 12.4167L27.6094 12.4375C22.4115 12.4896 17.4896 12.7031 12.5729 13.0729L10.7708 13.2083ZM20.2448 8.47917C18.0417 8.47917 15.9792 9.39583 14.5104 10.9687C18.1198 10.7292 21.7448 10.5729 25.5 10.5C24.0729 9.21354 22.2083 8.47917 20.2448 8.47917Z" fill="black"/>
<mask id="mask2_143_1181" style="mask-type:luminance" maskUnits="userSpaceOnUse" x="13" y="0" width="15" height="10">
<path d="M13.3333 0.525391H28V9.33268H13.3333V0.525391Z" fill="white"/>
</mask>
<g mask="url(#mask2_143_1181)">
<path d="M20.2448 8.47786C19.9896 8.47786 19.7396 8.37891 19.5469 8.1862L13.6667 2.29557C13.2812 1.91536 13.2812 1.29557 13.6667 0.910157C14.0469 0.524739 14.6667 0.524739 15.0521 0.910157L20.2448 6.10807L25.4323 0.910157C25.8177 0.524739 26.4375 0.524739 26.8177 0.910157C27.2031 1.29557 27.2031 1.91536 26.8177 2.29557L20.9375 8.1862C20.7448 8.37891 20.4948 8.47786 20.2448 8.47786Z" fill="black"/>
</g>
</g>
<defs>
<clipPath id="clip0_143_1181">
<rect width="60" height="60" fill="white"/>
</clipPath>
</defs>
</svg>
