<svg width="60" height="60" viewBox="0 0 60 60" fill="none" xmlns="http://www.w3.org/2000/svg">
<g clip-path="url(#clip0_1028_4453)">
<path d="M30.0472 55.599C22.2868 55.599 14.6357 55.2136 6.66699 54.4219C4.50553 54.2032 2.76595 52.6094 2.33887 50.4532C0.0732422 39.0469 0.0732422 26.9896 2.33887 15.5886C2.76595 13.4271 4.50553 11.8334 6.66699 11.6198C14.6357 10.8282 22.2868 10.4427 30.0472 10.4427C37.8128 10.4427 45.4587 10.8282 53.4326 11.6198C55.5941 11.8334 57.3285 13.4271 57.7607 15.5886C60.0264 26.9896 60.0264 39.0469 57.7607 50.4532C57.3285 52.6094 55.5941 54.2032 53.4326 54.4219C45.4587 55.2136 37.8128 55.599 30.0472 55.599ZM30.0472 12.4011C22.3545 12.4011 14.766 12.7865 6.8597 13.573C5.56803 13.698 4.52116 14.6615 4.26595 15.9688C2.0472 27.1198 2.0472 38.9167 4.26595 50.0678C4.52637 51.375 5.56803 52.3386 6.8597 52.4636C14.766 53.25 22.3545 53.6355 30.0472 53.6355C37.7451 53.6355 45.3337 53.25 53.2399 52.4688C54.5316 52.3386 55.5785 51.375 55.8337 50.0678C58.0472 38.9167 58.0472 27.125 55.8337 15.9688C55.5732 14.6667 54.5316 13.7032 53.2399 13.573C45.3337 12.7865 37.7451 12.4011 30.0472 12.4011Z" fill="white"/>
<path d="M26.125 50.6875C21.474 50.6875 16.8177 50.474 12.1979 50.0417C8.89063 49.7292 6.28646 47.0781 6 43.7344C5.38021 36.4271 5.38021 29.6146 6 22.3021C6.28646 18.9583 8.89063 16.3073 12.1979 16C21.4375 15.1354 30.8125 15.1354 40.0521 16C43.3594 16.3073 45.9688 18.9583 46.25 22.3021C46.5677 26.0104 46.7188 29.5156 46.7188 33.0208H44.7604C44.7604 29.5729 44.6094 26.125 44.2969 22.4688C44.0938 20.0729 42.2292 18.1771 39.8698 17.9531C30.75 17.099 21.5052 17.099 12.3802 17.9531C10.0208 18.1771 8.15625 20.0729 7.95313 22.4688C7.34375 29.6667 7.34375 36.3698 7.95313 43.5677C8.15625 45.9635 10.0208 47.8646 12.3802 48.0833C21.5052 48.9375 30.75 48.9375 39.8698 48.0833C42.2292 47.8646 44.0938 45.9635 44.2969 43.5677C44.4323 41.9583 44.5417 40.3542 44.6146 38.7917L46.5781 38.8906C46.5 40.474 46.3906 42.1042 46.25 43.7344C45.9688 47.0781 43.3594 49.7292 40.0521 50.0417C35.4323 50.474 30.7813 50.6875 26.125 50.6875Z" fill="white"/>
<path d="M46.6559 36.9792L44.6924 36.9115C44.7132 36.2813 44.7288 35.6563 44.7445 35.0312L46.7028 35.0625C46.6924 35.6979 46.6768 36.3385 46.6559 36.9792Z" fill="white"/>
<path d="M15.3643 21.6719L15.1924 19.7188C15.8695 19.6563 16.5518 19.6042 17.234 19.5521L17.3747 21.5105C16.7028 21.5573 16.0361 21.6146 15.3643 21.6719Z" fill="white"/>
<path d="M11.4215 32.1041L9.45801 32.0885C9.47884 29.677 9.58822 27.2656 9.80697 24.7135C9.96842 22.8073 11.1351 21.1041 12.8434 20.276L13.6976 22.0416C12.6091 22.5729 11.8643 23.6562 11.7601 24.8802C11.5518 27.3802 11.4372 29.7448 11.4215 32.1041Z" fill="white"/>
<path d="M48.6826 18.2916H54.568V20.2552H48.6826V18.2916Z" fill="white"/>
<path d="M48.6826 23.2031H54.568V25.1667H48.6826V23.2031Z" fill="white"/>
<path d="M48.6826 28.1094H54.568V30.0729H48.6826V28.1094Z" fill="white"/>
<path d="M48.6826 33.0209H50.641V34.9844H48.6826V33.0209Z" fill="white"/>
<path d="M52.6045 33.0209H54.568V34.9844H52.6045V33.0209Z" fill="white"/>
<path d="M48.6826 36.9479H50.641V38.9114H48.6826V36.9479Z" fill="white"/>
<path d="M52.6045 36.9479H54.568V38.9114H52.6045V36.9479Z" fill="white"/>
<path d="M51.6253 46.7604C50.0003 46.7604 48.6826 45.4427 48.6826 43.8177C48.6826 42.1927 50.0003 40.875 51.6253 40.875C53.2451 40.875 54.568 42.1927 54.568 43.8177C54.568 45.4427 53.2451 46.7604 51.6253 46.7604ZM51.6253 42.8385C51.0837 42.8385 50.641 43.276 50.641 43.8177C50.641 44.3594 51.0837 44.8021 51.6253 44.8021C52.167 44.8021 52.6045 44.3594 52.6045 43.8177C52.6045 43.276 52.167 42.8385 51.6253 42.8385Z" fill="white"/>
<mask id="mask0_1028_4453" style="mask-type:luminance" maskUnits="userSpaceOnUse" x="12" y="53" width="6" height="7">
<path d="M12 53.3334H17.3333V59.5261H12V53.3334Z" fill="white"/>
</mask>
<g mask="url(#mask0_1028_4453)">
<path d="M13.3753 59.5261C13.2294 59.5261 13.0784 59.4896 12.9378 59.4219C12.4534 59.1771 12.2607 58.5886 12.5003 58.1042L14.4638 54.1771C14.7034 53.6928 15.2971 53.5001 15.7763 53.7396C16.2607 53.9792 16.4586 54.573 16.219 55.0574L14.2555 58.9844C14.0836 59.3282 13.7346 59.5261 13.3753 59.5261Z" fill="white"/>
</g>
<mask id="mask1_1028_4453" style="mask-type:luminance" maskUnits="userSpaceOnUse" x="42" y="53" width="6" height="7">
<path d="M42.667 53.3334H48.0003V59.5261H42.667V53.3334Z" fill="white"/>
</mask>
<g mask="url(#mask1_1028_4453)">
<path d="M46.7187 59.5261C46.3593 59.5261 46.0156 59.3282 45.8437 58.9844L43.8801 55.0573C43.6406 54.5729 43.8333 53.9792 44.3176 53.7396C44.802 53.4948 45.3906 53.6927 45.6354 54.1771L47.5989 58.1042C47.8385 58.5886 47.6406 59.1771 47.1562 59.4219C47.0208 59.4896 46.8697 59.5261 46.7187 59.5261Z" fill="white"/>
</g>
<path d="M10.7705 13.2083L11.6351 11.6198C13.359 8.46875 16.6559 6.51562 20.2445 6.51562C23.5361 6.51562 26.5934 8.15625 28.4163 10.9115L29.4163 12.4167L27.609 12.4375C22.4111 12.4896 17.4893 12.7031 12.5726 13.0729L10.7705 13.2083ZM20.2445 8.47917C18.0413 8.47917 15.9788 9.39583 14.5101 10.9687C18.1195 10.7292 21.7445 10.5729 25.4997 10.5C24.0726 9.21354 22.208 8.47917 20.2445 8.47917Z" fill="white"/>
<mask id="mask2_1028_4453" style="mask-type:luminance" maskUnits="userSpaceOnUse" x="13" y="0" width="15" height="10">
<path d="M13.333 0.526001H27.9997V9.33329H13.333V0.526001Z" fill="white"/>
</mask>
<g mask="url(#mask2_1028_4453)">
<path d="M20.2441 8.47909C19.9889 8.47909 19.7389 8.38013 19.5462 8.18742L13.666 2.29679C13.2806 1.91659 13.2806 1.29679 13.666 0.911377C14.0462 0.52596 14.666 0.52596 15.0514 0.911377L20.2441 6.10929L25.4316 0.911377C25.8171 0.52596 26.4368 0.52596 26.8171 0.911377C27.2025 1.29679 27.2025 1.91659 26.8171 2.29679L20.9368 8.18742C20.7441 8.38013 20.4941 8.47909 20.2441 8.47909Z" fill="white"/>
</g>
</g>
<defs>
<clipPath id="clip0_1028_4453">
<rect width="60" height="60" fill="white"/>
</clipPath>
</defs>
</svg>
