<svg width="24" height="24" viewBox="0 0 24 24" fill="none" xmlns="http://www.w3.org/2000/svg">
<path d="M10.001 20H14.001V19H10.001V20ZM7.00098 23C6.45098 23 5.98031 22.8043 5.58898 22.413C5.19698 22.021 5.00098 21.55 5.00098 21V3C5.00098 2.45 5.19698 1.979 5.58898 1.587C5.98031 1.19567 6.45098 1 7.00098 1H17.001C17.551 1 18.022 1.19567 18.414 1.587C18.8053 1.979 19.001 2.45 19.001 3V21C19.001 21.55 18.8053 22.021 18.414 22.413C18.022 22.8043 17.551 23 17.001 23H7.00098ZM7.00098 16H17.001V6H7.00098V16Z" fill="#747474"/>
</svg>
