<svg width="16" height="16" viewBox="0 0 16 16" fill="none" xmlns="http://www.w3.org/2000/svg">
<path d="M14.475 10.9445C14.3644 11.7885 13.9511 12.5636 13.312 13.1258C12.6728 13.6879 11.8512 13.9989 11 14.0007C6.0375 14.0007 2 9.96324 2 5.00074C2.00188 4.14952 2.3128 3.32795 2.87495 2.68877C3.43711 2.0496 4.21225 1.6363 5.05625 1.52574C5.2714 1.50188 5.48856 1.54718 5.67624 1.65506C5.86391 1.76295 6.01234 1.92781 6.1 2.12574L7.35625 5.05699C7.42141 5.20914 7.44754 5.37516 7.43226 5.53997C7.41698 5.70478 7.36078 5.86316 7.26875 6.00074L6.23125 7.58824C6.70105 8.54167 7.47516 9.31138 8.43125 9.77574L10 8.73199C10.1374 8.63935 10.2962 8.58327 10.4613 8.56905C10.6265 8.55484 10.7925 8.58295 10.9438 8.65074L13.875 9.90074C14.0729 9.9884 14.2378 10.1368 14.3457 10.3245C14.4536 10.5122 14.4989 10.7293 14.475 10.9445ZM9.8375 2.98199C10.5986 3.18992 11.2923 3.59269 11.8502 4.15058C12.408 4.70846 12.8108 5.40216 13.0188 6.16324C13.0463 6.27009 13.1085 6.36481 13.1955 6.43265C13.2826 6.50048 13.3896 6.5376 13.5 6.53824C13.5444 6.53815 13.5886 6.53184 13.6313 6.51949C13.6948 6.50286 13.7544 6.47371 13.8066 6.43375C13.8587 6.39379 13.9024 6.34383 13.935 6.28679C13.9676 6.22974 13.9884 6.16677 13.9964 6.10155C14.0043 6.03634 13.9992 5.97019 13.9812 5.90699C13.7313 4.97492 13.2404 4.12502 12.5581 3.44266C11.8757 2.76029 11.0258 2.26947 10.0938 2.01949C10.0285 1.99573 9.95907 1.98581 9.88981 1.99036C9.82054 1.99491 9.75299 2.01384 9.69144 2.04593C9.62989 2.07802 9.57569 2.12258 9.5323 2.17676C9.48892 2.23094 9.45729 2.29357 9.43943 2.36065C9.42157 2.42772 9.41788 2.49779 9.42858 2.56637C9.43928 2.63495 9.46415 2.70056 9.50159 2.75901C9.53904 2.81746 9.58824 2.86747 9.64607 2.90586C9.70391 2.94425 9.7691 2.97017 9.8375 2.98199ZM9.31875 4.91324C9.7418 5.02904 10.1274 5.25305 10.4375 5.5632C10.7477 5.87335 10.9717 6.25894 11.0875 6.68199C11.1141 6.78937 11.176 6.88471 11.2633 6.95271C11.3505 7.02071 11.4581 7.05743 11.5688 7.05699C11.6111 7.0574 11.6533 7.05107 11.6938 7.03824C11.7579 7.02229 11.8181 6.99364 11.871 6.95397C11.9238 6.91431 11.9682 6.86444 12.0014 6.80732C12.0346 6.75021 12.056 6.687 12.0644 6.62146C12.0727 6.55591 12.0678 6.48936 12.05 6.42574C11.8922 5.83168 11.5801 5.28989 11.1455 4.85526C10.7108 4.42062 10.1691 4.10858 9.575 3.95074C9.50978 3.92698 9.44033 3.91706 9.37106 3.92161C9.3018 3.92616 9.23424 3.94509 9.17269 3.97718C9.11114 4.00927 9.05694 4.05383 9.01355 4.10801C8.97017 4.16219 8.93854 4.22482 8.92068 4.2919C8.90282 4.35897 8.89913 4.42904 8.90983 4.49762C8.92053 4.5662 8.94539 4.63181 8.98284 4.69026C9.02029 4.74871 9.06949 4.79872 9.12732 4.83711C9.18516 4.8755 9.25035 4.90142 9.31875 4.91324Z" fill="#EF504D"/>
</svg>
