<svg width="16" height="16" viewBox="0 0 16 16" fill="none" xmlns="http://www.w3.org/2000/svg">
<path d="M14.475 10.9438C14.3644 11.7878 13.9511 12.5629 13.312 13.1251C12.6728 13.6872 11.8512 13.9981 11 14C6.0375 14 2 9.96251 2 5.00001C2.00188 4.14879 2.3128 3.32722 2.87495 2.68804C3.43711 2.04886 4.21225 1.63557 5.05625 1.525C5.2714 1.50115 5.48856 1.54645 5.67624 1.65433C5.86391 1.76222 6.01234 1.92708 6.1 2.125L7.35625 5.05626C7.42141 5.20841 7.44754 5.37442 7.43226 5.53923C7.41698 5.70404 7.36078 5.86243 7.26875 6L6.23125 7.5875C6.70105 8.54094 7.47516 9.31064 8.43125 9.775L10 8.73125C10.1374 8.63861 10.2962 8.58254 10.4613 8.56832C10.6265 8.5541 10.7925 8.58222 10.9438 8.65L13.875 9.9C14.0729 9.98767 14.2378 10.1361 14.3457 10.3238C14.4536 10.5114 14.4989 10.7286 14.475 10.9438ZM9.8375 2.98126C10.5986 3.18918 11.2923 3.59196 11.8502 4.14984C12.408 4.70773 12.8108 5.40143 13.0188 6.1625C13.0463 6.26936 13.1085 6.36408 13.1955 6.43191C13.2826 6.49974 13.3896 6.53687 13.5 6.5375C13.5444 6.53742 13.5886 6.53111 13.6313 6.51875C13.6948 6.50212 13.7544 6.47298 13.8066 6.43302C13.8587 6.39306 13.9024 6.3431 13.935 6.28605C13.9676 6.22901 13.9884 6.16604 13.9964 6.10082C14.0043 6.0356 13.9992 5.96946 13.9812 5.90625C13.7313 4.97418 13.2404 4.12429 12.5581 3.44192C11.8757 2.75956 11.0258 2.26874 10.0938 2.01875C10.0285 1.99499 9.95907 1.98507 9.88981 1.98963C9.82054 1.99418 9.75299 2.0131 9.69144 2.0452C9.62989 2.07729 9.57569 2.12184 9.5323 2.17603C9.48892 2.23021 9.45729 2.29284 9.43943 2.35991C9.42157 2.42699 9.41788 2.49705 9.42858 2.56564C9.43928 2.63422 9.46415 2.69983 9.50159 2.75828C9.53904 2.81672 9.58824 2.86673 9.64607 2.90512C9.70391 2.94351 9.7691 2.96944 9.8375 2.98126ZM9.31875 4.9125C9.7418 5.02831 10.1274 5.25232 10.4375 5.56246C10.7477 5.87261 10.9717 6.2582 11.0875 6.68125C11.1141 6.78864 11.176 6.88398 11.2633 6.95198C11.3505 7.01998 11.4581 7.0567 11.5688 7.05625C11.6111 7.05667 11.6533 7.05034 11.6938 7.0375C11.7579 7.02156 11.8181 6.99291 11.871 6.95324C11.9238 6.91358 11.9682 6.86371 12.0014 6.80659C12.0346 6.74948 12.056 6.68627 12.0644 6.62073C12.0727 6.55518 12.0678 6.48863 12.05 6.425C11.8922 5.83095 11.5801 5.28916 11.1455 4.85452C10.7108 4.41989 10.1691 4.10785 9.575 3.95001C9.50978 3.92624 9.44033 3.91632 9.37106 3.92088C9.3018 3.92543 9.23424 3.94435 9.17269 3.97645C9.11114 4.00854 9.05694 4.05309 9.01355 4.10728C8.97017 4.16146 8.93854 4.22409 8.92068 4.29116C8.90282 4.35824 8.89913 4.4283 8.90983 4.49689C8.92053 4.56547 8.94539 4.63108 8.98284 4.68952C9.02029 4.74797 9.06949 4.79798 9.12732 4.83637C9.18516 4.87476 9.25035 4.90069 9.31875 4.9125Z" fill="#FFDF8D"/>
</svg>
