<svg width="60" height="60" viewBox="0 0 60 60" fill="none" xmlns="http://www.w3.org/2000/svg">
<g clip-path="url(#clip0_1028_4383)">
<path d="M16.1611 15.0312C16.1663 15.026 16.1663 15.026 16.1715 15.0208C17.3434 14.4843 18.9215 14.4791 20.0882 15.0312H16.1611Z" fill="white"/>
<path d="M27.8908 15.0312C27.9793 14.8489 28.0783 14.6718 28.1824 14.5C28.2345 13.7708 28.422 13.0468 28.4845 12.3073C28.7033 12.052 28.9897 11.8489 29.2762 11.6145L30.2866 10.6718C30.1877 10.2968 30.6929 10.1979 30.6929 9.84371C30.0002 9.57288 29.4272 10.0781 28.7918 10.1614C28.2658 10.0937 28.3335 9.3385 27.7814 9.23433C27.9168 8.83329 27.4116 8.94788 27.4429 8.56246C27.0887 7.85413 26.5679 8.79683 26.1147 8.40621C26.146 7.81767 26.2345 7.19267 26.1147 6.61975C25.797 6.50517 25.5627 6.24996 25.5418 5.89579C25.5939 5.39058 25.3074 4.96871 25.3231 4.4635C25.2085 4.39579 25.0731 4.42704 24.9897 4.39579C24.7866 4.42704 24.7189 4.83329 24.5158 4.66142C24.3491 4.35933 24.3335 3.93746 24.3804 3.59892C25.0574 2.87496 25.5106 1.9635 26.2658 1.32288C27.4116 0.854126 28.5054 0.244751 29.7658 0.057251C30.3856 0.109334 30.9064 0.380167 31.4481 0.630167C32.9637 1.3385 33.5991 2.94267 33.5314 4.57808C33.5679 5.17183 33.6199 5.76038 33.3335 6.23433C33.3335 6.36975 33.2449 6.50517 33.3335 6.61975C33.6512 7.09371 33.9897 6.31767 34.3439 6.72392C34.5574 6.95829 34.8283 7.24475 35.1512 7.04163L38.6304 6.28121C39.7397 6.95829 40.9377 7.69788 41.8595 8.74475C42.6512 9.82288 43.0731 11.0729 43.8127 12.1875C44.4377 13.0989 44.9793 14.0677 45.5158 15.0312H27.8908Z" fill="white"/>
<path d="M45.5153 15.0312C45.8434 15.6146 46.1663 16.1979 46.5049 16.7604C46.6872 17.2812 46.9216 17.7865 47.1247 18.2917C47.333 18.8333 47.4268 19.401 47.5257 19.9687L47.6976 20.5729C47.8486 20.8802 47.9893 21.1823 48.0518 21.5156C48.0361 21.6823 48.0518 21.8698 48.2028 21.9375C48.2861 21.8333 48.5361 21.6823 48.4528 21.5C48.2861 21.2135 48.3851 20.8073 48.2705 20.4844C48.1872 19.7292 47.9007 19.0208 47.9007 18.2448C48.1195 18.0052 48.4684 17.9583 48.7757 18.0417C49.057 18.2083 49.1455 18.5833 49.1091 18.901C49.1768 19.776 49.2601 20.6406 49.4268 21.4635C49.1247 21.75 49.7653 21.8021 49.5466 22.1406C49.3434 22.4062 48.4163 22.1302 48.2132 22.5312C48.4163 22.6354 49.1924 22.4792 49.4268 22.5104L49.5622 22.5937L49.6507 23.4896C49.5309 23.6042 49.3434 23.5729 49.2288 23.6562L49.6663 26.1562C49.8695 26.5781 49.9007 27.0469 49.9841 27.5052C50.182 28.3281 50.3643 29.1615 50.5205 30H36.6247C36.6507 29.8437 36.6872 29.6771 36.5934 29.526C36.6455 28.8333 36.4111 28.1615 36.458 27.4687C36.2913 27.0156 36.2393 26.5104 36.057 26.0521C36.1403 25.849 36.3591 25.7344 36.5257 25.6458C36.5778 25.4115 36.8486 25.4427 36.9632 25.276C36.9476 24.7708 36.3591 24.3802 36.6091 23.8437C36.9476 23.625 37.3018 23.4531 37.7028 23.3542C37.958 23.5417 37.958 23.9948 38.3278 24.0937C38.6976 23.2187 38.2236 22.3073 37.6403 21.6354C37.3174 21.5469 37.2653 21.1771 37.0309 21.0104C36.9632 21.1615 36.8486 21.2448 36.7288 21.3802C36.4788 21.9375 35.8382 22.526 36.208 23.1823C35.9893 23.9792 35.432 24.6198 35.1299 25.3802L34.2236 25.6458C33.6663 26.6458 33.2288 27.7083 32.7236 28.7187C32.6768 29.0729 32.5257 29.4271 32.4736 29.7135L33.4163 29.7812C33.8382 29.901 34.3226 29.6823 34.6768 29.9844C34.682 29.9896 34.6872 29.9948 34.6924 30H11.8643C11.8799 29.875 11.9528 29.7812 12.1872 29.7812H13.9007C13.9372 29.5781 13.9163 29.276 13.9163 29.0573C13.8851 28.9219 13.6351 29.0729 13.7184 28.8698C13.9163 28.7865 14.1872 28.599 14.4059 28.7865C14.4215 29.0573 14.0049 28.8177 14.0361 29.125C14.0309 29.4062 14.1038 29.5625 14.0049 29.7656L14.1038 29.8125L16.9111 29.8333C17.0153 29.7812 17.1299 29.901 17.2653 29.8646C18.1559 29.849 19.1351 29.901 20.0101 29.8125C20.4632 29.8646 20.9997 29.8646 21.4528 29.7812C22.0778 29.849 22.833 29.8333 23.4215 29.7969C23.9424 29.8646 24.5309 29.8646 25.057 29.7969C25.6768 29.4271 26.182 28.6198 26.9059 28.5469L27.0205 28.349C27.5934 28.1771 28.1351 27.875 28.7705 27.9427C29.2913 28.0573 29.7809 28.2135 30.3538 28.1927L30.4893 28.0573C30.7757 27.0312 31.109 26.0208 31.3122 24.9583C31.1976 24.7865 31.0778 24.6198 30.8747 24.5521C31.0101 23.8073 31.2601 23.099 31.3643 22.3437C31.432 22.1563 31.5309 22.0573 31.6976 21.9375L32.1038 21.8333C32.6559 20.5208 32.9111 19.1198 33.0622 17.651C33.0257 17.6198 32.9945 17.5677 32.9632 17.5208L32.3851 16.9583C32.2913 16.8958 32.1924 16.8646 32.0882 16.9271C30.708 18.6458 29.7132 20.5208 28.4528 22.3073C28.5518 22.8958 27.9476 22.9844 27.5778 23.1823L27.3747 23.7083C26.6038 24.0781 25.7288 24.2135 24.8382 24.3177C24.2132 24.3177 24.2288 23.5885 23.9268 23.2344C23.9424 22.9687 23.6924 22.7656 23.5049 22.6094C22.9528 22.5417 22.2601 22.3906 21.7601 22.6458C21.3851 23.0521 20.8851 23.1198 20.4632 23.3854C20.4945 23.875 20.984 24.3802 20.5986 24.8698L19.4684 25.1562C19.1143 24.6875 19.1351 24.0104 18.7445 23.5417C18.4268 23.7083 18.208 23.4375 17.958 23.3177C17.7549 23.0156 17.9215 22.3906 17.3695 22.4062C17.2132 22.224 17.2132 21.901 17.333 21.7031C17.234 21.3646 16.5934 21.4167 16.8122 20.9271C16.8955 20.5052 17.333 20.1979 17.6351 19.9115C17.7184 19.7292 17.4997 19.5729 17.5674 19.3906C17.1507 18.5833 17.6195 17.5521 17.0153 16.8073C16.7965 16.8437 16.5413 16.9792 16.3226 16.8437C16.2393 16.7396 16.2236 16.5208 16.057 16.5208C16.0361 16.5469 16.0309 16.5729 16.0361 16.599C16.0361 16.599 16.0986 16.8229 15.984 16.9167C15.9788 16.9427 15.932 16.9427 15.9215 16.9583C15.6663 17.0312 15.4476 17.2448 15.1611 17.1615C14.9268 16.8698 14.734 16.5156 14.7132 16.1406C14.6924 15.8177 14.8486 15.5 14.8486 15.5C14.9893 15.4062 15.2184 15.401 15.3643 15.3229C15.583 15.2396 15.6507 15.6094 15.8382 15.4427C15.609 15.1823 16.0101 15.1094 16.1611 15.0312H20.0882C20.1299 15.0469 20.1715 15.0677 20.208 15.0885C20.4476 15.2396 20.7288 15.3906 20.8486 15.6615C20.7497 15.6615 20.6143 15.6771 20.5465 15.7969L20.1455 15.6302C20.1768 15.7812 20.1768 15.9323 20.057 16.0677C19.4372 16.2865 19.083 14.9687 18.5257 15.7292C18.5622 15.8802 18.5934 16.0156 18.6455 16.151C18.3955 16.4375 17.4997 16.3177 17.8695 16.9271C18.1247 17.6042 18.7288 18.125 18.8643 18.849C19.1663 19.1198 19.5361 19.2187 19.9059 19.3073C20.1611 19.526 20.5986 19.625 20.6663 19.9635C20.9997 20.1667 21.4893 20.0625 21.8903 20.1146C22.2288 20.0625 22.6663 20.1823 22.8851 19.9479C22.9372 19.776 22.8695 19.4896 23.1038 19.474C23.8955 19.4219 24.734 19.2552 25.5413 19.3073C25.6768 19.474 25.8278 19.474 25.9476 19.3073C26.0518 19.1302 26.1455 18.9375 26.234 18.7396L26.958 17.1354C27.2705 16.4323 27.5413 15.7135 27.8903 15.0312H45.5153Z" fill="white"/>
<mask id="mask0_1028_4383" style="mask-type:luminance" maskUnits="userSpaceOnUse" x="4" y="29" width="40" height="31">
<path d="M4.42676 29.3334H43.9997V60H4.42676V29.3334Z" fill="white"/>
</mask>
<g mask="url(#mask0_1028_4383)">
<path d="M34.6926 30C34.8436 30.1927 34.5623 30.3437 34.6926 30.5729C34.7082 30.9271 35.1821 30.724 35.4009 30.7448C35.6717 30.7448 35.5832 31.0313 35.6196 31.1979C35.4842 31.7708 35.5363 32.4792 35.5832 33.0521C35.4686 33.3229 35.6509 33.7083 35.3332 33.8802C34.3748 33.7813 33.3801 33.8281 32.4061 33.8646C32.2863 33.9479 32.1561 33.7969 32.0519 33.9115L32.1717 35.4635L32.8123 40.8646C33.2655 44.4583 33.6665 48.1667 34.104 51.7448L34.7446 57.1563L34.828 57.2396C34.9269 57.125 35.0467 56.9896 35.1821 56.9063L35.078 56.2135C35.5728 54.1406 35.6301 51.1875 35.9998 49.0573L41.3019 48.9115C41.2446 50.1667 41.1926 52.026 41.3019 53.3125C41.203 53.6146 41.2551 54.0052 41.1873 54.2917C41.1717 55.3385 41.2707 56.401 41.0363 57.3281C40.9009 57.4792 40.7186 57.2917 40.5832 57.4115C40.6457 57.901 40.4321 58.5937 40.6821 59.0156L43.5571 59.026L42.9217 59.8438C42.3488 59.8438 40.2134 59.8385 39.6405 59.8229C39.3853 59.7031 39.1196 59.875 38.8488 59.7552L38.3123 59.7917L32.203 59.7708L29.2863 59.776L29.104 59.0208L31.6509 59.0313C32.0051 59.1458 31.953 58.776 32.104 58.6094L31.2134 50.5104L29.9842 39.6979L29.4269 35.4635L29.328 36.1042L27.6457 50.9688L27.1092 56.1458C27.0207 57.0573 26.854 58.0521 26.854 59.0156L29.104 59.0208L29.2863 59.776L22.828 59.7813L22.7082 59.026C22.9946 59.0208 23.5519 59.0052 23.828 58.9792L24.3123 55.4063L25.1248 48.6927L26.6353 35.6823L26.7707 33.8125L17.2498 33.7448L17.0467 33.7813L17.0623 34.1823L17.8905 38.9427L20.3592 52.7552C20.7498 54.7969 21.1717 56.9219 21.6248 58.9792C21.8853 59.0052 22.4321 59.0208 22.7082 59.026L22.828 59.7813L17.1301 59.7917L15.5884 59.8073L15.4113 59.0156H18.4634L18.7655 58.9635L18.6613 58.2552L17.2655 49.8542V49.7188L15.2967 38.099L15.1978 38.6042L12.7759 58.4063L12.7394 59.0156H15.4113L15.5884 59.8073L14.1561 59.8229L5.07276 59.875C4.95297 59.9427 4.80193 59.875 4.71859 59.7708C4.74984 59.4844 4.43213 59.0625 4.93734 59.0469C6.5363 58.9479 8.11443 59.0625 9.71338 59.0313L9.81234 58.9271L10.5051 53.8854L12.203 40.2031L12.8071 35.5521L12.6405 35.3281L12.8436 33.7448C12.0207 33.625 11.1926 33.7969 10.4217 33.6615C10.2863 33.4219 10.453 33.0521 10.3696 32.8177C10.3176 32.2292 10.4686 31.6354 10.3019 31.0938L10.3696 30.6406H11.8332C11.953 30.4687 11.8436 30.1927 11.8644 30H34.6926Z" fill="white"/>
</g>
<mask id="mask1_1028_4383" style="mask-type:luminance" maskUnits="userSpaceOnUse" x="36" y="29" width="20" height="31">
<path d="M36 29.3334H55.4271V60H36V29.3334Z" fill="white"/>
</mask>
<g mask="url(#mask1_1028_4383)">
<path d="M50.5208 30C51.0521 32.7396 51.3802 35.5469 51.4844 38.4688C51.7188 39.4115 51.6823 40.474 51.8021 41.4688C51.8854 41.6875 51.8854 42.0104 52.0521 42.1094L52.0052 42.1615C52.3073 43.1927 52.3385 44.3542 52.4583 45.4167C52.9271 47.0052 53.0104 48.7396 53.1667 50.4427C53.5365 52.6563 53.4844 54.8958 53.7552 57.1563C53.8854 57.6667 53.0781 57.224 53.3177 57.7969C53.401 58.1875 53.3333 58.6406 53.3802 59.0469C53.9896 59.1146 54.6458 59.0781 55.2188 59.2344C55.3333 59.401 55.4167 59.6354 55.3854 59.8229C55.1667 59.8385 54.9479 59.8385 54.7813 59.9427C52.4427 59.875 49.9167 59.9063 47.6615 59.8385L42.9219 59.8438L43.5573 59.026L45.0052 59.0313L46.1146 58.9635C46.3542 58.1198 47.3281 57.8333 47.901 57.3073L47.7656 57.1042C47.9844 55.1823 47.7448 53.1615 47.5625 51.2396L46.9896 46.8698L46.4167 43.6823C45.9635 42.7344 46.151 41.6042 45.8802 40.5938C45.526 38.875 45.1042 37.1667 44.6354 35.5313C44.6719 35.4167 44.4844 35.3958 44.5833 35.3281C44.25 34.3333 43.8958 33.3229 43.474 32.3594H43.4271L42.7188 37.3021C42.4167 39.2917 42.0625 41.25 41.6406 43.1719C41.4896 43.375 41.2708 43.5469 41.1719 43.7292C41.6094 43.9167 41.4219 44.3906 41.4896 44.7448C41.4896 44.8958 41.2552 44.9948 41.3698 45.1823H41.4063C41.2865 45.3177 41.4583 45.5677 41.4375 45.7708C41.4219 46.6302 41.349 48.0729 41.3021 48.9115L36 49.0573C36.0833 47.5937 36.3646 45.474 36.2604 43.9688C36.2917 43.224 36.4427 42.5 36.3594 41.724L36.7448 38.8073C36.9479 37.2031 37.1667 35.5313 37.3333 33.9323C37.0833 33.7083 36.6615 33.8125 36.4271 33.5781C36.4948 32.5313 36.6094 31.4687 36.7135 30.4375C36.5729 30.3177 36.5937 30.1615 36.625 30H50.5208Z" fill="white"/>
</g>
<path d="M21.9795 14.6354C22.2138 15.0364 22.568 15.4271 22.5836 15.9167C22.5472 15.9844 22.4482 15.9635 22.3961 15.9323C21.9274 15.3594 21.4899 14.7344 20.9534 14.2292C20.9326 14.1094 21.0159 14.0104 21.1201 13.9739C21.5367 13.9219 21.7086 14.4114 21.9795 14.6354Z" fill="white"/>
<path d="M23.307 15.224C22.9685 15.1719 22.7653 14.75 22.5987 14.4792C22.5831 14.4115 22.6143 14.3281 22.682 14.3125C23.0518 14.4479 23.2706 14.8698 23.307 15.224Z" fill="white"/>
<path d="M25.9636 17.4479L26.047 17.5313L25.948 17.6354C25.0365 17.6719 24.2657 17.349 23.3907 17.3177C23.323 17.2448 23.2709 17.1823 23.2918 17.0781C24.2136 16.9948 25.0886 17.3177 25.9636 17.4479Z" fill="white"/>
<path d="M22.7966 18.3542C22.7498 18.4011 22.7185 18.4532 22.7654 18.5313C23.6248 18.5313 24.432 18.599 25.2914 18.5469C25.3591 18.3438 25.6768 18.3959 25.6612 18.1563C25.6612 17.9896 25.4581 18.0052 25.3383 17.974L23.3695 18.1302C23.3695 18.1302 22.932 18.099 22.7966 18.3542Z" fill="white"/>
<path d="M22.1618 18.3282C22.1618 18.4636 22.042 18.5313 21.9118 18.5313C21.8232 18.5625 21.8076 18.4792 21.792 18.4271C21.792 18.3125 21.891 18.224 21.9951 18.1927C22.0628 18.2084 22.1305 18.2605 22.1618 18.3282Z" fill="white"/>
<path d="M47.141 20.1823C46.2555 20.4635 45.2191 20.8541 44.4014 21.2812C44.7035 21.2343 44.9951 21.1406 45.2712 21.0364L46.6566 20.5573C46.7295 20.526 46.7972 20.4895 46.8649 20.4479C46.8649 20.4479 47.0003 20.3802 47.141 20.1823Z" fill="white"/>
<path d="M41.9215 22.2865C41.8018 22.3959 39.807 23.1876 39.6351 23.2032L39.5518 23.1719C39.6663 23.0105 41.557 22.1928 41.9215 22.2865Z" fill="white"/>
<path d="M40.7184 25.1406C40.6559 25.1979 40.6247 25.2708 40.6663 25.3593C40.8695 25.5312 40.6299 25.8177 40.6455 26.052L40.3955 25.177L40.6455 25.0625L44.1507 23.5677C44.3278 23.4739 44.5101 23.3854 44.7028 23.3385L44.8018 23.4895V23.5573L44.2288 23.6823L40.7184 25.1406Z" fill="white"/>
<path d="M45.9583 27.4427C46.026 26.6406 46.1458 25.8281 46.25 25.0416H46.3021C46.3854 25.2604 46.2865 25.5781 46.3177 25.7343C46.2187 27.0989 46.0469 28.6354 45.9479 30.0156C45.224 30.7448 44.2344 30.8958 43.3906 31.3489L42.9531 31.5364C43.5937 30.9635 44.5365 30.8281 45.224 30.2708C45.849 30.1666 45.6979 29.4791 45.8281 29.0729L45.8542 28.8333L45.9583 27.4427Z" fill="white"/>
<path d="M39.2344 25.224C38.9479 25.6146 38.5104 25.8177 38.0729 25.9532C37.7396 25.9844 37.401 25.8177 37.099 25.9323C37 25.8698 36.8646 25.9011 36.7969 25.7813C37.5521 25.4792 38.4115 25.3282 39.2344 25.224Z" fill="white"/>
<path d="M49.8538 28.4166C49.8174 28.4635 49.6976 28.5156 49.6663 28.4635C49.4997 27.4166 49.1038 24.8073 49.0049 23.7448C49.2393 24.7031 49.6507 27.401 49.8538 28.4166Z" fill="white"/>
</g>
<defs>
<clipPath id="clip0_1028_4383">
<rect width="60" height="60" fill="white"/>
</clipPath>
</defs>
</svg>
