<svg width="60" height="60" viewBox="0 0 60 60" fill="none" xmlns="http://www.w3.org/2000/svg">
<g clip-path="url(#clip0_143_1125)">
<path d="M16.1615 15.0306C16.1667 15.0254 16.1667 15.0254 16.1719 15.0202C17.3437 14.4837 18.9219 14.4785 20.0885 15.0306H16.1615Z" fill="black"/>
<path d="M27.8906 15.0306C27.9792 14.8483 28.0781 14.6712 28.1823 14.4993C28.2344 13.7702 28.4219 13.0462 28.4844 12.3066C28.7031 12.0514 28.9896 11.8483 29.276 11.6139L30.2865 10.6712C30.1875 10.2962 30.6927 10.1973 30.6927 9.8431C30 9.57227 29.4271 10.0775 28.7917 10.1608C28.2656 10.0931 28.3333 9.33789 27.7812 9.23372C27.9167 8.83268 27.4115 8.94727 27.4427 8.56185C27.0885 7.85352 26.5677 8.79622 26.1146 8.4056C26.1458 7.81706 26.2344 7.19206 26.1146 6.61914C25.7969 6.50456 25.5625 6.24935 25.5417 5.89518C25.5937 5.38997 25.3073 4.9681 25.3229 4.46289C25.2083 4.39518 25.0729 4.42643 24.9896 4.39518C24.7865 4.42643 24.7187 4.83268 24.5156 4.66081C24.349 4.35872 24.3333 3.93685 24.3802 3.59831C25.0573 2.87435 25.5104 1.96289 26.2656 1.32227C27.4115 0.853516 28.5052 0.244141 29.7656 0.0566406C30.3854 0.108724 30.9062 0.379557 31.4479 0.629557C32.9635 1.33789 33.599 2.94206 33.5312 4.57747C33.5677 5.17122 33.6198 5.75976 33.3333 6.23372C33.3333 6.36914 33.2448 6.50456 33.3333 6.61914C33.651 7.0931 33.9896 6.31706 34.3437 6.72331C34.5573 6.95768 34.8281 7.24414 35.151 7.04102L38.6302 6.2806C39.7396 6.95768 40.9375 7.69727 41.8594 8.74414C42.651 9.82227 43.0729 11.0723 43.8125 12.1868C44.4375 13.0983 44.9792 14.0671 45.5156 15.0306H27.8906Z" fill="black"/>
<path d="M45.5156 15.0312C45.8437 15.6146 46.1667 16.1979 46.5052 16.7604C46.6875 17.2812 46.9219 17.7865 47.125 18.2917C47.3333 18.8333 47.4271 19.401 47.526 19.9687L47.6979 20.5729C47.849 20.8802 47.9896 21.1823 48.0521 21.5156C48.0365 21.6823 48.0521 21.8698 48.2031 21.9375C48.2865 21.8333 48.5365 21.6823 48.4531 21.5C48.2865 21.2135 48.3854 20.8073 48.2708 20.4844C48.1875 19.7292 47.901 19.0208 47.901 18.2448C48.1198 18.0052 48.4687 17.9583 48.776 18.0417C49.0573 18.2083 49.1458 18.5833 49.1094 18.901C49.1771 19.776 49.2604 20.6406 49.4271 21.4635C49.125 21.75 49.7656 21.8021 49.5469 22.1406C49.3437 22.4062 48.4167 22.1302 48.2135 22.5312C48.4167 22.6354 49.1927 22.4792 49.4271 22.5104L49.5625 22.5937L49.651 23.4896C49.5312 23.6042 49.3437 23.5729 49.2292 23.6562L49.6667 26.1562C49.8698 26.5781 49.901 27.0469 49.9844 27.5052C50.1823 28.3281 50.3646 29.1615 50.5208 30H36.625C36.651 29.8437 36.6875 29.6771 36.5937 29.526C36.6458 28.8333 36.4115 28.1615 36.4583 27.4687C36.2917 27.0156 36.2396 26.5104 36.0573 26.0521C36.1406 25.849 36.3594 25.7344 36.526 25.6458C36.5781 25.4115 36.849 25.4427 36.9635 25.276C36.9479 24.7708 36.3594 24.3802 36.6094 23.8437C36.9479 23.625 37.3021 23.4531 37.7031 23.3542C37.9583 23.5417 37.9583 23.9948 38.3281 24.0937C38.6979 23.2187 38.224 22.3073 37.6406 21.6354C37.3177 21.5469 37.2656 21.1771 37.0312 21.0104C36.9635 21.1615 36.849 21.2448 36.7292 21.3802C36.4792 21.9375 35.8385 22.526 36.2083 23.1823C35.9896 23.9792 35.4323 24.6198 35.1302 25.3802L34.224 25.6458C33.6667 26.6458 33.2292 27.7083 32.724 28.7187C32.6771 29.0729 32.526 29.4271 32.474 29.7135L33.4167 29.7812C33.8385 29.901 34.3229 29.6823 34.6771 29.9844C34.6823 29.9896 34.6875 29.9948 34.6927 30H11.8646C11.8802 29.875 11.9531 29.7812 12.1875 29.7812H13.901C13.9375 29.5781 13.9167 29.276 13.9167 29.0573C13.8854 28.9219 13.6354 29.0729 13.7187 28.8698C13.9167 28.7865 14.1875 28.599 14.4062 28.7865C14.4219 29.0573 14.0052 28.8177 14.0365 29.125C14.0312 29.4062 14.1042 29.5625 14.0052 29.7656L14.1042 29.8125L16.9115 29.8333C17.0156 29.7812 17.1302 29.901 17.2656 29.8646C18.1562 29.849 19.1354 29.901 20.0104 29.8125C20.4635 29.8646 21 29.8646 21.4531 29.7812C22.0781 29.849 22.8333 29.8333 23.4219 29.7969C23.9427 29.8646 24.5312 29.8646 25.0573 29.7969C25.6771 29.4271 26.1823 28.6198 26.9062 28.5469L27.0208 28.349C27.5937 28.1771 28.1354 27.875 28.7708 27.9427C29.2917 28.0573 29.7812 28.2135 30.3542 28.1927L30.4896 28.0573C30.776 27.0312 31.1094 26.0208 31.3125 24.9583C31.1979 24.7865 31.0781 24.6198 30.875 24.5521C31.0104 23.8073 31.2604 23.099 31.3646 22.3437C31.4323 22.1563 31.5312 22.0573 31.6979 21.9375L32.1042 21.8333C32.6562 20.5208 32.9115 19.1198 33.0625 17.651C33.026 17.6198 32.9948 17.5677 32.9635 17.5208L32.3854 16.9583C32.2917 16.8958 32.1927 16.8646 32.0885 16.9271C30.7083 18.6458 29.7135 20.5208 28.4531 22.3073C28.5521 22.8958 27.9479 22.9844 27.5781 23.1823L27.375 23.7083C26.6042 24.0781 25.7292 24.2135 24.8385 24.3177C24.2135 24.3177 24.2292 23.5885 23.9271 23.2344C23.9427 22.9687 23.6927 22.7656 23.5052 22.6094C22.9531 22.5417 22.2604 22.3906 21.7604 22.6458C21.3854 23.0521 20.8854 23.1198 20.4635 23.3854C20.4948 23.875 20.9844 24.3802 20.599 24.8698L19.4687 25.1562C19.1146 24.6875 19.1354 24.0104 18.7448 23.5417C18.4271 23.7083 18.2083 23.4375 17.9583 23.3177C17.7552 23.0156 17.9219 22.3906 17.3698 22.4062C17.2135 22.224 17.2135 21.901 17.3333 21.7031C17.2344 21.3646 16.5937 21.4167 16.8125 20.9271C16.8958 20.5052 17.3333 20.1979 17.6354 19.9115C17.7187 19.7292 17.5 19.5729 17.5677 19.3906C17.151 18.5833 17.6198 17.5521 17.0156 16.8073C16.7969 16.8437 16.5417 16.9792 16.3229 16.8437C16.2396 16.7396 16.224 16.5208 16.0573 16.5208C16.0365 16.5469 16.0312 16.5729 16.0365 16.599C16.0365 16.599 16.099 16.8229 15.9844 16.9167C15.9792 16.9427 15.9323 16.9427 15.9219 16.9583C15.6667 17.0312 15.4479 17.2448 15.1615 17.1615C14.9271 16.8698 14.7344 16.5156 14.7135 16.1406C14.6927 15.8177 14.849 15.5 14.849 15.5C14.9896 15.4062 15.2187 15.401 15.3646 15.3229C15.5833 15.2396 15.651 15.6094 15.8385 15.4427C15.6094 15.1823 16.0104 15.1094 16.1615 15.0312H20.0885C20.1302 15.0469 20.1719 15.0677 20.2083 15.0885C20.4479 15.2396 20.7292 15.3906 20.849 15.6615C20.75 15.6615 20.6146 15.6771 20.5469 15.7969L20.1458 15.6302C20.1771 15.7812 20.1771 15.9323 20.0573 16.0677C19.4375 16.2865 19.0833 14.9687 18.526 15.7292C18.5625 15.8802 18.5937 16.0156 18.6458 16.151C18.3958 16.4375 17.5 16.3177 17.8698 16.9271C18.125 17.6042 18.7292 18.125 18.8646 18.849C19.1667 19.1198 19.5365 19.2187 19.9062 19.3073C20.1615 19.526 20.599 19.625 20.6667 19.9635C21 20.1667 21.4896 20.0625 21.8906 20.1146C22.2292 20.0625 22.6667 20.1823 22.8854 19.9479C22.9375 19.776 22.8698 19.4896 23.1042 19.474C23.8958 19.4219 24.7344 19.2552 25.5417 19.3073C25.6771 19.474 25.8281 19.474 25.9479 19.3073C26.0521 19.1302 26.1458 18.9375 26.2344 18.7396L26.9583 17.1354C27.2708 16.4323 27.5417 15.7135 27.8906 15.0312H45.5156Z" fill="black"/>
<mask id="mask0_143_1125" style="mask-type:luminance" maskUnits="userSpaceOnUse" x="4" y="29" width="40" height="31">
<path d="M4.42708 29.334H44V60.0007H4.42708V29.334Z" fill="white"/>
</mask>
<g mask="url(#mask0_143_1125)">
<path d="M34.6927 30C34.8437 30.1927 34.5625 30.3437 34.6927 30.5729C34.7083 30.9271 35.1823 30.724 35.401 30.7448C35.6719 30.7448 35.5833 31.0313 35.6198 31.1979C35.4844 31.7708 35.5365 32.4792 35.5833 33.0521C35.4687 33.3229 35.651 33.7083 35.3333 33.8802C34.375 33.7813 33.3802 33.8281 32.4062 33.8646C32.2865 33.9479 32.1562 33.7969 32.0521 33.9115L32.1719 35.4635L32.8125 40.8646C33.2656 44.4583 33.6667 48.1667 34.1042 51.7448L34.7448 57.1563L34.8281 57.2396C34.9271 57.125 35.0469 56.9896 35.1823 56.9063L35.0781 56.2135C35.5729 54.1406 35.6302 51.1875 36 49.0573L41.3021 48.9115C41.2448 50.1667 41.1927 52.026 41.3021 53.3125C41.2031 53.6146 41.2552 54.0052 41.1875 54.2917C41.1719 55.3385 41.2708 56.401 41.0365 57.3281C40.901 57.4792 40.7187 57.2917 40.5833 57.4115C40.6458 57.901 40.4323 58.5937 40.6823 59.0156L43.5573 59.026L42.9219 59.8438C42.349 59.8438 40.2135 59.8385 39.6406 59.8229C39.3854 59.7031 39.1198 59.875 38.849 59.7552L38.3125 59.7917L32.2031 59.7708L29.2865 59.776L29.1042 59.0208L31.651 59.0313C32.0052 59.1458 31.9531 58.776 32.1042 58.6094L31.2135 50.5104L29.9844 39.6979L29.4271 35.4635L29.3281 36.1042L27.6458 50.9688L27.1094 56.1458C27.0208 57.0573 26.8542 58.0521 26.8542 59.0156L29.1042 59.0208L29.2865 59.776L22.8281 59.7813L22.7083 59.026C22.9948 59.0208 23.5521 59.0052 23.8281 58.9792L24.3125 55.4063L25.125 48.6927L26.6354 35.6823L26.7708 33.8125L17.25 33.7448L17.0469 33.7813L17.0625 34.1823L17.8906 38.9427L20.3594 52.7552C20.75 54.7969 21.1719 56.9219 21.625 58.9792C21.8854 59.0052 22.4323 59.0208 22.7083 59.026L22.8281 59.7813L17.1302 59.7917L15.5885 59.8073L15.4115 59.0156H18.4635L18.7656 58.9635L18.6615 58.2552L17.2656 49.8542V49.7188L15.2969 38.099L15.1979 38.6042L12.776 58.4063L12.7396 59.0156H15.4115L15.5885 59.8073L14.1562 59.8229L5.07291 59.875C4.95312 59.9427 4.80208 59.875 4.71874 59.7708C4.75 59.4844 4.43229 59.0625 4.9375 59.0469C6.53645 58.9479 8.11458 59.0625 9.71354 59.0313L9.8125 58.9271L10.5052 53.8854L12.2031 40.2031L12.8073 35.5521L12.6406 35.3281L12.8437 33.7448C12.0208 33.625 11.1927 33.7969 10.4219 33.6615C10.2865 33.4219 10.4531 33.0521 10.3698 32.8177C10.3177 32.2292 10.4687 31.6354 10.3021 31.0938L10.3698 30.6406H11.8333C11.9531 30.4687 11.8437 30.1927 11.8646 30H34.6927Z" fill="black"/>
</g>
<mask id="mask1_143_1125" style="mask-type:luminance" maskUnits="userSpaceOnUse" x="36" y="29" width="20" height="31">
<path d="M36 29.334H55.4271V60.0007H36V29.334Z" fill="white"/>
</mask>
<g mask="url(#mask1_143_1125)">
<path d="M50.5208 30C51.0521 32.7396 51.3802 35.5469 51.4844 38.4688C51.7188 39.4115 51.6823 40.474 51.8021 41.4688C51.8854 41.6875 51.8854 42.0104 52.0521 42.1094L52.0052 42.1615C52.3073 43.1927 52.3385 44.3542 52.4583 45.4167C52.9271 47.0052 53.0104 48.7396 53.1667 50.4427C53.5365 52.6563 53.4844 54.8958 53.7552 57.1563C53.8854 57.6667 53.0781 57.224 53.3177 57.7969C53.401 58.1875 53.3333 58.6406 53.3802 59.0469C53.9896 59.1146 54.6458 59.0781 55.2188 59.2344C55.3333 59.401 55.4167 59.6354 55.3854 59.8229C55.1667 59.8385 54.9479 59.8385 54.7813 59.9427C52.4427 59.875 49.9167 59.9063 47.6615 59.8385L42.9219 59.8438L43.5573 59.026L45.0052 59.0313L46.1146 58.9635C46.3542 58.1198 47.3281 57.8333 47.901 57.3073L47.7656 57.1042C47.9844 55.1823 47.7448 53.1615 47.5625 51.2396L46.9896 46.8698L46.4167 43.6823C45.9635 42.7344 46.151 41.6042 45.8802 40.5938C45.526 38.875 45.1042 37.1667 44.6354 35.5313C44.6719 35.4167 44.4844 35.3958 44.5833 35.3281C44.25 34.3333 43.8958 33.3229 43.474 32.3594H43.4271L42.7188 37.3021C42.4167 39.2917 42.0625 41.25 41.6406 43.1719C41.4896 43.375 41.2708 43.5469 41.1719 43.7292C41.6094 43.9167 41.4219 44.3906 41.4896 44.7448C41.4896 44.8958 41.2552 44.9948 41.3698 45.1823H41.4063C41.2865 45.3177 41.4583 45.5677 41.4375 45.7708C41.4219 46.6302 41.349 48.0729 41.3021 48.9115L36 49.0573C36.0833 47.5937 36.3646 45.474 36.2604 43.9688C36.2917 43.224 36.4427 42.5 36.3594 41.724L36.7448 38.8073C36.9479 37.2031 37.1667 35.5313 37.3333 33.9323C37.0833 33.7083 36.6615 33.8125 36.4271 33.5781C36.4948 32.5313 36.6094 31.4687 36.7135 30.4375C36.5729 30.3177 36.5937 30.1615 36.625 30H50.5208Z" fill="black"/>
</g>
<path d="M21.9792 14.636C22.2135 15.0371 22.5677 15.4277 22.5833 15.9173C22.5469 15.985 22.4479 15.9641 22.3958 15.9329C21.9271 15.36 21.4896 14.735 20.9531 14.2298C20.9323 14.11 21.0156 14.011 21.1198 13.9746C21.5365 13.9225 21.7083 14.4121 21.9792 14.636Z" fill="black"/>
<path d="M23.3073 15.224C22.9687 15.1719 22.7656 14.75 22.599 14.4792C22.5833 14.4115 22.6146 14.3281 22.6823 14.3125C23.0521 14.4479 23.2708 14.8698 23.3073 15.224Z" fill="black"/>
<path d="M25.9635 17.4478L26.0469 17.5311L25.9479 17.6353C25.0365 17.6718 24.2656 17.3488 23.3906 17.3176C23.3229 17.2447 23.2708 17.1822 23.2917 17.078C24.2135 16.9947 25.0885 17.3176 25.9635 17.4478Z" fill="black"/>
<path d="M22.7969 18.3548C22.75 18.4017 22.7187 18.4538 22.7656 18.5319C23.625 18.5319 24.4323 18.5996 25.2917 18.5475C25.3594 18.3444 25.6771 18.3965 25.6615 18.1569C25.6615 17.9902 25.4583 18.0059 25.3385 17.9746L23.3698 18.1309C23.3698 18.1309 22.9323 18.0996 22.7969 18.3548Z" fill="black"/>
<path d="M22.1615 18.3288C22.1615 18.4642 22.0417 18.5319 21.9115 18.5319C21.8229 18.5632 21.8073 18.4798 21.7917 18.4277C21.7917 18.3132 21.8906 18.2246 21.9948 18.1934C22.0625 18.209 22.1302 18.2611 22.1615 18.3288Z" fill="black"/>
<path d="M47.1406 20.1816C46.2552 20.4629 45.2187 20.8535 44.401 21.2806C44.7031 21.2337 44.9948 21.14 45.2708 21.0358L46.6562 20.5566C46.7292 20.5254 46.7969 20.4889 46.8646 20.4473C46.8646 20.4473 47 20.3796 47.1406 20.1816Z" fill="white"/>
<path d="M41.9219 22.2868C41.8021 22.3961 39.8073 23.1878 39.6354 23.2034L39.5521 23.1722C39.6667 23.0107 41.5573 22.193 41.9219 22.2868Z" fill="white"/>
<path d="M40.7188 25.14C40.6563 25.1973 40.625 25.2702 40.6667 25.3587C40.8698 25.5306 40.6302 25.8171 40.6458 26.0514L40.3958 25.1764L40.6458 25.0618L44.1511 23.5671C44.3281 23.4733 44.5104 23.3848 44.7031 23.3379L44.8021 23.4889V23.5566L44.2292 23.6816L40.7188 25.14Z" fill="white"/>
<path d="M45.9583 27.4421C46.026 26.64 46.1458 25.8275 46.25 25.041H46.3021C46.3854 25.2598 46.2865 25.5775 46.3177 25.7337C46.2187 27.0983 46.0469 28.6348 45.9479 30.015C45.224 30.7441 44.2344 30.8952 43.3906 31.3483L42.9531 31.5358C43.5937 30.9629 44.5365 30.8275 45.224 30.2702C45.849 30.166 45.6979 29.4785 45.8281 29.0723L45.8542 28.8327L45.9583 27.4421Z" fill="white"/>
<path d="M39.2344 25.2246C38.9479 25.6152 38.5104 25.8184 38.0729 25.9538C37.7396 25.985 37.401 25.8184 37.099 25.9329C37 25.8704 36.8646 25.9017 36.7969 25.7819C37.5521 25.4798 38.4115 25.3288 39.2344 25.2246Z" fill="white"/>
<path d="M49.8542 28.416C49.8177 28.4629 49.6979 28.515 49.6667 28.4629C49.5 27.416 49.1042 24.8066 49.0052 23.7441C49.2396 24.7025 49.6511 27.4004 49.8542 28.416Z" fill="white"/>
</g>
<defs>
<clipPath id="clip0_143_1125">
<rect width="60" height="60" fill="white"/>
</clipPath>
</defs>
</svg>
