<svg width="24" height="24" viewBox="0 0 24 24" fill="none" xmlns="http://www.w3.org/2000/svg">
<g clip-path="url(#clip0_105_313)">
<path d="M11.9354 7.88112C13.7083 7.88112 15.15 6.42904 15.15 4.6457C15.15 2.86029 13.7083 1.4082 11.9354 1.4082C10.1646 1.4082 8.72292 2.86029 8.72292 4.6457C8.72292 6.42904 10.1646 7.88112 11.9354 7.88112ZM11.9354 1.78737C13.5 1.78737 14.7729 3.06862 14.7729 4.6457C14.7729 6.2207 13.5 7.50195 11.9354 7.50195C10.3729 7.50195 9.1 6.2207 9.1 4.6457C9.1 3.06862 10.3729 1.78737 11.9354 1.78737Z" fill="#404040"/>
<path d="M11.9354 5.87305C11.5792 5.87305 11.2875 6.16471 11.2875 6.52305C11.2875 6.88346 11.5792 7.17721 11.9354 7.17721C12.2938 7.17721 12.5854 6.88346 12.5854 6.52305C12.5854 6.16471 12.2938 5.87305 11.9354 5.87305Z" fill="#404040"/>
<path d="M11.9354 5.48975C12.2979 5.48975 12.5917 5.19183 12.6208 4.79808L12.7375 3.13558C12.7396 3.11058 12.7396 3.08558 12.7396 3.06266C12.7396 2.57516 12.3792 2.17725 11.9354 2.17725C11.725 2.17725 11.525 2.26683 11.375 2.43141C11.2042 2.61475 11.1167 2.86891 11.1354 3.13141L11.2521 4.79808C11.2813 5.19183 11.575 5.48975 11.9354 5.48975Z" fill="#404040"/>
<mask id="mask0_105_313" style="mask-type:luminance" maskUnits="userSpaceOnUse" x="3" y="0" width="18" height="24">
<path d="M3.53542 0H20.3354V24H3.53542V0Z" fill="white"/>
</mask>
<g mask="url(#mask0_105_313)">
<path d="M20.325 20.5686C20.3312 20.552 20.3354 20.5353 20.3354 20.5186C20.3354 20.5145 20.3375 20.5103 20.3375 20.5061V0.222787C20.3375 0.11862 20.2542 0.0332031 20.15 0.0332031H3.72292C3.61875 0.0332031 3.53542 0.11862 3.53542 0.222787V23.777C3.53542 23.8811 3.61875 23.9665 3.72292 23.9665H16.5396C16.5625 23.9665 16.5875 23.9624 16.6083 23.952C16.6187 23.9478 16.6271 23.9415 16.6354 23.9374C16.6458 23.9311 16.6562 23.927 16.6646 23.9186L20.275 20.6478C20.2771 20.6457 20.2771 20.6436 20.2792 20.6436C20.2833 20.6395 20.2875 20.6332 20.2896 20.629C20.3021 20.6165 20.3104 20.604 20.3167 20.5895C20.3208 20.5832 20.3229 20.5749 20.325 20.5686ZM3.9125 0.41237H19.9604V20.3165H16.5396C16.4354 20.3165 16.35 20.402 16.35 20.5061V23.5874H3.9125V0.41237Z" fill="#404040"/>
</g>
<path d="M5.43749 9.68727H13.1687C13.2729 9.68727 13.3583 9.60394 13.3583 9.49769C13.3583 9.39352 13.2729 9.30811 13.1687 9.30811H5.43749C5.33333 9.30811 5.24791 9.39352 5.24791 9.49769C5.24791 9.60394 5.33333 9.68727 5.43749 9.68727Z" fill="#404040"/>
<path d="M5.43749 11.2874H18.075C18.1792 11.2874 18.2646 11.202 18.2646 11.0978C18.2646 10.9936 18.1792 10.9082 18.075 10.9082H5.43749C5.33333 10.9082 5.24791 10.9936 5.24791 11.0978C5.24791 11.202 5.33333 11.2874 5.43749 11.2874Z" fill="#404040"/>
<path d="M5.43749 13.5022H18.075C18.1792 13.5022 18.2646 13.4168 18.2646 13.3126C18.2646 13.2085 18.1792 13.123 18.075 13.123H5.43749C5.33333 13.123 5.24791 13.2085 5.24791 13.3126C5.24791 13.4168 5.33333 13.5022 5.43749 13.5022Z" fill="#404040"/>
<path d="M10.8396 15.5708H6.275C6.16875 15.5708 6.08542 15.6562 6.08542 15.7604C6.08542 15.8666 6.16875 15.9521 6.275 15.9521H10.8396C10.9438 15.9521 11.0271 15.8666 11.0271 15.7604C11.0271 15.6562 10.9438 15.5708 10.8396 15.5708Z" fill="#404040"/>
<path d="M10.8396 17.2231H6.275C6.16875 17.2231 6.08542 17.3086 6.08542 17.4148C6.08542 17.519 6.16875 17.6044 6.275 17.6044H10.8396C10.9438 17.6044 11.0271 17.519 11.0271 17.4148C11.0271 17.3086 10.9438 17.2231 10.8396 17.2231Z" fill="#404040"/>
<path d="M10.8396 18.8794H6.275C6.16875 18.8794 6.08542 18.9627 6.08542 19.069C6.08542 19.1731 6.16875 19.2586 6.275 19.2586H10.8396C10.9438 19.2586 11.0271 19.1731 11.0271 19.069C11.0271 18.9627 10.9438 18.8794 10.8396 18.8794Z" fill="#404040"/>
<path d="M14.6062 20.7104H5.43749C5.33333 20.7104 5.24791 20.7959 5.24791 20.9021C5.24791 21.0063 5.33333 21.0917 5.43749 21.0917H14.6062C14.7104 21.0917 14.7958 21.0063 14.7958 20.9021C14.7958 20.7959 14.7104 20.7104 14.6062 20.7104Z" fill="#404040"/>
</g>
<defs>
<clipPath id="clip0_105_313">
<rect width="24" height="24" fill="white"/>
</clipPath>
</defs>
</svg>
