<svg width="24" height="24" viewBox="0 0 24 24" fill="none" xmlns="http://www.w3.org/2000/svg">
<path d="M11.9352 7.88307C13.7081 7.88307 15.1497 6.43099 15.1497 4.64766C15.1497 2.86224 13.7081 1.41016 11.9352 1.41016C10.1643 1.41016 8.72266 2.86224 8.72266 4.64766C8.72266 6.43099 10.1643 7.88307 11.9352 7.88307ZM11.9352 1.78932C13.4997 1.78932 14.7727 3.07057 14.7727 4.64766C14.7727 6.22266 13.4997 7.50391 11.9352 7.50391C10.3727 7.50391 9.09974 6.22266 9.09974 4.64766C9.09974 3.07057 10.3727 1.78932 11.9352 1.78932Z" fill="#EFEFEF"/>
<path d="M11.935 5.87109C11.5788 5.87109 11.2871 6.16276 11.2871 6.52109C11.2871 6.88151 11.5788 7.17526 11.935 7.17526C12.2934 7.17526 12.585 6.88151 12.585 6.52109C12.585 6.16276 12.2934 5.87109 11.935 5.87109Z" fill="#EFEFEF"/>
<path d="M11.9353 5.48828C12.2978 5.48828 12.5916 5.19037 12.6207 4.79662L12.7374 3.13411C12.7395 3.10911 12.7395 3.08411 12.7395 3.0612C12.7395 2.5737 12.3791 2.17578 11.9353 2.17578C11.7249 2.17578 11.5249 2.26536 11.3749 2.42995C11.2041 2.61328 11.1166 2.86745 11.1353 3.12995L11.252 4.79662C11.2811 5.19037 11.5749 5.48828 11.9353 5.48828Z" fill="#EFEFEF"/>
<mask id="mask0_1061_3593" style="mask-type:luminance" maskUnits="userSpaceOnUse" x="3" y="0" width="18" height="24">
<path d="M3.53516 0H20.3352V24H3.53516V0Z" fill="white"/>
</mask>
<g mask="url(#mask0_1061_3593)">
<path d="M20.3247 20.5706C20.331 20.5539 20.3352 20.5372 20.3352 20.5206C20.3352 20.5164 20.3372 20.5122 20.3372 20.5081V0.22474C20.3372 0.120573 20.2539 0.0351562 20.1497 0.0351562H3.72266C3.61849 0.0351562 3.53516 0.120573 3.53516 0.22474V23.7789C3.53516 23.8831 3.61849 23.9685 3.72266 23.9685H16.5393C16.5622 23.9685 16.5872 23.9643 16.6081 23.9539C16.6185 23.9497 16.6268 23.9435 16.6352 23.9393C16.6456 23.9331 16.656 23.9289 16.6643 23.9206L20.2747 20.6497C20.2768 20.6477 20.2768 20.6456 20.2789 20.6456C20.2831 20.6414 20.2872 20.6352 20.2893 20.631C20.3018 20.6185 20.3102 20.606 20.3164 20.5914C20.3206 20.5852 20.3227 20.5768 20.3247 20.5706ZM3.91224 0.414323H19.9602V20.3185H16.5393C16.4352 20.3185 16.3497 20.4039 16.3497 20.5081V23.5893H3.91224V0.414323Z" fill="#EFEFEF"/>
</g>
<path d="M5.43763 9.68776H13.1689C13.273 9.68776 13.3585 9.60443 13.3585 9.49818C13.3585 9.39401 13.273 9.30859 13.1689 9.30859H5.43763C5.33346 9.30859 5.24805 9.39401 5.24805 9.49818C5.24805 9.60443 5.33346 9.68776 5.43763 9.68776Z" fill="#EFEFEF"/>
<path d="M5.43763 11.2893H18.0751C18.1793 11.2893 18.2647 11.2039 18.2647 11.0997C18.2647 10.9956 18.1793 10.9102 18.0751 10.9102H5.43763C5.33346 10.9102 5.24805 10.9956 5.24805 11.0997C5.24805 11.2039 5.33346 11.2893 5.43763 11.2893Z" fill="#EFEFEF"/>
<path d="M5.43763 13.5003H18.0751C18.1793 13.5003 18.2647 13.4148 18.2647 13.3107C18.2647 13.2065 18.1793 13.1211 18.0751 13.1211H5.43763C5.33346 13.1211 5.24805 13.2065 5.24805 13.3107C5.24805 13.4148 5.33346 13.5003 5.43763 13.5003Z" fill="#EFEFEF"/>
<path d="M10.8401 15.5703H6.27552C6.16927 15.5703 6.08594 15.6557 6.08594 15.7599C6.08594 15.8661 6.16927 15.9516 6.27552 15.9516H10.8401C10.9443 15.9516 11.0276 15.8661 11.0276 15.7599C11.0276 15.6557 10.9443 15.5703 10.8401 15.5703Z" fill="#EFEFEF"/>
<path d="M10.8401 17.2227H6.27552C6.16927 17.2227 6.08594 17.3081 6.08594 17.4143C6.08594 17.5185 6.16927 17.6039 6.27552 17.6039H10.8401C10.9443 17.6039 11.0276 17.5185 11.0276 17.4143C11.0276 17.3081 10.9443 17.2227 10.8401 17.2227Z" fill="#EFEFEF"/>
<path d="M10.8401 18.8789H6.27552C6.16927 18.8789 6.08594 18.9622 6.08594 19.0685C6.08594 19.1727 6.16927 19.2581 6.27552 19.2581H10.8401C10.9443 19.2581 11.0276 19.1727 11.0276 19.0685C11.0276 18.9622 10.9443 18.8789 10.8401 18.8789Z" fill="#EFEFEF"/>
<path d="M14.6064 20.7109H5.43763C5.33346 20.7109 5.24805 20.7964 5.24805 20.9026C5.24805 21.0068 5.33346 21.0922 5.43763 21.0922H14.6064C14.7105 21.0922 14.796 21.0068 14.796 20.9026C14.796 20.7964 14.7105 20.7109 14.6064 20.7109Z" fill="#EFEFEF"/>
</svg>
