<svg width="60" height="60" viewBox="0 0 60 60" fill="none" xmlns="http://www.w3.org/2000/svg">
<path d="M9.80729 21.8379L9.79688 21.6191C9.79167 21.4368 9.78646 21.2546 9.77604 21.0723C9.76563 20.7598 9.75 20.4473 9.75 20.1296L9.74479 19.9473L9.5625 19.9369C8.66146 19.9004 7.74479 19.8171 6.86458 19.7285C5.88021 19.64 4.85938 19.541 3.84896 19.515L3.66146 19.5098L3.65104 19.6921C3.63542 19.9733 3.59896 20.2494 3.56771 20.5306C3.54167 20.7441 3.52083 20.9577 3.5 21.1712L3.48438 21.3483L3.66146 21.3796C4.88021 21.5931 6.15104 21.6452 7.38021 21.6921C8.10937 21.7233 8.85938 21.7546 9.58854 21.8171L9.80729 21.8379Z" fill="black"/>
<path d="M7.4375 9.05273C7.43229 8.47982 7.42708 7.9069 7.42187 7.33919V7.14648H4.5625L4.52604 7.29232C4.49479 7.40169 4.47395 7.51628 4.46354 7.63607L4.45312 7.74544L4.53645 7.80794C4.92187 8.11003 5.22395 8.55794 5.52083 8.99024C5.58854 9.0944 5.66145 9.19857 5.72395 9.29232C5.76562 9.35482 5.79166 9.41732 5.79687 9.50065C5.80208 9.54753 5.80208 9.59961 5.78645 9.6569C5.74479 9.83398 5.73437 10.0319 5.71874 10.2454C5.68229 10.8236 5.63541 11.2142 5.26041 11.3757C5.01562 11.4798 4.76041 11.5111 4.47916 11.4746L4.2552 11.4434L4.26041 11.6725C4.26562 12.2507 4.28125 12.8288 4.30208 13.4069V13.6048L4.5 13.5944C4.98958 13.5632 5.47395 13.4902 5.9427 13.4225C6.3802 13.3548 6.83333 13.2871 7.28125 13.2559L7.5052 13.2402L7.45833 13.0215C7.45312 13.0007 7.44791 12.9746 7.44791 12.9538C7.46874 11.6517 7.45312 10.3288 7.4375 9.05273Z" fill="black"/>
<mask id="mask0_143_953" style="mask-type:luminance" maskUnits="userSpaceOnUse" x="9" y="2" width="6" height="5">
<path d="M9.33333 2.0625H14.6667V6.66667H9.33333V2.0625Z" fill="white"/>
</mask>
<g mask="url(#mask0_143_953)">
<path d="M11.1042 5.21875C11.3698 5.34375 11.6406 5.46875 11.9062 5.59375L12.1927 5.71875C12.3646 5.79687 12.5312 5.88021 12.7031 5.95313C12.8437 6.02083 12.9896 6.08333 13.1615 6.13021L13.3594 6.1875L13.401 5.98437C13.4635 5.69792 13.4844 5.40625 13.5052 5.13021C13.5156 4.9375 13.5312 4.74479 13.5573 4.55729L13.5729 4.4375L13.474 4.36979C12.474 3.69271 11.5365 3.125 10.6042 2.63021L10.3542 2.5L10.3229 2.78125C10.2812 3.14063 10.2604 3.50521 10.2396 3.86458C10.224 4.13021 10.2135 4.39063 10.1875 4.65625L10.1771 4.79167L10.2969 4.84896C10.5677 4.96875 10.8333 5.09375 11.1042 5.21875Z" fill="black"/>
</g>
<path d="M3.52083 13.0632C3.5 12.4746 3.47917 11.8809 3.47396 11.2923L3.46875 11.1621L3.34375 11.1152C3.32292 11.1048 3.29687 11.0944 3.25 11.0788L2.74479 10.8965L2.72917 11.1569C2.69792 11.735 2.64583 12.3132 2.59375 12.8913C2.52604 13.6413 2.45312 14.4173 2.43229 15.1882C2.39583 16.3965 2.34896 17.4798 2.08854 18.5788L2.03125 18.8184H3.35417V18.6257C3.35417 18.6048 3.35417 18.584 3.35937 18.5632C3.63542 16.735 3.57292 14.8704 3.52083 13.0632Z" fill="black"/>
<path d="M3.45312 25.1152L3.26041 25.0891C2.72396 25.0058 2.27604 24.9797 1.84375 25.0058L1.67187 25.0214L1.66666 25.1933C1.64583 25.8131 1.63541 26.4797 1.68229 27.1464L1.69271 27.2766L1.81771 27.3131C2.22916 27.4485 2.64062 27.5683 3.0625 27.6881L3.30729 27.7558V27.5006C3.30208 26.7141 3.30729 26.011 3.42187 25.3079L3.45312 25.1152Z" fill="black"/>
<path d="M44.7552 13.2662C45.0833 12.7662 45.5781 11.9641 46.5729 11.3547C46.6927 11.2714 46.8333 11.2245 46.9687 11.1568C47.0469 11.1203 47.0937 11.0995 47.1927 11.0578C47.2604 11.037 47.3333 11.0109 47.4062 10.9953C47.5469 10.9484 47.6875 10.9016 47.8437 10.8651C48.0052 10.8339 48.1719 10.8026 48.3385 10.7766C49.0052 10.688 49.7187 10.688 50.4635 10.813C50.8333 10.8807 51.2083 10.9641 51.5781 11.1047C51.7656 11.1568 51.9479 11.2453 52.1302 11.3182C52.3229 11.3964 52.4948 11.4849 52.6667 11.5682C53.3802 11.9172 54.1042 12.3078 54.8177 12.7662C56.2344 13.6724 57.4896 14.787 58.2448 16.0995C58.6302 16.7505 58.8646 17.4432 58.9687 18.1099C58.9792 18.1932 58.9948 18.2766 59.0052 18.3547C59.0208 18.4641 59.0156 18.5214 59.026 18.6047C59.0312 18.7557 59.0417 18.912 59.0469 19.063C59.0312 19.3755 59.0312 19.6828 58.9792 19.9589C58.8281 21.0734 58.4792 21.912 58.2292 22.4745C57.9739 23.0266 57.7812 23.313 57.7448 23.2974C57.6979 23.2766 57.8125 22.9537 57.9896 22.3755C58.1667 21.8026 58.4375 20.9589 58.526 19.9068C58.5625 19.6412 58.5417 19.3755 58.5417 19.0995C58.5364 18.9537 58.5156 18.8026 58.5 18.6516C58.4948 18.5734 58.4896 18.4797 58.4792 18.4276L58.4323 18.2037C58.3125 17.6099 58.0885 16.9901 57.7239 16.4068C57.0156 15.2297 55.8333 14.188 54.4635 13.3182C53.7812 12.8755 53.0781 12.4953 52.3854 12.1464C52.2083 12.0578 52.0364 11.9693 51.8698 11.9016C51.7031 11.8287 51.5417 11.7453 51.3698 11.6932C51.0312 11.563 50.6875 11.4849 50.3542 11.4068C49.6771 11.2714 49.0156 11.2557 48.4167 11.313C48.2656 11.3339 48.1198 11.3495 47.9792 11.3703C47.8333 11.3964 47.6875 11.4432 47.5417 11.4797C47.4687 11.5005 47.3958 11.5162 47.3281 11.537L47.1562 11.6047C47.0364 11.6568 46.9062 11.688 46.7969 11.7609C45.8854 12.2453 45.3489 12.9641 44.9583 13.4172C44.5729 13.8859 44.3542 14.1464 44.3125 14.1203C44.2812 14.0891 44.4271 13.787 44.7552 13.2662ZM49.3958 21.0057C52.1875 22.5057 55.1302 23.7922 57.8802 25.3703C58.651 23.0839 59.9739 20.7297 59.7448 18.2557C59.526 15.7714 57.3281 13.6047 55.3333 12.2974C53.3125 10.9693 50.7917 9.78699 48.2969 10.0995C45.3698 10.4589 43.5573 12.6464 42.5469 15.2766C42.5364 15.3026 42.526 15.3234 42.5104 15.3443C42.5104 15.3547 42.5104 15.3547 42.5104 15.3599C43.5625 18.537 46.7031 19.563 49.3958 21.0057Z" fill="black"/>
<path d="M8.53125 25.1407C8.51041 25.4167 8.48437 25.6876 8.45833 25.9636L8.39583 26.6355L8.60416 26.6407C9.07812 26.6563 9.53645 26.698 9.95833 26.7657L10.1771 26.7969L10.2031 26.2136C10.2187 25.8646 10.2344 25.5105 10.2292 25.1563V25.0001L10.0729 24.974C9.66145 24.8907 9.20312 24.8907 8.72395 24.9636H8.54687L8.53125 25.1407Z" fill="black"/>
<path d="M10.4219 19.3073L10.4479 19.3385C10.6927 19.5469 10.9063 19.7708 11.099 20.0156L11.3437 20.3385L11.4375 19.9427C11.4479 19.901 11.4531 19.8646 11.4583 19.8281C11.474 19.7448 11.4844 19.6927 11.5104 19.6563L11.5937 19.5521L11.5208 19.4375C10.7188 18.2031 9.29167 17.7813 7.90625 17.375C6.5625 16.9792 5.29688 16.6042 4.56771 15.5625L4.21875 15.0625V15.6771L4.23958 15.7604C4.88021 17.0781 6.46354 17.5885 7.73438 18C8.09375 18.1146 8.4375 18.2292 8.72917 18.349C9.375 18.599 9.90104 18.8906 10.3229 19.224C10.3646 19.25 10.3958 19.276 10.4219 19.3073Z" fill="black"/>
<path d="M8.59895 24.1986L8.82812 24.1725C9.02083 24.1517 9.21354 24.1413 9.41145 24.1361L9.58854 24.1309L9.59895 23.959C9.6302 23.5527 9.64062 23.1465 9.61979 22.7663L9.60937 22.5944L8.61458 22.5215L8.61979 22.7402C8.63541 23.1465 8.6302 23.5632 8.60937 23.9694L8.59895 24.1986Z" fill="black"/>
<path d="M4.64063 10.7656C4.72917 10.7656 4.80209 10.7448 4.86459 10.6979C4.98438 10.6094 5.00001 10.4479 5.01563 9.84375L5.02605 9.64063L4.87501 9.42708C4.48438 8.85937 4.08334 8.27083 3.25521 8.15104L3.06771 8.125L2.9948 8.59896C2.92709 8.98958 2.85938 9.39583 2.85417 9.8125C2.85417 9.82813 2.85938 9.86458 2.86459 9.90104C2.86459 9.93229 2.8698 9.96354 2.87501 9.99479L2.88021 10.1198L3.15105 10.2135C3.23959 10.2448 3.33334 10.276 3.42188 10.3125C3.45834 10.3281 3.52084 10.3594 3.59896 10.3958C4.08334 10.6302 4.41146 10.7656 4.64063 10.7656Z" fill="black"/>
<path d="M52.7865 31.4473C53.0365 30.1816 53.8021 29.1764 54.6146 28.1087L55.0365 27.5462L54.8594 27.4316C53.9896 26.8796 53.1562 26.2389 52.349 25.6191C52.1302 25.4525 51.9115 25.2858 51.6927 25.1191L51.3854 24.8848V25.2702C51.3854 25.3066 51.3854 25.3379 51.3906 25.3639C51.4583 26.1504 51.3646 26.7806 51.0937 27.416C51.0521 27.515 51 27.6191 50.9479 27.7337C50.5469 28.6191 49.9323 29.9577 50.8333 30.7702C51.4167 31.2962 51.9583 31.5514 52.5833 31.6035L52.7552 31.6191L52.7865 31.4473Z" fill="black"/>
<path d="M18.375 27.4896C18.4792 28.2031 18.5885 28.9427 18.6406 29.6771L18.7292 30.7969L19.0208 29.7083C19.3854 28.349 19.151 26.4375 18.4844 25.3542L18.0573 24.6562L18.1302 25.474C18.1875 26.151 18.2865 26.8281 18.375 27.4896Z" fill="black"/>
<path d="M47.6771 26.9271C47.7083 26.7865 47.7656 26.6875 47.8229 26.5885C47.8802 26.5052 47.9323 26.4167 47.9948 26.3385C48.0729 26.2552 48.1615 26.1875 48.2188 26.1406C48.2813 26.099 48.3281 26.0625 48.3802 26.026C48.4219 25.9948 48.4219 25.9844 48.4375 25.9792C48.4583 25.9635 48.4219 25.8646 48.3802 25.7969C48.2969 25.6615 48.2344 25.5729 48.2656 25.5365C48.2865 25.5052 48.3958 25.5156 48.5573 25.6198C48.6302 25.6875 48.7656 25.75 48.7969 25.9896C48.8073 26.1094 48.75 26.2292 48.6927 26.3021C48.6354 26.375 48.5781 26.4323 48.526 26.4896C48.4688 26.5469 48.4375 26.5937 48.4063 26.6406C48.3646 26.7031 48.3385 26.776 48.3021 26.8385C48.2448 26.9583 48.2396 27.099 48.25 27.1146C48.25 27.1198 48.25 27.1198 48.25 27.1146C48.2813 27.125 48.401 27.151 48.5313 27.1198C48.6979 27.0885 48.8802 27.0104 49.026 26.8958C49.1667 26.8073 49.3021 26.6458 49.375 26.5052C49.4479 26.3542 49.474 26.1875 49.4688 26.026C49.4583 25.7083 49.2917 25.4271 49.1042 25.2708C48.9167 25.1042 48.6927 25.0573 48.5521 25.0417C48.3854 25.026 48.2708 25.0313 48.2656 24.9792C48.2552 24.9427 48.3177 24.8594 48.5 24.7917C48.6979 24.7135 49.0208 24.6927 49.3594 24.8906C49.6927 25.0677 50.0052 25.4583 50.0729 25.9688C50.099 26.224 50.0729 26.5052 49.9583 26.7708C49.8333 27.0365 49.6667 27.2448 49.4115 27.4323C49.1771 27.6042 48.9167 27.7083 48.6354 27.7552C48.4948 27.7708 48.3542 27.7865 48.1927 27.7448C48.1146 27.7344 48.026 27.6927 47.9479 27.651C47.8698 27.5937 47.7813 27.5313 47.7396 27.4323C47.7135 27.3906 47.6875 27.3385 47.6719 27.2917C47.6667 27.25 47.6615 27.2031 47.651 27.1615C47.6406 27.0625 47.6667 27 47.6771 26.9271ZM43.5938 30.6979C43.4063 30.8021 43.1146 30.9167 42.7396 30.9583C42.3594 30.9948 41.8958 30.9427 41.4323 30.8073C41.3021 30.7708 41.1719 30.7292 41.0365 30.6823C42.2344 31.4167 42.8646 32.4479 43.1771 33.8073C43.3281 33.9115 43.4167 34.0885 43.4427 34.2917C43.4635 34.4635 43.4844 34.6406 43.5052 34.8177C43.8281 34.75 44.1667 34.6615 44.526 34.5104C45.6458 34.0417 46.7552 33.4115 48.0052 33.3698C48.4635 33.349 52.6875 33.3125 52.5885 32.9844C52.5469 32.9115 52.526 32.8281 52.5208 32.7344C52.5104 32.6823 52.5156 32.625 52.5104 32.5729C51.1354 32.4375 49.401 31.4375 49.4063 29.9219C49.4063 29.6146 49.5052 29.1979 49.6458 28.7292C49.5938 28.7656 49.5365 28.7969 49.474 28.8281L49.2865 28.9219L49.2396 28.9427C49.2396 28.9427 49.2188 28.9531 49.224 28.9531L49.2135 28.9583L49.1302 28.9896C49.0156 29.0365 48.9323 29.0833 48.8333 29.1302C48.4271 29.3229 48.0521 29.5937 47.5 29.6667C47.2188 29.7083 46.8802 29.5729 46.7031 29.375C46.526 29.1719 46.4323 28.9583 46.3594 28.7656L46.3333 28.6927L46.3281 28.6719C46.3125 28.625 46.3229 28.651 46.3125 28.6354L46.3073 28.6042L46.2813 28.4635C46.2604 28.375 46.2396 28.2917 46.2188 28.1979C46.2188 27.9948 46.1823 27.7865 46.2344 27.6094C46.2813 27.2448 46.4635 26.9635 46.6042 26.7344C46.7708 26.5208 46.9219 26.3542 47.0573 26.2292C47.3177 25.9792 47.4844 25.8594 47.5208 25.8906C47.5521 25.9219 47.4479 26.099 47.25 26.3958C47.0625 26.6875 46.7344 27.1094 46.6927 27.6667C46.6667 27.8073 46.7135 27.9375 46.7135 28.0781C46.7292 28.1615 46.7604 28.25 46.7865 28.3385L46.8281 28.4688L46.8333 28.4948V28.5L46.8438 28.5104L46.8646 28.5677C46.9323 28.724 47.0208 28.8698 47.1094 28.9635C47.2135 29.0521 47.2917 29.0833 47.4375 29.0625C47.7396 29.0208 48.125 28.776 48.5417 28.5573C48.6406 28.5052 48.7708 28.4427 48.8698 28.3958L48.9531 28.3594L48.9688 28.3542C49.0052 28.3385 48.9896 28.3385 49 28.3385L49.0313 28.3177L49.1615 28.25C49.25 28.2135 49.3281 28.1458 49.4063 28.0833C49.4896 28.026 49.5625 27.9479 49.6302 27.8646C50.4323 26.901 50.8594 24.5885 49.3438 24C48.8333 23.7917 48.3542 24.0156 48.0677 24.1667C47.9219 24.2448 47.8073 24.3333 47.7292 24.3802C47.6458 24.4271 47.599 24.4479 47.5781 24.4323C47.5625 24.4115 47.5885 24.3646 47.6406 24.2865C47.6979 24.2031 47.7708 24.0885 47.9271 23.9635C47.9948 23.901 48.0833 23.8281 48.1823 23.7708C48.2344 23.7396 48.2865 23.7083 48.3438 23.6719C48.401 23.6458 48.4635 23.625 48.5313 23.599C48.5729 23.5833 48.625 23.5677 48.6771 23.5573C48.5729 23.4948 48.4948 23.4115 48.4479 23.3125C46.6667 22.5313 44.7031 22.1719 42.8906 21.4583C42.0521 21.125 41.2396 20.7552 40.5104 20.3281C40.2396 20.7135 39.8698 20.9792 39.401 21.2083C39.2396 21.2865 38.599 21.5104 38.6094 21.75C38.625 22 38.7292 22.224 38.8698 22.4323C39.224 22.7292 39.4948 23.5208 40.0365 23.3906C40.0469 23.1198 40.1146 22.8646 40.125 22.5938C40.151 22.2188 40.1458 21.9583 40.2396 21.9323C40.3177 21.9063 40.4844 22.125 40.5885 22.5469C40.6354 22.7656 40.6823 23.0208 40.6146 23.3594C40.5729 23.5208 40.4792 23.7656 40.2135 23.8906C39.9479 24.0052 39.7031 23.9427 39.526 23.8698L39.4844 23.8542L39.5156 23.8594C39.4323 23.8281 39.3542 23.7708 39.3542 23.7656L39.3073 23.7188L39.2135 23.6302C39.2031 23.6198 39.1979 23.6094 39.1823 23.599C39.1094 23.776 39.0156 23.9427 38.9219 24.1198C38.8281 24.2917 38.8073 24.2656 38.9271 24.4583C38.9323 24.474 38.9375 24.4896 38.9479 24.5052C39.0938 24.6719 39.1458 24.901 38.9948 25.151C38.724 25.5729 38.5208 27.9167 38.7656 28.8906C38.8229 28.9375 38.8802 28.9844 38.9531 29.026C39.3021 29.2396 39.7604 29.4323 40.2604 29.6458C40.7552 29.8698 41.1979 30.0833 41.6146 30.2344C42.026 30.3802 42.4063 30.4635 42.7292 30.4896C43.0521 30.5156 43.3177 30.4792 43.5 30.4635C43.6927 30.4271 43.8125 30.4219 43.8281 30.4635C43.8438 30.5052 43.7604 30.5885 43.5938 30.6979Z" fill="black"/>
<path d="M46.1667 21.5255C46.4115 21.588 46.6511 21.6557 46.875 21.7182C47.6667 21.9421 48.4479 22.2651 49.2708 22.7182L49.3229 22.739C49.8698 22.8692 50.3281 23.1453 50.6823 23.5619L50.724 23.5984C51.3698 24.0255 52.0052 24.4942 52.6198 24.9473C53.974 25.9421 55.375 26.9682 56.9688 27.6973L57.0156 27.7182L57.0677 27.7078C57.5625 27.6557 57.9375 27.2338 58.1511 26.489L58.1719 26.4578L58.1146 26.2911C58.0938 26.2494 58.0781 26.213 58.0573 26.1557L58.0156 26.0359L57.9531 25.9994C55.4011 24.4942 52.6615 23.1609 50.0156 21.864C49.1094 21.4213 48.2031 20.9786 47.3073 20.5359C45.1823 19.4682 43.0261 18.2182 42.1042 15.7286L42.0521 15.588L41.9063 15.6036C41.3802 15.6505 40.8646 15.5463 40.3073 15.4369C40.2448 15.4265 40.1719 15.4057 40.0886 15.3901C39.6198 15.2807 38.9167 15.114 38.5729 15.4942L38.5208 15.5515V15.6244C38.5417 19.4369 42.9531 20.6401 46.1667 21.5255Z" fill="black"/>
<path d="M19.1875 30.5059L19.151 30.5788L19.1823 30.6621C19.2292 30.7819 19.2812 30.9069 19.3333 31.0215C19.4115 31.1986 19.4844 31.3757 19.5417 31.5527L19.7344 32.1204L19.9115 31.5475C19.9583 31.3913 20.0104 31.235 20.0573 31.0788C20.349 30.1673 20.651 29.2246 20.5729 28.2559C20.4323 26.5892 19.849 25.1152 18.8333 23.8757L18.6146 23.5996L18.5 23.9382C18.4583 24.0788 18.4115 24.2194 18.3594 24.3548L18.3177 24.4746L18.4115 24.5632C19.6198 25.7142 20.0312 28.8236 19.1875 30.5059Z" fill="black"/>
<path d="M29.4688 15.0009C29.9688 15.1832 30.4375 15.3602 30.8073 15.3811C31.0833 15.3967 31.1979 15.6311 31.1875 15.8342C31.1823 15.8915 31.151 16.1675 30.8594 16.1675C30.849 16.1675 30.8385 16.1675 30.8281 16.1623C30.401 16.1363 29.9792 15.9696 29.5729 15.8082C29.4219 15.7509 29.276 15.6936 29.125 15.6363L28.9844 15.5842C28.5729 15.4332 28.1458 15.2925 27.849 15.3238L27.4635 15.3707L27.7292 15.6467C29.8594 17.8967 32.125 18.855 34.6563 18.5946C34.8958 18.5686 34.9687 18.7092 34.9948 18.8394L35.0677 18.9748C35.4531 19.6832 35.8281 20.2873 36.224 20.8082L36.2604 20.8498C36.5469 21.2248 36.901 21.6988 37.3542 21.9696L37.6458 22.1467V21.8082C37.6458 21.5582 37.7031 21.3394 37.8333 21.1363C38.0156 20.8498 38.3594 20.6832 38.724 20.5113C39.099 20.329 39.4948 20.1363 39.7188 19.7873L39.8125 19.6363L39.6771 19.5269C38.4583 18.579 37.8281 17.4279 37.75 16.0217L37.7396 15.8915L37.6198 15.8498C37.5937 15.8446 37.5729 15.8342 37.5521 15.8186C37.2292 15.6259 36.8958 15.4488 36.5625 15.2769C35.4687 14.6936 34.4271 14.1467 33.875 13.0425C33.224 11.7717 32.0313 11.2821 30.599 11.6884C29.8958 11.8915 27.5365 13.105 27.4531 14.3342L27.4375 14.5529L27.6563 14.5425C28.1719 14.5217 28.8698 14.7717 29.4688 15.0009Z" fill="black"/>
<path d="M54.4167 31.1816L54.4948 31.1973C54.599 31.2129 54.6875 31.2754 54.7552 31.3743C54.8646 31.5514 55 31.7181 55.1771 31.8796L55.5104 32.1868L55.4948 31.5618C55.4792 30.7858 55.4635 29.9108 54.7813 29.4577L54.625 29.3535L54.5156 29.5046C54.2083 29.9421 53.9792 30.3535 53.8177 30.7598L53.75 30.9108L53.8958 30.9941C54.0521 31.0931 54.2031 31.14 54.4167 31.1816Z" fill="black"/>
<path d="M58.2708 44.3125C58.25 43.2813 58.2083 42.2552 58.1354 41.2344C58 39.2604 58.0729 36.7813 57.3177 34.9271C56.6979 33.4219 55.0104 33.2708 54.0781 32.099C53.9479 32.0677 53.8177 32.0365 53.6927 31.9844C53.6719 32.1823 53.6667 32.3906 53.6823 32.6042C53.6875 32.625 53.7031 32.651 53.7136 32.6771C54.2344 34.3802 51.5729 34.4844 50.5261 34.5208C49.7031 34.5469 48.8177 34.4271 48.0052 34.5365C47.0886 34.651 46.3281 35.0365 45.5261 35.375C45.8854 35.4219 46.2448 35.4792 46.6198 35.5573C47.8646 35.8385 48.9375 36.1771 49.7136 36.4063C50.474 36.6406 50.9844 36.7865 50.9636 36.9167C50.9531 37.0417 50.4375 37.125 49.5886 37.0417C48.75 36.974 47.6302 36.724 46.4271 36.4583C45.8229 36.3281 45.2552 36.2188 44.7396 36.1354C44.2344 36.0677 43.7761 36.0156 43.3854 36.0104C43.2656 36.0417 43.1511 36.0781 43.0365 36.1198C43.2813 36.1927 43.5208 36.2813 43.7552 36.3802C46.7188 37.6771 48.6146 39.9583 49.0104 43.1927C49.1615 44.4115 49.3802 45.6823 49.5729 46.9635C52.7083 47.1302 55.3906 45.3333 58.2708 44.3125Z" fill="black"/>
<mask id="mask1_143_953" style="mask-type:luminance" maskUnits="userSpaceOnUse" x="12" y="38" width="15" height="21">
<path d="M12 38.666H26.6667V58.0618H12V38.666Z" fill="white"/>
</mask>
<g mask="url(#mask1_143_953)">
<path d="M19.9583 52.4941C18.5469 52.015 17.2135 51.5566 16.2969 50.8223C13.1146 48.2546 13.9635 44.416 15.0104 41.0202C15.026 40.9733 15.0417 40.9421 15.0781 40.916L15.1823 40.8327L15.1406 40.7025C15.0417 40.4004 14.9219 40.1243 14.7812 39.8848L14.5365 39.4785L14.4271 39.9368C14.349 40.2493 14.2708 40.5618 14.1927 40.8848C13.1719 44.9837 11.8958 50.0827 16.1823 52.5358C17.5729 53.3275 19.1198 53.7181 20.6198 54.0983C21.5365 54.3275 22.4844 54.5671 23.375 54.8952C24.3385 55.2493 24.849 56.1087 24.8906 57.4473L24.8958 57.6191L25.0625 57.6348C25.1302 57.64 25.2031 57.6504 25.2708 57.666L25.4948 57.7025V57.4733C25.4479 54.3743 22.6562 53.4212 19.9583 52.4941Z" fill="black"/>
</g>
<path d="M11.9948 25.1152L11.9531 24.5996L11.651 25.0163C11.5156 25.1986 11.3646 25.3809 11.1979 25.5579C11.1719 25.584 11.1458 25.5996 11.1198 25.61L11.0104 25.6621L10.9844 26.1829C10.9688 26.3913 10.9583 26.5944 10.9531 26.8027L10.9479 26.959L11.099 26.9954C11.4115 27.0736 11.7292 27.1725 12.0781 27.2923L12.4323 27.4121L12.2917 26.9382C12.1042 26.2559 12.0365 25.6048 11.9948 25.1152Z" fill="black"/>
<path d="M14.151 31.3547C15.276 30.7922 16.4531 30.3652 17.6979 30.1933C17.6302 28.5162 17.2552 26.8756 17.1302 25.1985C17.099 25.0995 17.099 24.9797 17.151 24.8443C17.9896 22.6412 18.2708 20.9954 17.2604 18.7662C17.0573 18.3235 15.8958 14.787 15.0573 15.8391C14.8333 16.1256 15.3698 16.8704 15.526 17.1464C15.8177 17.6672 16.0938 18.1516 16.2552 18.5422C16.349 18.7662 16.4115 18.9589 16.4271 19.1099C16.4479 19.261 16.4115 19.3704 16.349 19.3808C16.2344 19.4016 16.0417 19.2454 15.7083 18.8964C15.5729 18.7454 15.4167 18.5631 15.2552 18.3547C15.2031 18.3026 15.1563 18.2558 15.099 18.2037C14.8438 17.9433 13.8333 17.1724 13.4635 17.2037C13.1042 17.2349 13.026 17.4902 13.1875 17.7402C13.3802 18.037 13.8594 17.9224 14.125 18.0735C14.4115 18.2349 14.4896 18.5735 14.7083 18.7766C15.026 19.0631 15.2708 19.3756 15.375 19.7714C15.4844 20.2141 15.4375 20.5214 15.4219 20.7297C15.3958 20.9433 15.375 21.0683 15.3073 21.0839C15.25 21.1047 15.1563 20.9954 15.0677 20.7922C14.9792 20.5839 14.9063 20.2714 14.7656 19.9954C14.6563 19.7558 12.7656 18.2245 12.599 18.8183C12.4375 19.3808 13.0885 19.3026 13.3698 19.5162C13.6927 19.7506 13.7969 20.3131 13.8177 20.6776C13.849 21.0943 13.8073 21.412 13.7656 21.6204C13.724 21.8339 13.6719 21.9537 13.6094 21.9589C13.5469 21.9589 13.4792 21.8495 13.4115 21.6412C13.2917 21.2714 13.2813 20.5631 13.0104 20.2714C12.7969 20.037 12.1146 19.9641 12.0781 20.4016C12.0573 20.6724 12.3698 20.7922 12.474 21.0058C12.5625 21.2037 12.5729 21.4433 12.6146 21.6568C12.6771 22.0318 12.7969 22.4224 12.8073 22.7974C12.8594 24.1204 12.8542 25.3912 13.2292 26.6724C13.6719 28.2141 14.224 29.761 14.151 31.3547Z" fill="black"/>
<path d="M11.8698 19.0775L11.9844 18.7389C12 18.7025 12.0208 18.666 12.0469 18.6296C12.0625 18.6087 12.0833 18.5827 12.1042 18.5618C12.1406 18.5254 12.1771 18.4993 12.2135 18.4733L12.3646 18.3639L12.2552 18.2025C11.4583 17.0618 9.96355 16.6816 8.64063 16.3431C8.25001 16.2389 7.88021 16.1452 7.54167 16.0358C6.52605 15.7077 5.52084 15.3223 5.23959 14.4525L5.19271 14.3066L4.65105 14.3535L4.72396 14.5879C5.22396 16.2389 6.87501 16.7598 8.47396 17.2598C9.65626 17.6296 10.8802 18.0098 11.6458 18.8431L11.8698 19.0775Z" fill="black"/>
<mask id="mask2_143_953" style="mask-type:luminance" maskUnits="userSpaceOnUse" x="13" y="41" width="15" height="18">
<path d="M13.3333 41.334H28V58.0632H13.3333V41.334Z" fill="white"/>
</mask>
<g mask="url(#mask2_143_953)">
<path d="M25.3958 53.8333C24.7448 53.276 23.9635 52.7917 22.9531 52.3177C22.3333 52.026 21.6875 51.7604 21.0625 51.5052C19.9948 51.0625 18.8906 50.6094 17.8854 50.0156C15.2135 48.4479 14.5156 46.1719 15.8073 43.2656L15.8437 43.1927L15.7292 42.8698C15.6562 42.651 15.5833 42.3906 15.5052 42.0781L15.3437 41.3906L15.1354 42.0677C14.4167 44.4167 13.8333 46.8906 15.2135 49C16.3489 50.7396 18.0469 51.3333 19.8385 51.9635C20.1406 52.0677 20.4427 52.1719 20.7448 52.2865C23.1823 53.1875 25.9792 54.6146 25.9167 57.6354V57.7865L26.0677 57.8281C26.3021 57.8802 26.5312 57.9427 26.7604 58.0156L27.0312 58.0938L27.0052 57.8125C26.875 56.3177 26.651 54.8906 25.3958 53.8333Z" fill="black"/>
</g>
<path d="M58.2188 45.3652C57.4844 45.6361 56.75 45.959 56.0417 46.2663C53.9583 47.1725 51.9844 48.0267 49.7448 47.9486L49.5208 47.9382L49.5469 48.1673C49.6563 48.9798 49.724 49.6934 49.7656 50.3548L49.7761 50.5371L49.9636 50.5319C52.9479 50.459 55.5365 49.3913 58.3698 48.11L58.4792 48.0632V47.9382C58.4896 47.1413 58.4896 46.3392 58.4792 45.5423V45.2715L58.2188 45.3652Z" fill="black"/>
<path d="M49.9896 51.3118L49.8021 51.3171V51.5098C49.8073 52.515 49.7292 53.4108 49.5573 54.2598L49.5104 54.4889H49.7448C50.1927 54.4889 50.6354 54.4889 51.0781 54.4941C51.4375 54.4941 51.8021 54.4941 52.1667 54.4941C54.1823 54.4941 56.2396 54.4629 58.2239 54.2285L58.3958 54.2077V54.0358C58.401 52.8796 58.4219 51.7181 58.4375 50.5566L58.4635 48.916L58.1927 49.0358C55.8177 50.0931 53.0312 51.2285 49.9896 51.3118Z" fill="black"/>
<path d="M48.1042 47.4264C47.9792 47.1659 47.8333 46.8743 47.7031 46.5826C47.6406 46.4368 47.5729 46.2701 47.5052 46.1451C47.4375 46.0097 47.3594 45.8795 47.2917 45.7493C46.651 44.7024 45.6198 44.093 44.8385 43.8014C44.6458 43.7336 44.4687 43.6816 44.3073 43.6243C44.151 43.5514 43.9844 43.5409 43.8646 43.4993C43.6198 43.4264 43.4844 43.3586 43.4844 43.2961C43.4948 43.2284 43.6354 43.1764 43.8906 43.1399C44.1354 43.0826 44.5208 43.1086 45.0104 43.1711C45.2396 43.2336 45.5 43.2909 45.7656 43.3795C45.8958 43.4368 46.0312 43.4993 46.1719 43.5618C46.2396 43.5878 46.3125 43.6243 46.3802 43.6555C46.4479 43.6972 46.5104 43.7441 46.5833 43.7857C46.7187 43.8743 46.8594 43.9628 47 44.0566C47.125 44.1659 47.2552 44.2857 47.3854 44.4055C47.4479 44.468 47.5208 44.5253 47.5781 44.593L47.75 44.8118C47.8542 44.9576 47.9948 45.0982 48.0781 45.2701C48.099 45.3118 48.125 45.3534 48.1458 45.4003C48.0677 44.8951 47.9948 44.3951 47.9323 43.9055C47.5677 40.9368 45.849 38.1659 42.9844 37.2909C44.0833 37.9472 44.8594 38.8743 45.1667 39.7336C45.3698 40.2805 45.375 40.7701 45.3177 41.0982C45.2396 41.4003 45.151 41.5461 45.0885 41.5409C45.026 41.5357 44.9948 41.3586 44.9583 41.067C44.9062 40.8066 44.8125 40.4211 44.5781 39.9993C44.125 39.1607 43.0573 38.1816 41.6562 37.6659C41.4844 37.6086 41.3125 37.5461 41.1354 37.5097C41.0573 37.4941 40.9583 37.468 40.8906 37.4576C40.7969 37.442 40.7031 37.4264 40.6042 37.4159C40.224 37.3534 39.8958 37.3222 39.5625 37.2961C38.8958 37.2441 38.3021 37.2909 37.8021 37.3639C37.7552 37.3691 37.7135 37.3795 37.6719 37.3847C37.4427 37.5618 37.0833 37.7857 36.6146 38.0357C36.2031 38.2597 35.7135 38.5149 35.2083 38.817C34.9115 39.0774 34.6146 39.2701 34.2917 39.4159C34.151 39.5253 34.0156 39.6399 33.875 39.7545C33.75 39.8743 33.625 39.9889 33.5 40.1086C32.9844 40.6191 32.5312 41.1607 32.125 41.6764C31.724 42.1868 31.349 42.6607 31.0208 43.0409C30.3437 43.8274 29.8437 44.192 29.75 44.1191C29.6458 44.0409 29.9896 43.4941 30.4948 42.6607C30.7552 42.2336 31.0677 41.7284 31.4531 41.1711C31.5573 41.0149 31.6719 40.8482 31.7969 40.6816C31.6771 40.7493 31.5469 40.8118 31.4115 40.8691C30.6823 41.1816 29.9844 41.343 29.3646 41.4993C28.7448 41.6451 28.2031 41.7753 27.7604 41.9107C27.3177 42.0461 26.9635 42.1868 26.7396 42.2909C26.5 42.4003 26.3437 42.468 26.3073 42.4159C26.2656 42.3691 26.3229 42.2232 26.5208 42.0097C26.724 41.7857 27.0573 41.5409 27.5156 41.3118C27.9635 41.0826 28.526 40.8743 29.1354 40.6764C29.7135 40.4941 30.3333 40.317 30.9323 40.0722C29.8698 40.1764 28.7969 40.2389 27.7292 40.3378C26.7969 40.6295 25.5312 41.0201 24.1406 41.4524C22.8385 41.9003 21.8906 42.8691 21.1823 43.5461C20.474 44.2389 19.9896 44.6399 19.8958 44.5618C19.8021 44.4732 20.1042 43.9316 20.6927 43.1191C21 42.7128 21.375 42.2389 21.8906 41.7701C21.9844 41.6816 22.0885 41.6034 22.1927 41.5149C21.1927 41.7701 20.4479 41.9211 20.3802 41.7389C20.3073 41.5149 21.3906 40.7857 23.0573 40.3482C22.3854 38.8899 21.6771 37.4472 20.6927 36.1659C20.0781 35.3586 19.5 34.5826 19.0521 33.7076L18.5156 33.5774C18.4896 33.5722 18.4583 33.5514 18.4323 33.5461C18.375 33.5253 18.3594 33.5357 18.3385 33.5357C18.3125 33.5305 18.2656 33.5618 18.2187 33.6086C18.125 33.7076 18.0469 33.8743 17.9948 34.0097C17.9479 34.1555 17.9167 34.2857 17.8854 34.3743C17.8542 34.4836 17.8229 34.5618 17.7604 34.5826C17.6979 34.6034 17.6198 34.5722 17.5417 34.4836C17.4583 34.3691 17.375 34.1972 17.349 33.968C17.3281 33.7389 17.3437 33.4524 17.5208 33.1347C17.7656 32.6972 18.1406 32.6034 18.6094 32.7336C18.6823 32.5201 18.6146 32.5878 18.8229 32.5149C18.7865 32.218 18.5521 31.4107 18.3073 31.2961C17.9531 31.1243 16.9062 31.5253 16.5469 31.6347C16.2604 31.718 13.3958 32.843 13.4844 33.0514C13.7135 33.6295 14.1094 34.1347 14.4062 34.6868C14.599 34.6659 14.7865 34.7024 14.9479 34.7701C15.1094 34.5566 15.3177 34.3691 15.5625 34.2701C15.974 34.0982 16.3437 34.1659 16.6042 34.2336C16.8698 34.3326 17.0573 34.442 17.151 34.5461C17.2552 34.6399 17.2969 34.7232 17.2708 34.7753C17.2552 34.8326 17.1615 34.8586 17.026 34.8534C16.875 34.843 16.6979 34.8482 16.5052 34.8482C16.3021 34.8639 16.0781 34.8951 15.9167 35.0045C15.7552 35.1139 15.6302 35.3014 15.5156 35.5722L15.3125 36.0722L14.7812 35.7493C14.7292 35.7128 14.6771 35.6607 14.625 35.6399C14.6094 35.6243 14.599 35.6243 14.5833 35.6139C14.1771 36.7805 14.4323 37.7753 15.1927 38.7961C15.5417 39.2701 15.8281 39.7597 15.9896 40.3326C16.526 42.2649 17.1406 44.1711 17.8698 46.0409C18.2396 46.9836 18.6302 47.8899 18.9427 48.8482C19.3333 50.0461 20.3594 49.9368 21.3333 49.9732C21.6406 49.9836 21.9375 50.0097 22.2396 50.0409C22.2187 50.0253 22.1979 50.0097 22.1771 49.9993C22.0729 49.9107 21.974 49.8274 21.8698 49.7493C21.776 49.6607 21.6823 49.5722 21.5937 49.4889C20.8854 48.8014 20.4635 48.1243 20.2083 47.6451C19.974 47.1607 19.8958 46.8743 19.9479 46.843C20.0052 46.8118 20.1927 47.0409 20.5156 47.4576C20.8385 47.8534 21.3177 48.4316 22.0208 48.9993C22.1146 49.067 22.1979 49.1451 22.2917 49.218C22.3906 49.2857 22.4896 49.3534 22.5937 49.4211C22.7917 49.567 23.0208 49.6816 23.2448 49.8118C23.7187 50.0566 24.2344 50.2909 24.8073 50.4524C24.9531 50.4941 25.1094 50.5305 25.2656 50.567C25.2865 50.5722 25.3021 50.5774 25.3281 50.5826C25.8385 50.6711 26.3542 50.7701 26.8698 50.8586C27.4531 50.9264 28.0573 50.9628 28.6875 50.9784C30.0937 50.9941 31.4479 50.8951 32.6875 50.7961C33.9271 50.7024 35.0469 50.6034 35.9948 50.5618C37.8958 50.4576 39.0781 50.6139 39.0729 50.7336C39.0677 50.8691 37.9115 50.942 36.0521 51.2076C35.401 51.2961 34.6562 51.4003 33.8385 51.5045C34.0677 51.5253 34.3073 51.5566 34.5729 51.5982C35.5469 51.7441 36.7344 52.1034 38.0365 52.4889C38.1875 52.4836 38.3333 52.4784 38.4844 52.4784L38.6562 52.4732L38.7396 52.4784C38.7552 52.4784 38.8021 52.468 38.8021 52.468C38.9062 52.4628 39.0208 52.4472 39.1354 52.4368C39.3594 52.4159 39.5885 52.3847 39.8177 52.3534C40.2656 52.2753 40.7135 52.1972 41.1198 52.0722C41.5312 51.9576 41.9062 51.7961 42.224 51.6399C42.375 51.5618 42.5885 51.4107 42.7031 51.343C42.849 51.2232 42.9896 51.1086 43.1198 50.9941C43.401 50.7805 43.6354 50.5201 43.8646 50.317C44.7812 49.4159 45.4427 48.9993 45.526 49.0826C45.625 49.1816 45.099 49.7753 44.3437 50.7597C44.1354 51.0045 43.9323 51.2857 43.6406 51.5566C43.5 51.692 43.3542 51.8326 43.2083 51.9784C42.9948 52.1243 42.8854 52.2232 42.6771 52.3534C42.0104 52.7545 41.2656 52.9993 40.474 53.1607C41.1146 53.3118 41.7344 53.4159 42.3073 53.4524C43.1354 53.4993 43.875 53.4107 44.4531 53.2024C45.0417 52.9993 45.4792 52.7232 45.776 52.5253C46.0729 52.317 46.2552 52.1972 46.3073 52.2441C46.3437 52.2909 46.2604 52.4784 46.0208 52.7857C45.7708 53.093 45.349 53.4836 44.7031 53.8014C44.0677 54.1243 43.2083 54.3066 42.2812 54.2961C41.349 54.2909 40.3542 54.1086 39.3646 53.8326C38.7917 53.6816 38.25 53.5045 37.7292 53.3326C37.5469 53.3378 37.3646 53.3378 37.1823 53.3274C37.151 53.3222 37.1198 53.317 37.0937 53.3118C37.2656 53.7076 37.3385 54.1711 37.3177 54.6868C39.2396 54.6451 41.1615 54.5722 43.0781 54.4993C44.9115 54.3378 46.7448 54.1711 48.5885 54.1868C48.974 52.3691 48.8594 50.4159 48.6094 48.4836C48.4635 48.1659 48.2969 47.8118 48.1042 47.4264Z" fill="black"/>
<path d="M34.7552 52.7389L34.5104 52.6816L34.5156 52.9316C34.5312 53.5254 34.5417 54.1243 34.5469 54.7181L34.5521 54.9108H34.7396C35.0208 54.9108 35.3073 54.9056 35.5885 54.9056L36.3437 54.8952L36.3542 54.7129C36.4114 53.6556 35.8854 53.0098 34.7552 52.7389Z" fill="black"/>
<path d="M10.3958 6.09831L10.2656 6.04102C9.88541 5.86914 9.5052 5.70247 9.11979 5.53581L8.84374 5.41602L8.84895 5.7181C8.85416 5.98372 8.85416 6.29102 8.81249 6.60352C8.80729 6.62956 8.80729 6.65039 8.79687 6.70247L8.77083 6.82227L8.86979 6.89518C9.14062 7.08789 9.40625 7.30143 9.66666 7.50456C9.79687 7.61393 9.93229 7.7181 10.0677 7.82747L10.3958 8.07747L10.3698 7.53581C10.3542 7.10352 10.3333 6.66081 10.3802 6.23893L10.3958 6.09831Z" fill="black"/>
<mask id="mask3_143_953" style="mask-type:luminance" maskUnits="userSpaceOnUse" x="8" y="2" width="3" height="4">
<path d="M8 2.0625H10.6667V5.33333H8V2.0625Z" fill="white"/>
</mask>
<g mask="url(#mask3_143_953)">
<path d="M8.39062 4.24414V4.36914L9.39583 4.80664L9.41666 4.54102C9.43749 4.31706 9.44791 4.0931 9.46354 3.86914C9.49479 3.45768 9.52083 3.04622 9.56249 2.63477L9.58333 2.47852L9.43229 2.43164C9.16145 2.34831 8.89062 2.25977 8.61979 2.17122L8.36458 2.08789L8.3802 3.02018C8.38541 3.42643 8.39062 3.83789 8.39062 4.24414Z" fill="black"/>
</g>
<path d="M10.5 13.9583L10.7865 14.0156L10.8594 13.125L10.4896 13.0052C9.82812 12.7969 9.15104 12.5729 8.5 12.3125L8.23437 12.2031V12.4896C8.23437 12.6406 8.23437 12.7917 8.22916 12.9531C8.22916 12.9844 8.22395 13.0208 8.21354 13.0521L8.17708 13.2031L8.3125 13.2708C8.99479 13.6302 9.76041 13.7969 10.5 13.9583Z" fill="black"/>
<path d="M8.21875 9.28711C8.22917 9.94857 8.23437 10.61 8.23958 11.2715V11.4538L8.41667 11.4642C8.45833 11.4694 8.5 11.4798 8.53646 11.4954C9.17708 11.7611 9.83854 11.9798 10.4792 12.1829L11.0208 12.36L11.0469 12.1204C11.0781 11.7038 11.1458 11.2871 11.2083 10.8809C11.2708 10.4642 11.3333 10.0423 11.3698 9.61523L11.3854 9.4694L11.25 9.41732C10.5313 9.13607 9.9375 8.67253 9.30729 8.18294C9.04687 7.97982 8.78125 7.77148 8.51042 7.57878L8.20312 7.36523V7.74023C8.20833 8.25586 8.21354 8.77148 8.21875 9.28711Z" fill="black"/>
<path d="M2.07812 7.25065L2.26041 7.26107C2.70312 7.28711 3.125 7.33919 3.51041 7.41732L3.69791 7.45898L3.73437 7.26628C3.78125 7.04753 3.84895 6.82357 3.93229 6.56315C3.99479 6.38086 4.18229 6.21419 4.41666 6.27669C4.44791 6.28711 4.48437 6.30794 4.52604 6.33398L4.57291 6.36523H4.98958V3.83919L4.85937 3.79232C4.03645 3.50065 3.21354 3.25065 2.42708 3.04753L2.20312 2.99023L2.1875 3.2194C2.08854 4.35482 2.05729 5.57878 2.07812 7.07357V7.25065Z" fill="black"/>
<path d="M7.85416 6.35352L8.05729 6.37956L8.0677 6.17122C8.07812 5.90039 8.07291 5.62956 8.0677 5.36393L8.06249 5.07747L7.94791 5.02539C7.29166 4.73893 6.65104 4.47331 6.03125 4.23372L5.77083 4.13477V6.36393L7.71354 6.35872C7.76562 6.34831 7.80729 6.34831 7.85416 6.35352Z" fill="black"/>
<path d="M1.86458 10.1092H2.06249L2.05729 9.90603C2.03645 9.48415 2.12499 9.03624 2.20312 8.59874L2.30208 8.06228L1.57291 8.03103C1.47916 8.02582 1.40104 8.01019 1.33854 7.99978C1.05208 7.94249 0.874995 7.99457 0.776036 8.40603C0.723953 8.60915 0.666661 8.84874 0.635411 9.08832L0.619787 9.19769C0.583328 9.42686 0.541661 9.69249 0.536453 9.9529V10.156L1.02083 10.1352C1.30208 10.1196 1.58333 10.1092 1.86458 10.1092Z" fill="black"/>
<path d="M3.25521 28.5527C2.63542 28.3809 1.98959 28.2038 1.3698 27.9902C1.32813 27.9746 1.29167 27.959 1.26042 27.9277L1.20834 27.8965C1.1198 27.86 0.968753 27.7715 0.942712 27.5527C0.838545 26.7194 0.864588 25.8548 0.890629 25.0215C0.901045 24.6829 0.911463 24.3496 0.916671 23.9694L0.921879 23.9382L0.916671 23.9017C0.901045 23.834 0.895837 23.7402 0.947921 23.6725C1.08855 23.4902 1.23438 23.3132 1.38021 23.1309C1.76563 22.6517 2.17188 22.1569 2.48438 21.6048C2.52084 21.5475 2.5625 21.5007 2.6198 21.4642L2.70313 21.4121L2.71355 21.3184C2.72917 21.0579 2.76042 20.7975 2.79167 20.5371C2.81771 20.2975 2.84896 20.0527 2.86459 19.8079L2.88021 19.5996H0.828129L0.786462 19.735C0.0104205 22.1204 0.145837 24.7559 0.276045 27.3027C0.312504 28.1204 0.35417 28.9694 0.364588 29.7767V29.9694H0.562504C1.71355 29.9382 2.86459 29.86 4.03646 29.7819L4.21355 29.7663V28.8236L4.07292 28.7819C3.80209 28.7038 3.53125 28.6309 3.25521 28.5527Z" fill="black"/>
<path d="M8.52083 27.4212L8.33333 27.416L8.32291 27.6035C8.30208 27.9264 8.28125 28.2546 8.27604 28.5879L8.27083 28.8014L8.48437 28.7858C9.48437 28.7077 10.5104 28.7441 11.5 28.7806L12 28.7962L12.0417 28.6608C12.0729 28.5566 12.1146 28.4629 12.1562 28.3639L12.2448 28.1764L12.0469 28.1035C10.8333 27.6712 9.68229 27.4473 8.52083 27.4212Z" fill="black"/>
<path d="M18.7448 14.3238C20.6979 14.3707 22.6563 14.5321 24.6094 14.6363C24.6146 14.6676 24.6146 14.6988 24.6198 14.7353L24.6667 15.178L25.1094 15.1936C25.3542 15.204 25.5938 15.2196 25.8333 15.2353C26.0521 15.2509 26.2708 15.2665 26.4896 15.2769L27.151 15.303L27.0104 14.6519C26.974 14.4801 26.9635 14.3238 26.9792 14.178L27.026 13.6623L26.5156 13.6155C26.0729 13.5738 25.6406 13.5946 25.2188 13.6103L24.6094 13.6363L24.6042 13.8655C22.651 13.7613 20.6979 13.5998 18.7448 13.553C18.2448 13.5373 18.2448 14.3134 18.7448 14.3238Z" fill="black"/>
</svg>
