<svg width="60" height="60" viewBox="0 0 60 60" fill="none" xmlns="http://www.w3.org/2000/svg">
<path d="M9.80729 21.8386L9.79688 21.6198C9.79167 21.4375 9.78646 21.2552 9.77604 21.0729C9.76563 20.7604 9.75 20.4479 9.75 20.1302L9.74479 19.9479L9.5625 19.9375C8.66146 19.9011 7.74479 19.8177 6.86458 19.7292C5.88021 19.6406 4.85938 19.5417 3.84896 19.5156L3.66146 19.5104L3.65104 19.6927C3.63542 19.974 3.59896 20.25 3.56771 20.5313C3.54167 20.7448 3.52083 20.9584 3.5 21.1719L3.48438 21.349L3.66146 21.3802C4.88021 21.5938 6.15104 21.6459 7.38021 21.6927C8.10937 21.724 8.85938 21.7552 9.58854 21.8177L9.80729 21.8386Z" fill="white"/>
<path d="M7.43717 9.05206C7.43197 8.47915 7.42676 7.90623 7.42155 7.33852V7.14581H4.56217L4.52572 7.29165C4.49447 7.40102 4.47363 7.51561 4.46322 7.6354L4.4528 7.74477L4.53613 7.80727C4.92155 8.10935 5.22363 8.55727 5.52051 8.98956C5.58822 9.09373 5.66113 9.1979 5.72363 9.29165C5.7653 9.35415 5.79134 9.41665 5.79655 9.49998C5.80176 9.54685 5.80176 9.59894 5.78613 9.65623C5.74447 9.83331 5.73405 10.0312 5.71842 10.2448C5.68197 10.8229 5.63509 11.2135 5.26009 11.375C5.0153 11.4791 4.76009 11.5104 4.47884 11.4739L4.25488 11.4427L4.26009 11.6719C4.2653 12.25 4.28093 12.8281 4.30176 13.4062V13.6041L4.49967 13.5937C4.98926 13.5625 5.47363 13.4896 5.94238 13.4219C6.37988 13.3541 6.83301 13.2864 7.28093 13.2552L7.50488 13.2396L7.45801 13.0208C7.4528 13 7.44759 12.9739 7.44759 12.9531C7.46842 11.651 7.4528 10.3281 7.43717 9.05206Z" fill="white"/>
<mask id="mask0_1028_4183" style="mask-type:luminance" maskUnits="userSpaceOnUse" x="9" y="2" width="6" height="5">
<path d="M9.33301 2.0625H14.6663V6.66667H9.33301V2.0625Z" fill="white"/>
</mask>
<g mask="url(#mask0_1028_4183)">
<path d="M11.1038 5.21875C11.3695 5.34375 11.6403 5.46875 11.9059 5.59375L12.1924 5.71875C12.3643 5.79687 12.5309 5.88021 12.7028 5.95313C12.8434 6.02083 12.9893 6.08333 13.1611 6.13021L13.3591 6.1875L13.4007 5.98437C13.4632 5.69792 13.4841 5.40625 13.5049 5.13021C13.5153 4.9375 13.5309 4.74479 13.557 4.55729L13.5726 4.4375L13.4736 4.36979C12.4736 3.69271 11.5361 3.125 10.6038 2.63021L10.3538 2.5L10.3226 2.78125C10.2809 3.14063 10.2601 3.50521 10.2393 3.86458C10.2236 4.13021 10.2132 4.39063 10.1872 4.65625L10.1768 4.79167L10.2965 4.84896C10.5674 4.96875 10.833 5.09375 11.1038 5.21875Z" fill="white"/>
</g>
<path d="M3.52083 13.0625C3.5 12.4739 3.47917 11.8802 3.47396 11.2916L3.46875 11.1614L3.34375 11.1146C3.32292 11.1041 3.29687 11.0937 3.25 11.0781L2.74479 10.8958L2.72917 11.1562C2.69792 11.7344 2.64583 12.3125 2.59375 12.8906C2.52604 13.6406 2.45312 14.4166 2.43229 15.1875C2.39583 16.3958 2.34896 17.4791 2.08854 18.5781L2.03125 18.8177H3.35417V18.625C3.35417 18.6041 3.35417 18.5833 3.35937 18.5625C3.63542 16.7344 3.57292 14.8698 3.52083 13.0625Z" fill="white"/>
<path d="M3.45349 25.1146L3.26078 25.0886C2.72432 25.0052 2.2764 24.9792 1.84411 25.0052L1.67224 25.0209L1.66703 25.1927C1.6462 25.8125 1.63578 26.4792 1.68266 27.1459L1.69307 27.2761L1.81807 27.3125C2.22953 27.4479 2.64099 27.5677 3.06286 27.6875L3.30766 27.7552V27.5C3.30245 26.7136 3.30766 26.0104 3.42224 25.3073L3.45349 25.1146Z" fill="white"/>
<path d="M44.7555 13.2656C45.0837 12.7656 45.5785 11.9635 46.5732 11.3541C46.693 11.2708 46.8337 11.2239 46.9691 11.1562C47.0472 11.1198 47.0941 11.0989 47.193 11.0573C47.2607 11.0364 47.3337 11.0104 47.4066 10.9948C47.5472 10.9479 47.6878 10.901 47.8441 10.8646C48.0055 10.8333 48.1722 10.8021 48.3389 10.776C49.0055 10.6875 49.7191 10.6875 50.4639 10.8125C50.8337 10.8802 51.2087 10.9635 51.5785 11.1041C51.766 11.1562 51.9482 11.2448 52.1305 11.3177C52.3232 11.3958 52.4951 11.4844 52.667 11.5677C53.3805 11.9166 54.1045 12.3073 54.818 12.7656C56.2347 13.6719 57.4899 14.7864 58.2451 16.0989C58.6305 16.75 58.8649 17.4427 58.9691 18.1094C58.9795 18.1927 58.9951 18.276 59.0055 18.3541C59.0212 18.4635 59.016 18.5208 59.0264 18.6041C59.0316 18.7552 59.042 18.9114 59.0472 19.0625C59.0316 19.375 59.0316 19.6823 58.9795 19.9583C58.8285 21.0729 58.4795 21.9114 58.2295 22.4739C57.9743 23.026 57.7816 23.3125 57.7451 23.2969C57.6982 23.276 57.8128 22.9531 57.9899 22.375C58.167 21.8021 58.4378 20.9583 58.5264 19.9062C58.5628 19.6406 58.542 19.375 58.542 19.0989C58.5368 18.9531 58.516 18.8021 58.5003 18.651C58.4951 18.5729 58.4899 18.4791 58.4795 18.4271L58.4326 18.2031C58.3128 17.6094 58.0889 16.9896 57.7243 16.4062C57.016 15.2291 55.8337 14.1875 54.4639 13.3177C53.7816 12.875 53.0785 12.4948 52.3857 12.1458C52.2087 12.0573 52.0368 11.9687 51.8701 11.901C51.7035 11.8281 51.542 11.7448 51.3701 11.6927C51.0316 11.5625 50.6878 11.4844 50.3545 11.4062C49.6774 11.2708 49.016 11.2552 48.417 11.3125C48.266 11.3333 48.1201 11.3489 47.9795 11.3698C47.8337 11.3958 47.6878 11.4427 47.542 11.4791C47.4691 11.5 47.3962 11.5156 47.3285 11.5364L47.1566 11.6041C47.0368 11.6562 46.9066 11.6875 46.7972 11.7604C45.8857 12.2448 45.3493 12.9635 44.9587 13.4166C44.5732 13.8854 44.3545 14.1458 44.3128 14.1198C44.2816 14.0885 44.4274 13.7864 44.7555 13.2656ZM49.3962 21.0052C52.1878 22.5052 55.1305 23.7916 57.8805 25.3698C58.6514 23.0833 59.9743 20.7291 59.7451 18.2552C59.5264 15.7708 57.3285 13.6041 55.3337 12.2969C53.3128 10.9687 50.792 9.78644 48.2972 10.0989C45.3701 10.4583 43.5576 12.6458 42.5472 15.276C42.5368 15.3021 42.5264 15.3229 42.5107 15.3437C42.5107 15.3541 42.5107 15.3541 42.5107 15.3594C43.5628 18.5364 46.7035 19.5625 49.3962 21.0052Z" fill="white"/>
<path d="M8.53093 25.1406C8.51009 25.4167 8.48405 25.6875 8.45801 25.9635L8.39551 26.6354L8.60384 26.6406C9.0778 26.6563 9.53613 26.6979 9.95801 26.7656L10.1768 26.7969L10.2028 26.2135C10.2184 25.8646 10.234 25.5104 10.2288 25.1563V25L10.0726 24.974C9.66113 24.8906 9.2028 24.8906 8.72363 24.9635H8.54655L8.53093 25.1406Z" fill="white"/>
<path d="M10.4219 19.3073L10.4479 19.3385C10.6927 19.5469 10.9063 19.7708 11.099 20.0156L11.3437 20.3385L11.4375 19.9427C11.4479 19.901 11.4531 19.8646 11.4583 19.8281C11.474 19.7448 11.4844 19.6927 11.5104 19.6563L11.5937 19.5521L11.5208 19.4375C10.7188 18.2031 9.29167 17.7813 7.90625 17.375C6.5625 16.9792 5.29688 16.6042 4.56771 15.5625L4.21875 15.0625V15.6771L4.23958 15.7604C4.88021 17.0781 6.46354 17.5885 7.73438 18C8.09375 18.1146 8.4375 18.2292 8.72917 18.349C9.375 18.599 9.90104 18.8906 10.3229 19.224C10.3646 19.25 10.3958 19.276 10.4219 19.3073Z" fill="white"/>
<path d="M8.59863 24.1979L8.8278 24.1719C9.02051 24.151 9.21322 24.1406 9.41113 24.1354L9.58821 24.1302L9.59863 23.9583C9.62988 23.5521 9.6403 23.1458 9.61947 22.7656L9.60905 22.5937L8.61426 22.5208L8.61947 22.7396C8.63509 23.1458 8.62988 23.5625 8.60905 23.9687L8.59863 24.1979Z" fill="white"/>
<path d="M4.64095 10.7656C4.72949 10.7656 4.80241 10.7448 4.86491 10.6979C4.9847 10.6094 5.00033 10.4479 5.01595 9.84375L5.02637 9.64063L4.87533 9.42708C4.4847 8.85937 4.08366 8.27083 3.25553 8.15104L3.06803 8.125L2.99512 8.59896C2.92741 8.98958 2.8597 9.39583 2.85449 9.8125C2.85449 9.82813 2.8597 9.86458 2.86491 9.90104C2.86491 9.93229 2.87012 9.96354 2.87533 9.99479L2.88053 10.1198L3.15137 10.2135C3.23991 10.2448 3.33366 10.276 3.4222 10.3125C3.45866 10.3281 3.52116 10.3594 3.59928 10.3958C4.08366 10.6302 4.41178 10.7656 4.64095 10.7656Z" fill="white"/>
<path d="M52.7868 31.4479C53.0368 30.1823 53.8024 29.1771 54.6149 28.1094L55.0368 27.5469L54.8597 27.4323C53.9899 26.8802 53.1566 26.2396 52.3493 25.6198C52.1305 25.4531 51.9118 25.2865 51.693 25.1198L51.3858 24.8854V25.2709C51.3858 25.3073 51.3857 25.3386 51.391 25.3646C51.4587 26.1511 51.3649 26.7813 51.0941 27.4167C51.0524 27.5156 51.0003 27.6198 50.9483 27.7344C50.5472 28.6198 49.9326 29.9584 50.8337 30.7709C51.417 31.2969 51.9587 31.5521 52.5837 31.6042L52.7555 31.6198L52.7868 31.4479Z" fill="white"/>
<path d="M18.3753 27.4896C18.4795 28.2031 18.5889 28.9427 18.641 29.6771L18.7295 30.7969L19.0212 29.7083C19.3857 28.349 19.1514 26.4375 18.4847 25.3542L18.0576 24.6562L18.1305 25.474C18.1878 26.151 18.2868 26.8281 18.3753 27.4896Z" fill="white"/>
<path d="M47.6772 26.9271C47.7085 26.7865 47.7658 26.6875 47.823 26.5885C47.8803 26.5052 47.9324 26.4167 47.9949 26.3385C48.073 26.2552 48.1616 26.1875 48.2189 26.1406C48.2814 26.099 48.3283 26.0625 48.3803 26.026C48.422 25.9948 48.422 25.9844 48.4376 25.9792C48.4585 25.9635 48.422 25.8646 48.3803 25.7969C48.297 25.6615 48.2345 25.5729 48.2658 25.5365C48.2866 25.5052 48.396 25.5156 48.5574 25.6198C48.6303 25.6875 48.7658 25.75 48.797 25.9896C48.8074 26.1094 48.7501 26.2292 48.6928 26.3021C48.6355 26.375 48.5783 26.4323 48.5262 26.4896C48.4689 26.5469 48.4376 26.5937 48.4064 26.6406C48.3647 26.7031 48.3387 26.776 48.3022 26.8385C48.2449 26.9583 48.2397 27.099 48.2501 27.1146C48.2501 27.1198 48.2501 27.1198 48.2501 27.1146C48.2814 27.125 48.4012 27.151 48.5314 27.1198C48.698 27.0885 48.8803 27.0104 49.0262 26.8958C49.1668 26.8073 49.3022 26.6458 49.3751 26.5052C49.448 26.3542 49.4741 26.1875 49.4689 26.026C49.4585 25.7083 49.2918 25.4271 49.1043 25.2708C48.9168 25.1042 48.6928 25.0573 48.5522 25.0417C48.3855 25.026 48.271 25.0313 48.2658 24.9792C48.2553 24.9427 48.3178 24.8594 48.5001 24.7917C48.698 24.7135 49.021 24.6927 49.3595 24.8906C49.6928 25.0677 50.0053 25.4583 50.073 25.9688C50.0991 26.224 50.073 26.5052 49.9585 26.7708C49.8335 27.0365 49.6668 27.2448 49.4116 27.4323C49.1772 27.6042 48.9168 27.7083 48.6355 27.7552C48.4949 27.7708 48.3543 27.7865 48.1928 27.7448C48.1147 27.7344 48.0262 27.6927 47.948 27.651C47.8699 27.5937 47.7814 27.5313 47.7397 27.4323C47.7137 27.3906 47.6876 27.3385 47.672 27.2917C47.6668 27.25 47.6616 27.2031 47.6512 27.1615C47.6408 27.0625 47.6668 27 47.6772 26.9271ZM43.5939 30.6979C43.4064 30.8021 43.1147 30.9167 42.7397 30.9583C42.3595 30.9948 41.896 30.9427 41.4324 30.8073C41.3022 30.7708 41.172 30.7292 41.0366 30.6823C42.2345 31.4167 42.8647 32.4479 43.1772 33.8073C43.3283 33.9115 43.4168 34.0885 43.4428 34.2917C43.4637 34.4635 43.4845 34.6406 43.5053 34.8177C43.8283 34.75 44.1668 34.6615 44.5262 34.5104C45.646 34.0417 46.7553 33.4115 48.0053 33.3698C48.4637 33.349 52.6876 33.3125 52.5887 32.9844C52.547 32.9115 52.5262 32.8281 52.521 32.7344C52.5105 32.6823 52.5158 32.625 52.5105 32.5729C51.1355 32.4375 49.4012 31.4375 49.4064 29.9219C49.4064 29.6146 49.5053 29.1979 49.646 28.7292C49.5939 28.7656 49.5366 28.7969 49.4741 28.8281L49.2866 28.9219L49.2397 28.9427C49.2397 28.9427 49.2189 28.9531 49.2241 28.9531L49.2137 28.9583L49.1303 28.9896C49.0158 29.0365 48.9324 29.0833 48.8335 29.1302C48.4272 29.3229 48.0522 29.5937 47.5001 29.6667C47.2189 29.7083 46.8803 29.5729 46.7033 29.375C46.5262 29.1719 46.4324 28.9583 46.3595 28.7656L46.3335 28.6927L46.3283 28.6719C46.3126 28.625 46.323 28.651 46.3126 28.6354L46.3074 28.6042L46.2814 28.4635C46.2605 28.375 46.2397 28.2917 46.2189 28.1979C46.2189 27.9948 46.1824 27.7865 46.2345 27.6094C46.2814 27.2448 46.4637 26.9635 46.6043 26.7344C46.771 26.5208 46.922 26.3542 47.0574 26.2292C47.3178 25.9792 47.4845 25.8594 47.521 25.8906C47.5522 25.9219 47.448 26.099 47.2501 26.3958C47.0626 26.6875 46.7345 27.1094 46.6928 27.6667C46.6668 27.8073 46.7137 27.9375 46.7137 28.0781C46.7293 28.1615 46.7605 28.25 46.7866 28.3385L46.8283 28.4688L46.8335 28.4948V28.5L46.8439 28.5104L46.8647 28.5677C46.9324 28.724 47.021 28.8698 47.1095 28.9635C47.2137 29.0521 47.2918 29.0833 47.4376 29.0625C47.7397 29.0208 48.1251 28.776 48.5418 28.5573C48.6408 28.5052 48.771 28.4427 48.8699 28.3958L48.9533 28.3594L48.9689 28.3542C49.0053 28.3385 48.9897 28.3385 49.0001 28.3385L49.0314 28.3177L49.1616 28.25C49.2501 28.2135 49.3283 28.1458 49.4064 28.0833C49.4897 28.026 49.5626 27.9479 49.6303 27.8646C50.4324 26.901 50.8595 24.5885 49.3439 24C48.8335 23.7917 48.3543 24.0156 48.0678 24.1667C47.922 24.2448 47.8074 24.3333 47.7293 24.3802C47.646 24.4271 47.5991 24.4479 47.5783 24.4323C47.5626 24.4115 47.5887 24.3646 47.6408 24.2865C47.698 24.2031 47.771 24.0885 47.9272 23.9635C47.9949 23.901 48.0835 23.8281 48.1824 23.7708C48.2345 23.7396 48.2866 23.7083 48.3439 23.6719C48.4012 23.6458 48.4637 23.625 48.5314 23.599C48.573 23.5833 48.6251 23.5677 48.6772 23.5573C48.573 23.4948 48.4949 23.4115 48.448 23.3125C46.6668 22.5313 44.7033 22.1719 42.8908 21.4583C42.0522 21.125 41.2397 20.7552 40.5105 20.3281C40.2397 20.7135 39.8699 20.9792 39.4012 21.2083C39.2397 21.2865 38.5991 21.5104 38.6095 21.75C38.6251 22 38.7293 22.224 38.8699 22.4323C39.2241 22.7292 39.4949 23.5208 40.0366 23.3906C40.047 23.1198 40.1147 22.8646 40.1251 22.5938C40.1512 22.2188 40.146 21.9583 40.2397 21.9323C40.3178 21.9063 40.4845 22.125 40.5887 22.5469C40.6355 22.7656 40.6824 23.0208 40.6147 23.3594C40.573 23.5208 40.4793 23.7656 40.2137 23.8906C39.948 24.0052 39.7033 23.9427 39.5262 23.8698L39.4845 23.8542L39.5158 23.8594C39.4324 23.8281 39.3543 23.7708 39.3543 23.7656L39.3074 23.7188L39.2137 23.6302C39.2033 23.6198 39.198 23.6094 39.1824 23.599C39.1095 23.776 39.0158 23.9427 38.922 24.1198C38.8283 24.2917 38.8074 24.2656 38.9272 24.4583C38.9324 24.474 38.9376 24.4896 38.948 24.5052C39.0939 24.6719 39.146 24.901 38.9949 25.151C38.7241 25.5729 38.521 27.9167 38.7658 28.8906C38.823 28.9375 38.8803 28.9844 38.9533 29.026C39.3022 29.2396 39.7605 29.4323 40.2605 29.6458C40.7553 29.8698 41.198 30.0833 41.6147 30.2344C42.0262 30.3802 42.4064 30.4635 42.7293 30.4896C43.0522 30.5156 43.3178 30.4792 43.5001 30.4635C43.6928 30.4271 43.8126 30.4219 43.8283 30.4635C43.8439 30.5052 43.7605 30.5885 43.5939 30.6979Z" fill="white"/>
<path d="M46.1663 21.526C46.4111 21.5885 46.6507 21.6562 46.8747 21.7187C47.6663 21.9427 48.4476 22.2656 49.2705 22.7187L49.3226 22.7396C49.8695 22.8698 50.3278 23.1458 50.682 23.5625L50.7236 23.5989C51.3695 24.026 52.0049 24.4948 52.6195 24.9479C53.9736 25.9427 55.3747 26.9687 56.9684 27.6979L57.0153 27.7187L57.0674 27.7083C57.5622 27.6562 57.9372 27.2344 58.1507 26.4896L58.1716 26.4583L58.1143 26.2916C58.0934 26.25 58.0778 26.2135 58.057 26.1562L58.0153 26.0364L57.9528 26C55.4007 24.4948 52.6611 23.1614 50.0153 21.8646C49.109 21.4219 48.2028 20.9791 47.307 20.5364C45.182 19.4687 43.0257 18.2187 42.1038 15.7291L42.0518 15.5885L41.9059 15.6041C41.3799 15.651 40.8643 15.5469 40.307 15.4375C40.2445 15.4271 40.1715 15.4062 40.0882 15.3906C39.6195 15.2812 38.9163 15.1146 38.5726 15.4948L38.5205 15.5521V15.625C38.5413 19.4375 42.9528 20.6406 46.1663 21.526Z" fill="white"/>
<path d="M19.1872 30.5052L19.1507 30.5781L19.182 30.6614C19.2288 30.7812 19.2809 30.9062 19.333 31.0208C19.4111 31.1979 19.484 31.375 19.5413 31.5521L19.734 32.1198L19.9111 31.5469C19.958 31.3906 20.0101 31.2344 20.057 31.0781C20.3486 30.1666 20.6507 29.2239 20.5726 28.2552C20.432 26.5885 19.8486 25.1146 18.833 23.875L18.6143 23.5989L18.4997 23.9375C18.458 24.0781 18.4111 24.2187 18.359 24.3541L18.3174 24.4739L18.4111 24.5625C19.6195 25.7135 20.0309 28.8229 19.1872 30.5052Z" fill="white"/>
<path d="M29.4688 15C29.9688 15.1823 30.4375 15.3594 30.8073 15.3802C31.0833 15.3958 31.1979 15.6302 31.1875 15.8333C31.1823 15.8906 31.151 16.1667 30.8594 16.1667C30.849 16.1667 30.8385 16.1667 30.8281 16.1615C30.401 16.1354 29.9792 15.9688 29.5729 15.8073C29.4219 15.75 29.276 15.6927 29.125 15.6354L28.9844 15.5833C28.5729 15.4323 28.1458 15.2917 27.849 15.3229L27.4635 15.3698L27.7292 15.6458C29.8594 17.8958 32.125 18.8542 34.6563 18.5938C34.8958 18.5677 34.9687 18.7083 34.9948 18.8386L35.0677 18.974C35.4531 19.6823 35.8281 20.2865 36.224 20.8073L36.2604 20.849C36.5469 21.224 36.901 21.6979 37.3542 21.9688L37.6458 22.1458V21.8073C37.6458 21.5573 37.7031 21.3386 37.8333 21.1354C38.0156 20.849 38.3594 20.6823 38.724 20.5104C39.099 20.3281 39.4948 20.1354 39.7188 19.7865L39.8125 19.6354L39.6771 19.5261C38.4583 18.5781 37.8281 17.4271 37.75 16.0208L37.7396 15.8906L37.6198 15.849C37.5937 15.8438 37.5729 15.8333 37.5521 15.8177C37.2292 15.625 36.8958 15.4479 36.5625 15.2761C35.4687 14.6927 34.4271 14.1458 33.875 13.0417C33.224 11.7708 32.0313 11.2813 30.599 11.6875C29.8958 11.8906 27.5365 13.1042 27.4531 14.3333L27.4375 14.5521L27.6563 14.5417C28.1719 14.5208 28.8698 14.7708 29.4688 15Z" fill="white"/>
<path d="M54.4167 31.1823L54.4948 31.1979C54.599 31.2136 54.6875 31.2761 54.7552 31.375C54.8646 31.5521 55 31.7188 55.1771 31.8802L55.5104 32.1875L55.4948 31.5625C55.4792 30.7865 55.4635 29.9115 54.7813 29.4584L54.625 29.3542L54.5156 29.5052C54.2083 29.9427 53.9792 30.3542 53.8177 30.7604L53.75 30.9115L53.8958 30.9948C54.0521 31.0938 54.2031 31.1406 54.4167 31.1823Z" fill="white"/>
<path d="M58.2705 44.3125C58.2497 43.2813 58.208 42.2552 58.1351 41.2344C57.9997 39.2604 58.0726 36.7813 57.3174 34.9271C56.6976 33.4219 55.0101 33.2708 54.0778 32.099C53.9476 32.0677 53.8174 32.0365 53.6924 31.9844C53.6715 32.1823 53.6663 32.3906 53.682 32.6042C53.6872 32.625 53.7028 32.651 53.7132 32.6771C54.234 34.3802 51.5726 34.4844 50.5257 34.5208C49.7028 34.5469 48.8174 34.4271 48.0049 34.5365C47.0882 34.651 46.3278 35.0365 45.5257 35.375C45.8851 35.4219 46.2445 35.4792 46.6195 35.5573C47.8643 35.8385 48.9372 36.1771 49.7132 36.4063C50.4736 36.6406 50.984 36.7865 50.9632 36.9167C50.9528 37.0417 50.4372 37.125 49.5882 37.0417C48.7497 36.974 47.6299 36.724 46.4268 36.4583C45.8226 36.3281 45.2549 36.2188 44.7393 36.1354C44.234 36.0677 43.7757 36.0156 43.3851 36.0104C43.2653 36.0417 43.1507 36.0781 43.0361 36.1198C43.2809 36.1927 43.5205 36.2813 43.7549 36.3802C46.7184 37.6771 48.6143 39.9583 49.0101 43.1927C49.1611 44.4115 49.3799 45.6823 49.5726 46.9635C52.708 47.1302 55.3903 45.3333 58.2705 44.3125Z" fill="white"/>
<mask id="mask1_1028_4183" style="mask-type:luminance" maskUnits="userSpaceOnUse" x="12" y="38" width="15" height="21">
<path d="M12 38.6667H26.6667V58.0625H12V38.6667Z" fill="white"/>
</mask>
<g mask="url(#mask1_1028_4183)">
<path d="M19.9588 52.4948C18.5473 52.0156 17.214 51.5573 16.2973 50.8229C13.115 48.2552 13.964 44.4167 15.0109 41.0209C15.0265 40.974 15.0421 40.9427 15.0786 40.9167L15.1827 40.8334L15.1411 40.7031C15.0421 40.4011 14.9223 40.125 14.7817 39.8854L14.5369 39.4792L14.4275 39.9375C14.3494 40.25 14.2713 40.5625 14.1931 40.8854C13.1723 44.9844 11.8963 50.0834 16.1827 52.5365C17.5734 53.3281 19.1202 53.7188 20.6202 54.099C21.5369 54.3281 22.4848 54.5677 23.3754 54.8959C24.339 55.25 24.8494 56.1094 24.8911 57.4479L24.8963 57.6198L25.0629 57.6354C25.1306 57.6406 25.2036 57.6511 25.2713 57.6667L25.4952 57.7031V57.474C25.4484 54.375 22.6567 53.4219 19.9588 52.4948Z" fill="white"/>
</g>
<path d="M11.9951 25.1146L11.9534 24.5989L11.6514 25.0156C11.5159 25.1979 11.3649 25.3802 11.1982 25.5573C11.1722 25.5833 11.1462 25.5989 11.1201 25.6094L11.0107 25.6614L10.9847 26.1823C10.9691 26.3906 10.9587 26.5937 10.9534 26.8021L10.9482 26.9583L11.0993 26.9948C11.4118 27.0729 11.7295 27.1719 12.0784 27.2916L12.4326 27.4114L12.292 26.9375C12.1045 26.2552 12.0368 25.6041 11.9951 25.1146Z" fill="white"/>
<path d="M14.1511 31.3542C15.2761 30.7917 16.4531 30.3646 17.6979 30.1927C17.6302 28.5156 17.2552 26.875 17.1302 25.1979C17.099 25.099 17.099 24.9792 17.1511 24.8438C17.9896 22.6406 18.2709 20.9948 17.2604 18.7656C17.0573 18.3229 15.8959 14.7865 15.0573 15.8386C14.8334 16.125 15.3698 16.8698 15.5261 17.1459C15.8177 17.6667 16.0938 18.1511 16.2552 18.5417C16.349 18.7656 16.4115 18.9584 16.4271 19.1094C16.4479 19.2604 16.4115 19.3698 16.349 19.3802C16.2344 19.4011 16.0417 19.2448 15.7084 18.8959C15.5729 18.7448 15.4167 18.5625 15.2552 18.3542C15.2031 18.3021 15.1563 18.2552 15.099 18.2031C14.8438 17.9427 13.8334 17.1719 13.4636 17.2031C13.1042 17.2344 13.0261 17.4896 13.1875 17.7396C13.3802 18.0365 13.8594 17.9219 14.125 18.0729C14.4115 18.2344 14.4896 18.5729 14.7084 18.7761C15.0261 19.0625 15.2709 19.375 15.375 19.7709C15.4844 20.2136 15.4375 20.5209 15.4219 20.7292C15.3959 20.9427 15.375 21.0677 15.3073 21.0834C15.25 21.1042 15.1563 20.9948 15.0677 20.7917C14.9792 20.5834 14.9063 20.2709 14.7656 19.9948C14.6563 19.7552 12.7656 18.224 12.599 18.8177C12.4375 19.3802 13.0886 19.3021 13.3698 19.5156C13.6927 19.75 13.7969 20.3125 13.8177 20.6771C13.849 21.0938 13.8073 21.4115 13.7656 21.6198C13.724 21.8334 13.6719 21.9531 13.6094 21.9584C13.5469 21.9584 13.4792 21.849 13.4115 21.6406C13.2917 21.2709 13.2813 20.5625 13.0104 20.2709C12.7969 20.0365 12.1146 19.9636 12.0781 20.4011C12.0573 20.6719 12.3698 20.7917 12.474 21.0052C12.5625 21.2031 12.5729 21.4427 12.6146 21.6563C12.6771 22.0313 12.7969 22.4219 12.8073 22.7969C12.8594 24.1198 12.8542 25.3906 13.2292 26.6719C13.6719 28.2136 14.224 29.7604 14.1511 31.3542Z" fill="white"/>
<path d="M11.8701 19.0781L11.9847 18.7396C12.0003 18.7031 12.0212 18.6667 12.0472 18.6302C12.0628 18.6094 12.0837 18.5834 12.1045 18.5625C12.141 18.5261 12.1774 18.5 12.2139 18.474L12.3649 18.3646L12.2555 18.2031C11.4587 17.0625 9.96387 16.6823 8.64095 16.3438C8.25033 16.2396 7.88053 16.1459 7.54199 16.0365C6.52637 15.7084 5.52116 15.3229 5.23991 14.4531L5.19303 14.3073L4.65137 14.3542L4.72428 14.5886C5.22428 16.2396 6.87533 16.7604 8.47428 17.2604C9.65658 17.6302 10.8805 18.0104 11.6462 18.8438L11.8701 19.0781Z" fill="white"/>
<mask id="mask2_1028_4183" style="mask-type:luminance" maskUnits="userSpaceOnUse" x="13" y="41" width="15" height="18">
<path d="M13.333 41.3333H27.9997V58.0625H13.333V41.3333Z" fill="white"/>
</mask>
<g mask="url(#mask2_1028_4183)">
<path d="M25.3955 53.8333C24.7444 53.276 23.9632 52.7917 22.9528 52.3177C22.333 52.026 21.6871 51.7604 21.0621 51.5052C19.9944 51.0625 18.8903 50.6094 17.8851 50.0156C15.2132 48.4479 14.5153 46.1719 15.8069 43.2656L15.8434 43.1927L15.7288 42.8698C15.6559 42.651 15.583 42.3906 15.5048 42.0781L15.3434 41.3906L15.1351 42.0677C14.4163 44.4167 13.833 46.8906 15.2132 49C16.3486 50.7396 18.0465 51.3333 19.8382 51.9635C20.1403 52.0677 20.4423 52.1719 20.7444 52.2865C23.1819 53.1875 25.9788 54.6146 25.9163 57.6354V57.7865L26.0673 57.8281C26.3017 57.8802 26.5309 57.9427 26.7601 58.0156L27.0309 58.0938L27.0048 57.8125C26.8746 56.3177 26.6507 54.8906 25.3955 53.8333Z" fill="white"/>
</g>
<path d="M58.2184 45.3646C57.4841 45.6354 56.7497 45.9583 56.0413 46.2656C53.958 47.1719 51.984 48.026 49.7445 47.9479L49.5205 47.9375L49.5465 48.1666C49.6559 48.9791 49.7236 49.6927 49.7653 50.3541L49.7757 50.5364L49.9632 50.5312C52.9476 50.4583 55.5361 49.3906 58.3695 48.1094L58.4788 48.0625V47.9375C58.4893 47.1406 58.4893 46.3385 58.4788 45.5416V45.2708L58.2184 45.3646Z" fill="white"/>
<path d="M49.9899 51.3125L49.8024 51.3177V51.5104C49.8076 52.5156 49.7295 53.4115 49.5576 54.2604L49.5107 54.4896H49.7451C50.193 54.4896 50.6357 54.4896 51.0785 54.4948C51.4378 54.4948 51.8024 54.4948 52.167 54.4948C54.1826 54.4948 56.2399 54.4636 58.2243 54.2292L58.3962 54.2084V54.0365C58.4014 52.8802 58.4222 51.7188 58.4378 50.5573L58.4639 48.9167L58.193 49.0365C55.818 50.0938 53.0316 51.2292 49.9899 51.3125Z" fill="white"/>
<path d="M48.1042 47.4271C47.9792 47.1667 47.8334 46.875 47.7032 46.5833C47.6407 46.4375 47.573 46.2708 47.5053 46.1458C47.4376 46.0104 47.3594 45.8802 47.2917 45.75C46.6511 44.7031 45.6198 44.0938 44.8386 43.8021C44.6459 43.7344 44.4688 43.6823 44.3073 43.625C44.1511 43.5521 43.9844 43.5417 43.8646 43.5C43.6198 43.4271 43.4844 43.3594 43.4844 43.2969C43.4948 43.2292 43.6355 43.1771 43.8907 43.1406C44.1355 43.0833 44.5209 43.1094 45.0105 43.1719C45.2396 43.2344 45.5001 43.2917 45.7657 43.3802C45.8959 43.4375 46.0313 43.5 46.1719 43.5625C46.2396 43.5885 46.3126 43.625 46.3803 43.6563C46.448 43.6979 46.5105 43.7448 46.5834 43.7865C46.7188 43.875 46.8594 43.9635 47.0001 44.0573C47.1251 44.1667 47.2553 44.2865 47.3855 44.4063C47.448 44.4688 47.5209 44.526 47.5782 44.5938L47.7501 44.8125C47.8542 44.9583 47.9948 45.099 48.0782 45.2708C48.099 45.3125 48.1251 45.3542 48.1459 45.401C48.0678 44.8958 47.9948 44.3958 47.9323 43.9063C47.5678 40.9375 45.849 38.1667 42.9844 37.2917C44.0834 37.9479 44.8594 38.875 45.1667 39.7344C45.3698 40.2813 45.3751 40.7708 45.3178 41.099C45.2396 41.401 45.1511 41.5469 45.0886 41.5417C45.0261 41.5365 44.9948 41.3594 44.9584 41.0677C44.9063 40.8073 44.8126 40.4219 44.5782 40C44.1251 39.1615 43.0573 38.1823 41.6563 37.6667C41.4844 37.6094 41.3126 37.5469 41.1355 37.5104C41.0573 37.4948 40.9584 37.4688 40.8907 37.4583C40.7969 37.4427 40.7032 37.4271 40.6042 37.4167C40.224 37.3542 39.8959 37.3229 39.5626 37.2969C38.8959 37.2448 38.3021 37.2917 37.8021 37.3646C37.7553 37.3698 37.7136 37.3802 37.6719 37.3854C37.4428 37.5625 37.0834 37.7865 36.6146 38.0365C36.2032 38.2604 35.7136 38.5156 35.2084 38.8177C34.9115 39.0781 34.6146 39.2708 34.2917 39.4167C34.1511 39.526 34.0157 39.6406 33.8751 39.7552C33.7501 39.875 33.6251 39.9896 33.5001 40.1094C32.9844 40.6198 32.5313 41.1615 32.1251 41.6771C31.724 42.1875 31.349 42.6615 31.0209 43.0417C30.3438 43.8281 29.8438 44.1927 29.7501 44.1198C29.6459 44.0417 29.9896 43.4948 30.4948 42.6615C30.7553 42.2344 31.0678 41.7292 31.4532 41.1719C31.5573 41.0156 31.6719 40.849 31.7969 40.6823C31.6771 40.75 31.5469 40.8125 31.4115 40.8698C30.6823 41.1823 29.9844 41.3438 29.3646 41.5C28.7448 41.6458 28.2032 41.776 27.7605 41.9115C27.3178 42.0469 26.9636 42.1875 26.7396 42.2917C26.5001 42.401 26.3438 42.4688 26.3073 42.4167C26.2657 42.3698 26.323 42.224 26.5209 42.0104C26.724 41.7865 27.0573 41.5417 27.5157 41.3125C27.9636 41.0833 28.5261 40.875 29.1355 40.6771C29.7136 40.4948 30.3334 40.3177 30.9323 40.0729C29.8698 40.1771 28.7969 40.2396 27.7292 40.3385C26.7969 40.6302 25.5313 41.0208 24.1407 41.4531C22.8386 41.901 21.8907 42.8698 21.1823 43.5469C20.474 44.2396 19.9896 44.6406 19.8959 44.5625C19.8021 44.474 20.1042 43.9323 20.6928 43.1198C21.0001 42.7135 21.3751 42.2396 21.8907 41.7708C21.9844 41.6823 22.0886 41.6042 22.1928 41.5156C21.1928 41.7708 20.448 41.9219 20.3803 41.7396C20.3073 41.5156 21.3907 40.7865 23.0573 40.349C22.3855 38.8906 21.6771 37.4479 20.6928 36.1667C20.0782 35.3594 19.5001 34.5833 19.0521 33.7083L18.5157 33.5781C18.4896 33.5729 18.4584 33.5521 18.4323 33.5469C18.3751 33.526 18.3594 33.5365 18.3386 33.5365C18.3126 33.5313 18.2657 33.5625 18.2188 33.6094C18.1251 33.7083 18.0469 33.875 17.9948 34.0104C17.948 34.1563 17.9167 34.2865 17.8855 34.375C17.8542 34.4844 17.823 34.5625 17.7605 34.5833C17.698 34.6042 17.6198 34.5729 17.5417 34.4844C17.4584 34.3698 17.3751 34.1979 17.349 33.9688C17.3282 33.7396 17.3438 33.4531 17.5209 33.1354C17.7657 32.6979 18.1407 32.6042 18.6094 32.7344C18.6823 32.5208 18.6146 32.5885 18.823 32.5156C18.7865 32.2188 18.5521 31.4115 18.3073 31.2969C17.9532 31.125 16.9063 31.526 16.5469 31.6354C16.2605 31.7188 13.3959 32.8438 13.4844 33.0521C13.7136 33.6302 14.1094 34.1354 14.4063 34.6875C14.599 34.6667 14.7865 34.7031 14.948 34.7708C15.1094 34.5573 15.3178 34.3698 15.5626 34.2708C15.974 34.099 16.3438 34.1667 16.6042 34.2344C16.8698 34.3333 17.0573 34.4427 17.1511 34.5469C17.2553 34.6406 17.2969 34.724 17.2709 34.776C17.2553 34.8333 17.1615 34.8594 17.0261 34.8542C16.8751 34.8438 16.698 34.849 16.5053 34.849C16.3021 34.8646 16.0782 34.8958 15.9167 35.0052C15.7553 35.1146 15.6303 35.3021 15.5157 35.5729L15.3126 36.0729L14.7813 35.75C14.7292 35.7135 14.6771 35.6615 14.6251 35.6406C14.6094 35.625 14.599 35.625 14.5834 35.6146C14.1771 36.7813 14.4323 37.776 15.1928 38.7969C15.5417 39.2708 15.8282 39.7604 15.9896 40.3333C16.5261 42.2656 17.1407 44.1719 17.8698 46.0417C18.2396 46.9844 18.6303 47.8906 18.9428 48.849C19.3334 50.0469 20.3594 49.9375 21.3334 49.974C21.6407 49.9844 21.9376 50.0104 22.2396 50.0417C22.2188 50.026 22.198 50.0104 22.1771 50C22.073 49.9115 21.974 49.8281 21.8698 49.75C21.7761 49.6615 21.6824 49.5729 21.5938 49.4896C20.8855 48.8021 20.4636 48.125 20.2084 47.6458C19.974 47.1615 19.8959 46.875 19.948 46.8438C20.0053 46.8125 20.1928 47.0417 20.5157 47.4583C20.8386 47.8542 21.3178 48.4323 22.0209 49C22.1146 49.0677 22.198 49.1458 22.2917 49.2188C22.3907 49.2865 22.4896 49.3542 22.5938 49.4219C22.7917 49.5677 23.0209 49.6823 23.2448 49.8125C23.7188 50.0573 24.2344 50.2917 24.8073 50.4531C24.9532 50.4948 25.1094 50.5313 25.2657 50.5677C25.2865 50.5729 25.3021 50.5781 25.3282 50.5833C25.8386 50.6719 26.3542 50.7708 26.8698 50.8594C27.4532 50.9271 28.0573 50.9635 28.6876 50.9792C30.0938 50.9948 31.448 50.8958 32.6876 50.7969C33.9271 50.7031 35.0469 50.6042 35.9948 50.5625C37.8959 50.4583 39.0782 50.6146 39.073 50.7344C39.0678 50.8698 37.9115 50.9427 36.0521 51.2083C35.4011 51.2969 34.6563 51.401 33.8386 51.5052C34.0678 51.526 34.3073 51.5573 34.573 51.599C35.5469 51.7448 36.7344 52.1042 38.0365 52.4896C38.1876 52.4844 38.3334 52.4792 38.4844 52.4792L38.6563 52.474L38.7396 52.4792C38.7553 52.4792 38.8021 52.4688 38.8021 52.4688C38.9063 52.4635 39.0209 52.4479 39.1355 52.4375C39.3594 52.4167 39.5886 52.3854 39.8178 52.3542C40.2657 52.276 40.7136 52.1979 41.1198 52.0729C41.5313 51.9583 41.9063 51.7969 42.224 51.6406C42.3751 51.5625 42.5886 51.4115 42.7032 51.3438C42.849 51.224 42.9896 51.1094 43.1198 50.9948C43.4011 50.7813 43.6355 50.5208 43.8646 50.3177C44.7813 49.4167 45.4428 49 45.5261 49.0833C45.6251 49.1823 45.099 49.776 44.3438 50.7604C44.1355 51.0052 43.9323 51.2865 43.6407 51.5573C43.5001 51.6927 43.3542 51.8333 43.2084 51.9792C42.9948 52.125 42.8855 52.224 42.6771 52.3542C42.0105 52.7552 41.2657 53 40.474 53.1615C41.1146 53.3125 41.7344 53.4167 42.3073 53.4531C43.1355 53.5 43.8751 53.4115 44.4532 53.2031C45.0417 53 45.4792 52.724 45.7761 52.526C46.073 52.3177 46.2553 52.1979 46.3073 52.2448C46.3438 52.2917 46.2605 52.4792 46.0209 52.7865C45.7709 53.0938 45.349 53.4844 44.7032 53.8021C44.0678 54.125 43.2084 54.3073 42.2813 54.2969C41.349 54.2917 40.3542 54.1094 39.3646 53.8333C38.7917 53.6823 38.2501 53.5052 37.7292 53.3333C37.5469 53.3385 37.3646 53.3385 37.1823 53.3281C37.1511 53.3229 37.1198 53.3177 37.0938 53.3125C37.2657 53.7083 37.3386 54.1719 37.3178 54.6875C39.2396 54.6458 41.1615 54.5729 43.0782 54.5C44.9115 54.3385 46.7448 54.1719 48.5886 54.1875C48.974 52.3698 48.8594 50.4167 48.6094 48.4844C48.4636 48.1667 48.2969 47.8125 48.1042 47.4271Z" fill="white"/>
<path d="M34.7555 52.7396L34.5107 52.6823L34.516 52.9323C34.5316 53.5261 34.542 54.125 34.5472 54.7188L34.5524 54.9115H34.7399C35.0212 54.9115 35.3076 54.9063 35.5889 54.9063L36.3441 54.8959L36.3545 54.7136C36.4118 53.6563 35.8857 53.0104 34.7555 52.7396Z" fill="white"/>
<path d="M10.3955 6.09898L10.2653 6.04169C9.88509 5.86981 9.50488 5.70315 9.11947 5.53648L8.84342 5.41669L8.84863 5.71877C8.85384 5.9844 8.85384 6.29169 8.81217 6.60419C8.80697 6.63023 8.80697 6.65106 8.79655 6.70315L8.77051 6.82294L8.86947 6.89585C9.1403 7.08856 9.40593 7.3021 9.66634 7.50523C9.79655 7.6146 9.93197 7.71877 10.0674 7.82815L10.3955 8.07815L10.3695 7.53648C10.3538 7.10419 10.333 6.66148 10.3799 6.2396L10.3955 6.09898Z" fill="white"/>
<mask id="mask3_1028_4183" style="mask-type:luminance" maskUnits="userSpaceOnUse" x="8" y="2" width="3" height="4">
<path d="M8 2.0625H10.6667V5.33333H8V2.0625Z" fill="white"/>
</mask>
<g mask="url(#mask3_1028_4183)">
<path d="M8.3903 4.24481V4.36981L9.39551 4.80731L9.41634 4.54169C9.43717 4.31773 9.44759 4.09377 9.46321 3.86981C9.49447 3.45835 9.52051 3.0469 9.56217 2.63544L9.58301 2.47919L9.43197 2.43231C9.16113 2.34898 8.8903 2.26044 8.61947 2.1719L8.36426 2.08856L8.37988 3.02085C8.38509 3.4271 8.3903 3.83856 8.3903 4.24481Z" fill="white"/>
</g>
<path d="M10.4997 13.9583L10.7861 14.0156L10.8591 13.125L10.4893 13.0052C9.8278 12.7969 9.15072 12.5729 8.49968 12.3125L8.23405 12.2031V12.4896C8.23405 12.6406 8.23405 12.7917 8.22884 12.9531C8.22884 12.9844 8.22363 13.0208 8.21322 13.0521L8.17676 13.2031L8.31218 13.2708C8.99447 13.6302 9.76009 13.7969 10.4997 13.9583Z" fill="white"/>
<path d="M8.21875 9.28644C8.22917 9.9479 8.23437 10.6094 8.23958 11.2708V11.4531L8.41667 11.4635C8.45833 11.4687 8.5 11.4791 8.53646 11.4948C9.17708 11.7604 9.83854 11.9791 10.4792 12.1823L11.0208 12.3594L11.0469 12.1198C11.0781 11.7031 11.1458 11.2864 11.2083 10.8802C11.2708 10.4635 11.3333 10.0416 11.3698 9.61456L11.3854 9.46873L11.25 9.41665C10.5313 9.1354 9.9375 8.67185 9.30729 8.18227C9.04687 7.97915 8.78125 7.77081 8.51042 7.5781L8.20312 7.36456V7.73956C8.20833 8.25519 8.21354 8.77081 8.21875 9.28644Z" fill="white"/>
<path d="M2.0784 7.24998L2.26069 7.2604C2.7034 7.28644 3.12527 7.33852 3.51069 7.41665L3.69819 7.45831L3.73465 7.2656C3.78152 7.04685 3.84923 6.8229 3.93256 6.56248C3.99506 6.38019 4.18256 6.21352 4.41694 6.27602C4.44819 6.28644 4.48465 6.30727 4.52631 6.33331L4.57319 6.36456H4.98985V3.83852L4.85965 3.79165C4.03673 3.49998 3.21381 3.24998 2.42735 3.04685L2.2034 2.98956L2.18777 3.21873C2.08881 4.35415 2.05756 5.5781 2.0784 7.0729V7.24998Z" fill="white"/>
<path d="M7.85384 6.35419L8.05697 6.38023L8.06738 6.1719C8.0778 5.90106 8.07259 5.63023 8.06738 5.3646L8.06217 5.07815L7.94759 5.02606C7.29134 4.73961 6.65072 4.47398 6.03093 4.2344L5.77051 4.13544V6.36461L7.71322 6.3594C7.7653 6.34898 7.80697 6.34898 7.85384 6.35419Z" fill="white"/>
<path d="M1.86426 10.1094H2.06217L2.05697 9.90627C2.03613 9.4844 2.12467 9.03648 2.2028 8.59898L2.30176 8.06252L1.57259 8.03127C1.47884 8.02606 1.40072 8.01044 1.33822 8.00002C1.05176 7.94273 0.874674 7.99481 0.775716 8.40627C0.723633 8.6094 0.666341 8.84898 0.63509 9.08856L0.619466 9.19794C0.583007 9.4271 0.541341 9.69273 0.536133 9.95315V10.1563L1.02051 10.1354C1.30176 10.1198 1.58301 10.1094 1.86426 10.1094Z" fill="white"/>
<path d="M3.25535 28.5521C2.63556 28.3802 1.98973 28.2031 1.36993 27.9896C1.32827 27.9739 1.29181 27.9583 1.26056 27.9271L1.20847 27.8958C1.11993 27.8594 0.968891 27.7708 0.942849 27.5521C0.838683 26.7187 0.864725 25.8541 0.890766 25.0208C0.901182 24.6823 0.9116 24.3489 0.916808 23.9687L0.922016 23.9375L0.916808 23.901C0.901182 23.8333 0.895974 23.7396 0.948058 23.6719C1.08868 23.4896 1.23452 23.3125 1.38035 23.1302C1.76577 22.651 2.17202 22.1562 2.48452 21.6041C2.52097 21.5469 2.56264 21.5 2.61993 21.4635L2.70327 21.4114L2.71368 21.3177C2.72931 21.0573 2.76056 20.7969 2.79181 20.5364C2.81785 20.2969 2.8491 20.0521 2.86473 19.8073L2.88035 19.5989H0.828266L0.7866 19.7344C0.0105578 22.1198 0.145974 24.7552 0.276182 27.3021C0.312641 28.1198 0.354308 28.9687 0.364725 29.776V29.9687H0.562641C1.71368 29.9375 2.86473 29.8594 4.0366 29.7812L4.21368 29.7656V28.8229L4.07306 28.7812C3.80222 28.7031 3.53139 28.6302 3.25535 28.5521Z" fill="white"/>
<path d="M8.52051 27.4219L8.33301 27.4167L8.32259 27.6042C8.30176 27.9271 8.28092 28.2552 8.27572 28.5886L8.27051 28.8021L8.48405 28.7865C9.48405 28.7084 10.5101 28.7448 11.4997 28.7813L11.9997 28.7969L12.0413 28.6615C12.0726 28.5573 12.1143 28.4636 12.1559 28.3646L12.2445 28.1771L12.0465 28.1042C10.833 27.6719 9.68197 27.4479 8.52051 27.4219Z" fill="white"/>
<path d="M18.7451 14.3229C20.6982 14.3698 22.6566 14.5313 24.6097 14.6354C24.6149 14.6667 24.6149 14.6979 24.6201 14.7344L24.667 15.1771L25.1097 15.1927C25.3545 15.2032 25.5941 15.2188 25.8337 15.2344C26.0524 15.25 26.2712 15.2657 26.4899 15.2761L27.1514 15.3021L27.0107 14.6511C26.9743 14.4792 26.9639 14.3229 26.9795 14.1771L27.0264 13.6615L26.516 13.6146C26.0732 13.5729 25.641 13.5938 25.2191 13.6094L24.6097 13.6354L24.6045 13.8646C22.6514 13.7604 20.6982 13.599 18.7451 13.5521C18.2451 13.5365 18.2451 14.3125 18.7451 14.3229Z" fill="white"/>
</svg>
