<svg width="24" height="24" viewBox="0 0 24 24" fill="none" xmlns="http://www.w3.org/2000/svg">
<g clip-path="url(#clip0_1061_3611)">
<path d="M1.93633 9.28958H4.25924C4.36549 9.28958 4.45716 9.25208 4.53216 9.17708C4.60924 9.10208 4.64675 9.01042 4.64675 8.90417V7.35417C4.64675 7.24792 4.60924 7.15625 4.53216 7.08125C4.45716 7.00625 4.36549 6.96875 4.25924 6.96875H1.93633C1.83008 6.96875 1.73841 7.00625 1.66341 7.08125C1.58633 7.15625 1.54883 7.24792 1.54883 7.35417V8.90417C1.54883 9.01042 1.58633 9.10208 1.66341 9.17708C1.73841 9.25208 1.83008 9.28958 1.93633 9.28958ZM2.32383 7.74167H3.87174V8.51667H2.32383V7.74167Z" fill="#EFEFEF"/>
<path d="M5.80547 9.28958H8.12839C8.23464 9.28958 8.3263 9.25208 8.4013 9.17708C8.47839 9.10208 8.51589 9.01042 8.51589 8.90417V7.35417C8.51589 7.24792 8.47839 7.15625 8.4013 7.08125C8.3263 7.00625 8.23464 6.96875 8.12839 6.96875H5.80547C5.69922 6.96875 5.60755 7.00625 5.53255 7.08125C5.45547 7.15625 5.41797 7.24792 5.41797 7.35417V8.90417C5.41797 9.01042 5.45547 9.10208 5.53255 9.17708C5.60755 9.25208 5.69922 9.28958 5.80547 9.28958ZM6.19297 7.74167H7.74089V8.51667H6.19297V7.74167Z" fill="#EFEFEF"/>
<path d="M1.93437 12.3893H4.25729C4.36354 12.3893 4.45521 12.3518 4.53021 12.2747C4.60729 12.1997 4.64479 12.1081 4.64479 12.0018V10.4539C4.64479 10.3456 4.60729 10.256 4.53021 10.1789C4.45521 10.1039 4.36354 10.0664 4.25729 10.0664H1.93437C1.82813 10.0664 1.73646 10.1039 1.66146 10.1789C1.58437 10.256 1.54688 10.3456 1.54688 10.4539V12.0018C1.54688 12.1081 1.58437 12.1997 1.66146 12.2747C1.73646 12.3518 1.82813 12.3893 1.93437 12.3893ZM2.32188 10.8414H3.86979V11.6143H2.32188V10.8414Z" fill="#EFEFEF"/>
<path d="M5.80547 12.3893H8.12839C8.23464 12.3893 8.3263 12.3518 8.4013 12.2747C8.47839 12.1997 8.51589 12.1081 8.51589 12.0018V10.4539C8.51589 10.3456 8.47839 10.256 8.4013 10.1789C8.3263 10.1039 8.23464 10.0664 8.12839 10.0664H5.80547C5.69922 10.0664 5.60755 10.1039 5.53255 10.1789C5.45547 10.256 5.41797 10.3456 5.41797 10.4539V12.0018C5.41797 12.1081 5.45547 12.1997 5.53255 12.2747C5.60755 12.3518 5.69922 12.3893 5.80547 12.3893ZM6.19297 10.8414H7.74089V11.6143H6.19297V10.8414Z" fill="#EFEFEF"/>
<path d="M1.93437 15.4831H4.25729C4.36354 15.4831 4.45521 15.4456 4.53021 15.3706C4.60729 15.2956 4.64479 15.2039 4.64479 15.0956V13.5477C4.64479 13.4414 4.60729 13.3497 4.53021 13.2747C4.45521 13.1997 4.36354 13.1602 4.25729 13.1602H1.93437C1.82813 13.1602 1.73646 13.1997 1.66146 13.2747C1.58437 13.3497 1.54688 13.4414 1.54688 13.5477V15.0956C1.54688 15.2039 1.58437 15.2956 1.66146 15.3706C1.73646 15.4456 1.82813 15.4831 1.93437 15.4831ZM2.32188 13.9352H3.86979V14.7102H2.32188V13.9352Z" fill="#EFEFEF"/>
<path d="M5.80547 15.4831H8.12839C8.23464 15.4831 8.3263 15.4456 8.4013 15.3706C8.47839 15.2956 8.51589 15.2039 8.51589 15.0956V13.5477C8.51589 13.4414 8.47839 13.3497 8.4013 13.2747C8.3263 13.1997 8.23464 13.1602 8.12839 13.1602H5.80547C5.69922 13.1602 5.60755 13.1997 5.53255 13.2747C5.45547 13.3497 5.41797 13.4414 5.41797 13.5477V15.0956C5.41797 15.2039 5.45547 15.2956 5.53255 15.3706C5.60755 15.4456 5.69922 15.4831 5.80547 15.4831ZM6.19297 13.9352H7.74089V14.7102H6.19297V13.9352Z" fill="#EFEFEF"/>
<path d="M4.25729 18.5807C4.36354 18.5807 4.45521 18.5432 4.53021 18.4661C4.60729 18.3911 4.64479 18.2995 4.64479 18.1932V16.6453C4.64479 16.537 4.60729 16.4474 4.53021 16.3703C4.45521 16.2953 4.36354 16.2578 4.25729 16.2578H1.93437C1.82813 16.2578 1.73646 16.2953 1.66146 16.3703C1.58437 16.4474 1.54688 16.537 1.54688 16.6453V18.1932C1.54688 18.2995 1.58437 18.3911 1.66146 18.4661C1.73646 18.5432 1.82813 18.5807 1.93437 18.5807H4.25729ZM2.32188 17.0307H3.86979V17.8057H2.32188V17.0307Z" fill="#EFEFEF"/>
<path d="M5.80547 18.5807H8.12839C8.23464 18.5807 8.3263 18.5432 8.4013 18.4661C8.47839 18.3911 8.51589 18.2995 8.51589 18.1932V16.6453C8.51589 16.537 8.47839 16.4474 8.4013 16.3703C8.3263 16.2953 8.23464 16.2578 8.12839 16.2578H5.80547C5.69922 16.2578 5.60755 16.2953 5.53255 16.3703C5.45547 16.4474 5.41797 16.537 5.41797 16.6453V18.1932C5.41797 18.2995 5.45547 18.3911 5.53255 18.4661C5.60755 18.5432 5.69922 18.5807 5.80547 18.5807ZM6.19297 17.0307H7.74089V17.8057H6.19297V17.0307Z" fill="#EFEFEF"/>
<path d="M20.9938 11.0583L20.5 10.6125C20.5417 10.3729 20.5083 10.1438 20.3979 9.92708C20.2896 9.70833 20.125 9.54583 19.9083 9.4375L20.8646 7.52708C20.8938 7.46667 20.9083 7.40417 20.9042 7.3375C20.9021 7.26875 20.8833 7.20833 20.8479 7.15C20.8104 7.09375 20.7646 7.04792 20.7063 7.01667C20.6458 6.98333 20.5833 6.96667 20.5167 6.96875H18.5813V0.3875C18.5813 0.279167 18.5438 0.189583 18.4667 0.1125C18.3917 0.0375 18.3 0 18.1938 0H7.35417C7.24792 0 7.15625 0.0375 7.08125 0.1125C7.00625 0.189583 6.96875 0.279167 6.96875 0.3875V3.87083H1.16042C1.05417 3.87083 0.9625 3.90833 0.8875 3.98333C0.8125 4.06042 0.775 4.15208 0.775 4.25833V5.41875H0.3875C0.279167 5.41875 0.189583 5.45625 0.1125 5.53333C0.0375 5.60833 0 5.7 0 5.80625V23.6125C0 23.7208 0.0375 23.8104 0.1125 23.8875C0.189583 23.9625 0.279167 24 0.3875 24H17.8063C18.2125 24 18.6146 23.9604 19.0146 23.8792C19.4125 23.8 19.8 23.6833 20.175 23.5271C20.55 23.3708 20.9083 23.1792 21.2458 22.9542C21.5833 22.7271 21.8958 22.4708 22.1833 22.1833C22.4708 21.8958 22.7271 21.5833 22.9542 21.2458C23.1792 20.9083 23.3708 20.55 23.5271 20.175C23.6833 19.8 23.8 19.4125 23.8792 19.0146C23.9604 18.6146 24 18.2125 24 17.8063C24 17.1708 23.9333 16.5417 23.8 15.9188C23.6688 15.2958 23.4729 14.6938 23.2146 14.1125C22.9542 13.5313 22.6375 12.9833 22.2646 12.4688C21.8896 11.9542 21.4667 11.4833 20.9938 11.0583ZM16.2583 10.0646H19.3542C19.4625 10.0646 19.5521 10.1021 19.6292 10.1771C19.7042 10.2542 19.7417 10.3438 19.7417 10.4521C19.7417 10.5583 19.7042 10.65 19.6292 10.725C19.5521 10.8 19.4625 10.8396 19.3542 10.8396H16.2583C16.1521 10.8396 16.0604 10.8 15.9833 10.725C15.9083 10.65 15.8708 10.5583 15.8708 10.4521C15.8708 10.3438 15.9083 10.2542 15.9833 10.1771C16.0604 10.1021 16.1521 10.0646 16.2583 10.0646ZM19.1146 9.28958H16.4979L15.7229 7.74167H19.8896L19.1146 9.28958ZM7.74167 0.775H17.8063V6.96875H15.0958C15.0292 6.96667 14.9667 6.98333 14.9083 7.01667C14.8479 7.04792 14.8021 7.09375 14.7667 7.15C14.7313 7.20833 14.7104 7.26875 14.7083 7.3375C14.7042 7.40417 14.7188 7.46667 14.7479 7.52708L15.7021 9.4375C15.4854 9.54583 15.3208 9.70833 15.2125 9.92708C15.1021 10.1438 15.0688 10.3729 15.1104 10.6125L14.6167 11.0583C14.4208 11.2354 14.2354 11.4208 14.0563 11.6125H13.1604V10.0646H14.3229V9.28958H12.775C12.6667 9.28958 12.5771 9.32708 12.5 9.40417C12.425 9.47917 12.3875 9.57083 12.3875 9.67708V12C12.3875 12.1063 12.425 12.1979 12.5 12.2729C12.5771 12.35 12.6667 12.3875 12.775 12.3875H13.4104C13.2208 12.6438 13.0438 12.9083 12.8813 13.1833C12.8479 13.1708 12.8104 13.1625 12.775 13.1604H10.0646V8.51667H12.775C12.8813 8.51667 12.9729 8.47917 13.0479 8.40208C13.1229 8.32708 13.1604 8.23542 13.1604 8.12917V5.80625C13.1604 5.7 13.1229 5.60833 13.0479 5.53333C12.9729 5.45625 12.8813 5.41875 12.775 5.41875H9.28958V4.25833C9.28958 4.15208 9.25208 4.06042 9.17708 3.98333C9.10208 3.90833 9.01042 3.87083 8.90417 3.87083H7.74167V0.775ZM11.9167 15.4833H10.0646V13.9354H12.3875V14.1438C12.1958 14.5771 12.0396 15.025 11.9167 15.4833ZM12.3875 6.19375V7.74167H10.0646V6.19375H12.3875ZM1.54792 4.64583H8.51667V5.41875H1.54792V4.64583ZM0.775 6.19375H9.28958V23.225H7.35417V19.7417C7.35417 19.6354 7.31667 19.5438 7.24167 19.4688C7.16667 19.3917 7.075 19.3542 6.96875 19.3542H3.09583C2.98958 19.3542 2.89792 19.3917 2.82292 19.4688C2.74792 19.5438 2.71042 19.6354 2.71042 19.7417V23.225H0.775V6.19375ZM5.41875 20.1292H6.58125V23.225H5.41875V20.1292ZM4.64583 23.225H3.48333V20.1292H4.64583V23.225ZM10.0646 23.225V16.2583H11.7479C11.6583 16.7708 11.6146 17.2854 11.6125 17.8063C11.6125 18.3604 11.6875 18.9042 11.8333 19.4375C11.9792 19.9708 12.1938 20.4771 12.475 20.9521C12.7563 21.4292 13.0958 21.8604 13.4917 22.2458C13.8896 22.6313 14.3292 22.9583 14.8146 23.225H10.0646ZM17.8063 23.225C17.45 23.225 17.0979 23.1896 16.75 23.1208C16.4 23.05 16.0625 22.9479 15.7333 22.8125C15.4042 22.675 15.0938 22.5083 14.7979 22.3104C14.5021 22.1125 14.2271 21.8875 13.9771 21.6375C13.725 21.3854 13.5 21.1125 13.3021 20.8167C13.1042 20.5208 12.9375 20.2083 12.8021 19.8792C12.6646 19.55 12.5625 19.2125 12.4917 18.8625C12.4229 18.5146 12.3875 18.1625 12.3875 17.8063C12.3875 17.225 12.4479 16.6479 12.5688 16.0792C12.6896 15.5104 12.8688 14.9604 13.1063 14.4292C13.3438 13.8958 13.6313 13.3958 13.975 12.925C14.3167 12.4542 14.7042 12.0229 15.1354 11.6333L15.4896 11.3146C15.7083 11.5125 15.9646 11.6125 16.2583 11.6125H19.3542C19.6479 11.6125 19.9042 11.5125 20.1229 11.3146L20.4771 11.6333C20.9083 12.0229 21.2958 12.4542 21.6375 12.925C21.9813 13.3958 22.2688 13.8958 22.5063 14.4292C22.7438 14.9604 22.9229 15.5104 23.0438 16.0792C23.1646 16.6479 23.225 17.225 23.225 17.8063C23.225 18.1625 23.1896 18.5146 23.1208 18.8625C23.05 19.2125 22.9479 19.55 22.8125 19.8792C22.675 20.2083 22.5083 20.5208 22.3104 20.8167C22.1125 21.1125 21.8875 21.3854 21.6375 21.6375C21.3854 21.8875 21.1125 22.1125 20.8167 22.3104C20.5208 22.5083 20.2083 22.675 19.8792 22.8125C19.55 22.9479 19.2125 23.05 18.8625 23.1208C18.5146 23.1896 18.1625 23.225 17.8063 23.225Z" fill="#EFEFEF"/>
<path d="M17.8052 13.1602C17.526 13.1602 17.249 13.1893 16.974 13.2435C16.701 13.2977 16.4344 13.3789 16.176 13.4852C15.9177 13.5914 15.6719 13.7227 15.4406 13.8789C15.2073 14.0331 14.9927 14.2102 14.7948 14.4081C14.5969 14.606 14.4198 14.8206 14.2656 15.0539C14.1094 15.2852 13.9781 15.531 13.8719 15.7893C13.7635 16.0477 13.6844 16.3143 13.6281 16.5893C13.574 16.8622 13.5469 17.1393 13.5469 17.4185C13.5469 17.6977 13.574 17.9747 13.6281 18.2497C13.6844 18.5247 13.7635 18.7893 13.8719 19.0477C13.9781 19.306 14.1094 19.5518 14.2656 19.7852C14.4198 20.0164 14.5969 20.2331 14.7948 20.431C14.9927 20.6268 15.2073 20.8039 15.4406 20.9602C15.6719 21.1143 15.9177 21.2456 16.176 21.3539C16.4344 21.4602 16.701 21.5414 16.974 21.5956C17.249 21.6497 17.526 21.6768 17.8052 21.6768C18.0844 21.6768 18.3615 21.6497 18.6365 21.5956C18.9094 21.5414 19.176 21.4602 19.4344 21.3539C19.6927 21.2456 19.9385 21.1143 20.1719 20.9602C20.4031 20.8039 20.6177 20.6268 20.8156 20.431C21.0135 20.2331 21.1906 20.0164 21.3469 19.7852C21.501 19.5518 21.6323 19.306 21.7385 19.0477C21.8469 18.7893 21.9281 18.5247 21.9823 18.2497C22.0365 17.9747 22.0635 17.6977 22.0635 17.4185C22.0635 17.1393 22.0365 16.8622 21.9802 16.5893C21.926 16.3143 21.8448 16.0477 21.7385 15.7914C21.6302 15.5331 21.499 15.2872 21.3448 15.0539C21.1885 14.8227 21.0115 14.6081 20.8156 14.4102C20.6177 14.2122 20.4031 14.0352 20.1698 13.881C19.9385 13.7247 19.6927 13.5935 19.4344 13.4872C19.176 13.3789 18.9094 13.2977 18.6365 13.2435C18.3615 13.1893 18.0844 13.1622 17.8052 13.1602ZM14.3219 17.4185C14.3219 17.206 14.3406 16.9956 14.3802 16.7872C14.4198 16.5789 14.476 16.3747 14.551 16.1768C14.6281 15.9789 14.7219 15.7893 14.8323 15.6081C14.9427 15.4268 15.0677 15.256 15.2094 15.0977C15.351 14.9393 15.5073 14.7956 15.674 14.6664C15.8427 14.5352 16.0198 14.4227 16.2094 14.3247C16.3969 14.2268 16.5948 14.1477 16.7969 14.0872C17.001 14.0247 17.2073 13.981 17.4177 13.9581V14.7643C17.2365 14.8122 17.0677 14.8893 16.9135 14.9977C16.7594 15.106 16.6302 15.2372 16.524 15.3935C16.4198 15.5497 16.3448 15.7185 16.301 15.9018C16.2573 16.0852 16.2469 16.2685 16.2698 16.456C16.2948 16.6435 16.351 16.8185 16.4385 16.9852C16.526 17.1518 16.6406 17.2977 16.7823 17.4206C16.924 17.5456 17.0823 17.6414 17.2594 17.7081C17.4344 17.7727 17.6177 17.806 17.8052 17.806C17.9073 17.806 18.0073 17.8268 18.101 17.8643C18.1969 17.9039 18.2802 17.9602 18.3531 18.0331C18.426 18.106 18.4823 18.1893 18.5198 18.2831C18.5594 18.3789 18.5802 18.4768 18.5802 18.581C18.5802 18.6831 18.5594 18.781 18.5198 18.8768C18.4823 18.9706 18.426 19.056 18.3531 19.1268C18.2802 19.1997 18.1969 19.256 18.101 19.2956C18.0073 19.3352 17.9073 19.3539 17.8052 19.3539C17.7031 19.3539 17.6031 19.3352 17.5094 19.2956C17.4135 19.256 17.3302 19.1997 17.2573 19.1268C17.1844 19.056 17.1302 18.9706 17.0906 18.8768C17.051 18.781 17.0302 18.6831 17.0302 18.581H16.2573C16.2573 18.7518 16.2865 18.9185 16.3427 19.0789C16.3969 19.2414 16.4781 19.3893 16.5823 19.5247C16.6885 19.6602 16.8115 19.7747 16.9552 19.8685C17.099 19.9622 17.2531 20.031 17.4177 20.0747V20.881C17.2073 20.856 17.001 20.8143 16.7969 20.7518C16.5948 20.6893 16.3969 20.6102 16.2094 20.5143C16.0198 20.4164 15.8427 20.3018 15.674 20.1727C15.5073 20.0414 15.351 19.8977 15.2094 19.7393C15.0677 19.581 14.9427 19.4122 14.8323 19.231C14.7219 19.0497 14.6281 18.8602 14.551 18.6622C14.476 18.4622 14.4198 18.2602 14.3802 18.0497C14.3406 17.8414 14.3219 17.631 14.3219 17.4185ZM18.1927 20.881V20.0747C18.374 20.0268 18.5427 19.9497 18.6969 19.8414C18.851 19.7331 18.9802 19.5997 19.0865 19.4456C19.1927 19.2893 19.2656 19.1206 19.3094 18.9372C19.3531 18.7539 19.3635 18.5685 19.3406 18.3831C19.3156 18.1956 19.2615 18.0185 19.1719 17.8518C19.0844 17.6872 18.9698 17.5414 18.8281 17.4164C18.6865 17.2935 18.5281 17.1977 18.351 17.131C18.176 17.0643 17.9927 17.031 17.8052 17.031C17.7031 17.031 17.6031 17.0122 17.5094 16.9727C17.4135 16.9331 17.3302 16.8768 17.2573 16.806C17.1844 16.7331 17.1302 16.6497 17.0906 16.5539C17.051 16.4602 17.0302 16.3602 17.0302 16.2581C17.0302 16.156 17.051 16.056 17.0906 15.9622C17.1302 15.8664 17.1844 15.7831 17.2573 15.7102C17.3302 15.6372 17.4135 15.581 17.5094 15.5435C17.6031 15.5039 17.7031 15.4831 17.8052 15.4831C17.9073 15.4831 18.0073 15.5039 18.101 15.5435C18.1969 15.581 18.2802 15.6372 18.3531 15.7102C18.426 15.7831 18.4823 15.8664 18.5198 15.9622C18.5594 16.056 18.5802 16.156 18.5802 16.2581H19.3531C19.3531 16.0872 19.324 15.9206 19.2698 15.7581C19.2135 15.5977 19.1323 15.4477 19.0281 15.3122C18.9219 15.1789 18.799 15.0643 18.6552 14.9685C18.5135 14.8747 18.3573 14.8081 18.1927 14.7643V13.9581C18.4031 13.9831 18.6094 14.0247 18.8115 14.0872C19.0156 14.1497 19.2115 14.2289 19.399 14.3268C19.5865 14.4247 19.7656 14.5372 19.9323 14.6685C20.099 14.7977 20.2531 14.9435 20.3948 15.0997C20.5365 15.2581 20.6615 15.4289 20.7719 15.6102C20.8823 15.7914 20.974 15.981 21.049 16.1789C21.126 16.3768 21.1823 16.581 21.2198 16.7893C21.2594 16.9977 21.2781 17.2081 21.2781 17.4185C21.2781 17.631 21.2594 17.8414 21.2198 18.0497C21.1823 18.2581 21.126 18.4622 21.049 18.6602C20.974 18.8581 20.8823 19.0477 20.7719 19.2289C20.6615 19.4102 20.5365 19.5789 20.3948 19.7372C20.2531 19.8956 20.099 20.0393 19.9323 20.1706C19.7656 20.2997 19.5865 20.4143 19.399 20.5122C19.2115 20.6081 19.0156 20.6893 18.8115 20.7518C18.6094 20.8122 18.4031 20.856 18.1927 20.881Z" fill="#EFEFEF"/>
<path d="M12.7742 4.64479H16.6451C16.7513 4.64479 16.843 4.60729 16.918 4.53021C16.993 4.45521 17.0305 4.36354 17.0305 4.25729V1.93437C17.0305 1.82813 16.993 1.73646 16.918 1.66146C16.843 1.58437 16.7513 1.54688 16.6451 1.54688H12.7742C12.6659 1.54688 12.5763 1.58437 12.4992 1.66146C12.4242 1.73646 12.3867 1.82813 12.3867 1.93437V4.25729C12.3867 4.36354 12.4242 4.45521 12.4992 4.53021C12.5763 4.60729 12.6659 4.64479 12.7742 4.64479ZM13.1596 2.32188H16.2576V3.86979H13.1596V2.32188Z" fill="#EFEFEF"/>
</g>
<defs>
<clipPath id="clip0_1061_3611">
<rect width="24" height="24" fill="white"/>
</clipPath>
</defs>
</svg>
