<svg width="24" height="24" viewBox="0 0 24 24" fill="none" xmlns="http://www.w3.org/2000/svg">
<g clip-path="url(#clip0_438_698)">
<path d="M1.93541 9.28958H4.25833C4.36458 9.28958 4.45625 9.25208 4.53125 9.17708C4.60833 9.10208 4.64583 9.01042 4.64583 8.90417V7.35417C4.64583 7.24792 4.60833 7.15625 4.53125 7.08125C4.45625 7.00625 4.36458 6.96875 4.25833 6.96875H1.93541C1.82916 6.96875 1.7375 7.00625 1.6625 7.08125C1.58541 7.15625 1.54791 7.24792 1.54791 7.35417V8.90417C1.54791 9.01042 1.58541 9.10208 1.6625 9.17708C1.7375 9.25208 1.82916 9.28958 1.93541 9.28958ZM2.32291 7.74167H3.87083V8.51667H2.32291V7.74167Z" fill="#404040"/>
<path d="M5.80626 9.28958H8.12918C8.23543 9.28958 8.3271 9.25208 8.4021 9.17708C8.47918 9.10208 8.51668 9.01042 8.51668 8.90417V7.35417C8.51668 7.24792 8.47918 7.15625 8.4021 7.08125C8.3271 7.00625 8.23543 6.96875 8.12918 6.96875H5.80626C5.70001 6.96875 5.60835 7.00625 5.53335 7.08125C5.45626 7.15625 5.41876 7.24792 5.41876 7.35417V8.90417C5.41876 9.01042 5.45626 9.10208 5.53335 9.17708C5.60835 9.25208 5.70001 9.28958 5.80626 9.28958ZM6.19376 7.74167H7.74168V8.51667H6.19376V7.74167Z" fill="#404040"/>
<path d="M1.93541 12.3875H4.25833C4.36458 12.3875 4.45625 12.35 4.53125 12.2729C4.60833 12.1979 4.64583 12.1062 4.64583 12V10.4521C4.64583 10.3437 4.60833 10.2542 4.53125 10.1771C4.45625 10.1021 4.36458 10.0646 4.25833 10.0646H1.93541C1.82916 10.0646 1.7375 10.1021 1.6625 10.1771C1.58541 10.2542 1.54791 10.3437 1.54791 10.4521V12C1.54791 12.1062 1.58541 12.1979 1.6625 12.2729C1.7375 12.35 1.82916 12.3875 1.93541 12.3875ZM2.32291 10.8396H3.87083V11.6125H2.32291V10.8396Z" fill="#404040"/>
<path d="M5.80626 12.3875H8.12918C8.23543 12.3875 8.3271 12.35 8.4021 12.2729C8.47918 12.1979 8.51668 12.1062 8.51668 12V10.4521C8.51668 10.3437 8.47918 10.2542 8.4021 10.1771C8.3271 10.1021 8.23543 10.0646 8.12918 10.0646H5.80626C5.70001 10.0646 5.60835 10.1021 5.53335 10.1771C5.45626 10.2542 5.41876 10.3437 5.41876 10.4521V12C5.41876 12.1062 5.45626 12.1979 5.53335 12.2729C5.60835 12.35 5.70001 12.3875 5.80626 12.3875ZM6.19376 10.8396H7.74168V11.6125H6.19376V10.8396Z" fill="#404040"/>
<path d="M1.93541 15.4833H4.25833C4.36458 15.4833 4.45625 15.4458 4.53125 15.3708C4.60833 15.2958 4.64583 15.2042 4.64583 15.0958V13.5479C4.64583 13.4417 4.60833 13.35 4.53125 13.275C4.45625 13.2 4.36458 13.1604 4.25833 13.1604H1.93541C1.82916 13.1604 1.7375 13.2 1.6625 13.275C1.58541 13.35 1.54791 13.4417 1.54791 13.5479V15.0958C1.54791 15.2042 1.58541 15.2958 1.6625 15.3708C1.7375 15.4458 1.82916 15.4833 1.93541 15.4833ZM2.32291 13.9354H3.87083V14.7104H2.32291V13.9354Z" fill="#404040"/>
<path d="M5.80626 15.4833H8.12918C8.23543 15.4833 8.3271 15.4458 8.4021 15.3708C8.47918 15.2958 8.51668 15.2042 8.51668 15.0958V13.5479C8.51668 13.4417 8.47918 13.35 8.4021 13.275C8.3271 13.2 8.23543 13.1604 8.12918 13.1604H5.80626C5.70001 13.1604 5.60835 13.2 5.53335 13.275C5.45626 13.35 5.41876 13.4417 5.41876 13.5479V15.0958C5.41876 15.2042 5.45626 15.2958 5.53335 15.3708C5.60835 15.4458 5.70001 15.4833 5.80626 15.4833ZM6.19376 13.9354H7.74168V14.7104H6.19376V13.9354Z" fill="#404040"/>
<path d="M4.25833 18.5812C4.36458 18.5812 4.45625 18.5437 4.53125 18.4667C4.60833 18.3917 4.64583 18.3 4.64583 18.1937V16.6458C4.64583 16.5375 4.60833 16.4479 4.53125 16.3708C4.45625 16.2958 4.36458 16.2583 4.25833 16.2583H1.93541C1.82916 16.2583 1.7375 16.2958 1.6625 16.3708C1.58541 16.4479 1.54791 16.5375 1.54791 16.6458V18.1937C1.54791 18.3 1.58541 18.3917 1.6625 18.4667C1.7375 18.5437 1.82916 18.5812 1.93541 18.5812H4.25833ZM2.32291 17.0312H3.87083V17.8062H2.32291V17.0312Z" fill="#404040"/>
<path d="M5.80626 18.5812H8.12918C8.23543 18.5812 8.3271 18.5437 8.4021 18.4667C8.47918 18.3917 8.51668 18.3 8.51668 18.1937V16.6458C8.51668 16.5375 8.47918 16.4479 8.4021 16.3708C8.3271 16.2958 8.23543 16.2583 8.12918 16.2583H5.80626C5.70001 16.2583 5.60835 16.2958 5.53335 16.3708C5.45626 16.4479 5.41876 16.5375 5.41876 16.6458V18.1937C5.41876 18.3 5.45626 18.3917 5.53335 18.4667C5.60835 18.5437 5.70001 18.5812 5.80626 18.5812ZM6.19376 17.0312H7.74168V17.8062H6.19376V17.0312Z" fill="#404040"/>
<path d="M20.9938 11.0583L20.5 10.6125C20.5417 10.3729 20.5083 10.1438 20.3979 9.92708C20.2896 9.70833 20.125 9.54583 19.9083 9.4375L20.8646 7.52708C20.8938 7.46667 20.9083 7.40417 20.9042 7.3375C20.9021 7.26875 20.8833 7.20833 20.8479 7.15C20.8104 7.09375 20.7646 7.04792 20.7063 7.01667C20.6458 6.98333 20.5833 6.96667 20.5167 6.96875H18.5813V0.3875C18.5813 0.279167 18.5438 0.189583 18.4667 0.1125C18.3917 0.0375 18.3 0 18.1938 0H7.35417C7.24792 0 7.15625 0.0375 7.08125 0.1125C7.00625 0.189583 6.96875 0.279167 6.96875 0.3875V3.87083H1.16042C1.05417 3.87083 0.9625 3.90833 0.8875 3.98333C0.8125 4.06042 0.775 4.15208 0.775 4.25833V5.41875H0.3875C0.279167 5.41875 0.189583 5.45625 0.1125 5.53333C0.0375 5.60833 0 5.7 0 5.80625V23.6125C0 23.7208 0.0375 23.8104 0.1125 23.8875C0.189583 23.9625 0.279167 24 0.3875 24H17.8063C18.2125 24 18.6146 23.9604 19.0146 23.8792C19.4125 23.8 19.8 23.6833 20.175 23.5271C20.55 23.3708 20.9083 23.1792 21.2458 22.9542C21.5833 22.7271 21.8958 22.4708 22.1833 22.1833C22.4708 21.8958 22.7271 21.5833 22.9542 21.2458C23.1792 20.9083 23.3708 20.55 23.5271 20.175C23.6833 19.8 23.8 19.4125 23.8792 19.0146C23.9604 18.6146 24 18.2125 24 17.8063C24 17.1708 23.9333 16.5417 23.8 15.9188C23.6688 15.2958 23.4729 14.6938 23.2146 14.1125C22.9542 13.5313 22.6375 12.9833 22.2646 12.4688C21.8896 11.9542 21.4667 11.4833 20.9938 11.0583ZM16.2583 10.0646H19.3542C19.4625 10.0646 19.5521 10.1021 19.6292 10.1771C19.7042 10.2542 19.7417 10.3438 19.7417 10.4521C19.7417 10.5583 19.7042 10.65 19.6292 10.725C19.5521 10.8 19.4625 10.8396 19.3542 10.8396H16.2583C16.1521 10.8396 16.0604 10.8 15.9833 10.725C15.9083 10.65 15.8708 10.5583 15.8708 10.4521C15.8708 10.3438 15.9083 10.2542 15.9833 10.1771C16.0604 10.1021 16.1521 10.0646 16.2583 10.0646ZM19.1146 9.28958H16.4979L15.7229 7.74167H19.8896L19.1146 9.28958ZM7.74167 0.775H17.8063V6.96875H15.0958C15.0292 6.96667 14.9667 6.98333 14.9083 7.01667C14.8479 7.04792 14.8021 7.09375 14.7667 7.15C14.7313 7.20833 14.7104 7.26875 14.7083 7.3375C14.7042 7.40417 14.7188 7.46667 14.7479 7.52708L15.7021 9.4375C15.4854 9.54583 15.3208 9.70833 15.2125 9.92708C15.1021 10.1438 15.0688 10.3729 15.1104 10.6125L14.6167 11.0583C14.4208 11.2354 14.2354 11.4208 14.0563 11.6125H13.1604V10.0646H14.3229V9.28958H12.775C12.6667 9.28958 12.5771 9.32708 12.5 9.40417C12.425 9.47917 12.3875 9.57083 12.3875 9.67708V12C12.3875 12.1063 12.425 12.1979 12.5 12.2729C12.5771 12.35 12.6667 12.3875 12.775 12.3875H13.4104C13.2208 12.6438 13.0438 12.9083 12.8813 13.1833C12.8479 13.1708 12.8104 13.1625 12.775 13.1604H10.0646V8.51667H12.775C12.8813 8.51667 12.9729 8.47917 13.0479 8.40208C13.1229 8.32708 13.1604 8.23542 13.1604 8.12917V5.80625C13.1604 5.7 13.1229 5.60833 13.0479 5.53333C12.9729 5.45625 12.8813 5.41875 12.775 5.41875H9.28958V4.25833C9.28958 4.15208 9.25208 4.06042 9.17708 3.98333C9.10208 3.90833 9.01042 3.87083 8.90417 3.87083H7.74167V0.775ZM11.9167 15.4833H10.0646V13.9354H12.3875V14.1438C12.1958 14.5771 12.0396 15.025 11.9167 15.4833ZM12.3875 6.19375V7.74167H10.0646V6.19375H12.3875ZM1.54792 4.64583H8.51667V5.41875H1.54792V4.64583ZM0.775 6.19375H9.28958V23.225H7.35417V19.7417C7.35417 19.6354 7.31667 19.5438 7.24167 19.4688C7.16667 19.3917 7.075 19.3542 6.96875 19.3542H3.09583C2.98958 19.3542 2.89792 19.3917 2.82292 19.4688C2.74792 19.5438 2.71042 19.6354 2.71042 19.7417V23.225H0.775V6.19375ZM5.41875 20.1292H6.58125V23.225H5.41875V20.1292ZM4.64583 23.225H3.48333V20.1292H4.64583V23.225ZM10.0646 23.225V16.2583H11.7479C11.6583 16.7708 11.6146 17.2854 11.6125 17.8063C11.6125 18.3604 11.6875 18.9042 11.8333 19.4375C11.9792 19.9708 12.1938 20.4771 12.475 20.9521C12.7563 21.4292 13.0958 21.8604 13.4917 22.2458C13.8896 22.6313 14.3292 22.9583 14.8146 23.225H10.0646ZM17.8063 23.225C17.45 23.225 17.0979 23.1896 16.75 23.1208C16.4 23.05 16.0625 22.9479 15.7333 22.8125C15.4042 22.675 15.0938 22.5083 14.7979 22.3104C14.5021 22.1125 14.2271 21.8875 13.9771 21.6375C13.725 21.3854 13.5 21.1125 13.3021 20.8167C13.1042 20.5208 12.9375 20.2083 12.8021 19.8792C12.6646 19.55 12.5625 19.2125 12.4917 18.8625C12.4229 18.5146 12.3875 18.1625 12.3875 17.8063C12.3875 17.225 12.4479 16.6479 12.5688 16.0792C12.6896 15.5104 12.8688 14.9604 13.1063 14.4292C13.3438 13.8958 13.6313 13.3958 13.975 12.925C14.3167 12.4542 14.7042 12.0229 15.1354 11.6333L15.4896 11.3146C15.7083 11.5125 15.9646 11.6125 16.2583 11.6125H19.3542C19.6479 11.6125 19.9042 11.5125 20.1229 11.3146L20.4771 11.6333C20.9083 12.0229 21.2958 12.4542 21.6375 12.925C21.9813 13.3958 22.2688 13.8958 22.5063 14.4292C22.7438 14.9604 22.9229 15.5104 23.0438 16.0792C23.1646 16.6479 23.225 17.225 23.225 17.8063C23.225 18.1625 23.1896 18.5146 23.1208 18.8625C23.05 19.2125 22.9479 19.55 22.8125 19.8792C22.675 20.2083 22.5083 20.5208 22.3104 20.8167C22.1125 21.1125 21.8875 21.3854 21.6375 21.6375C21.3854 21.8875 21.1125 22.1125 20.8167 22.3104C20.5208 22.5083 20.2083 22.675 19.8792 22.8125C19.55 22.9479 19.2125 23.05 18.8625 23.1208C18.5146 23.1896 18.1625 23.225 17.8063 23.225Z" fill="#404040"/>
<path d="M17.8062 13.1604C17.5271 13.1604 17.25 13.1896 16.975 13.2438C16.7021 13.2979 16.4354 13.3792 16.1771 13.4854C15.9187 13.5917 15.6729 13.7229 15.4417 13.8792C15.2083 14.0333 14.9937 14.2104 14.7958 14.4083C14.5979 14.6063 14.4208 14.8208 14.2667 15.0542C14.1104 15.2854 13.9792 15.5313 13.8729 15.7896C13.7646 16.0479 13.6854 16.3146 13.6292 16.5896C13.575 16.8625 13.5479 17.1396 13.5479 17.4188C13.5479 17.6979 13.575 17.975 13.6292 18.25C13.6854 18.525 13.7646 18.7896 13.8729 19.0479C13.9792 19.3063 14.1104 19.5521 14.2667 19.7854C14.4208 20.0167 14.5979 20.2333 14.7958 20.4313C14.9937 20.6271 15.2083 20.8042 15.4417 20.9604C15.6729 21.1146 15.9187 21.2458 16.1771 21.3542C16.4354 21.4604 16.7021 21.5417 16.975 21.5958C17.25 21.65 17.5271 21.6771 17.8062 21.6771C18.0854 21.6771 18.3625 21.65 18.6375 21.5958C18.9104 21.5417 19.1771 21.4604 19.4354 21.3542C19.6937 21.2458 19.9396 21.1146 20.1729 20.9604C20.4042 20.8042 20.6187 20.6271 20.8167 20.4313C21.0146 20.2333 21.1917 20.0167 21.3479 19.7854C21.5021 19.5521 21.6333 19.3063 21.7396 19.0479C21.8479 18.7896 21.9292 18.525 21.9833 18.25C22.0375 17.975 22.0646 17.6979 22.0646 17.4188C22.0646 17.1396 22.0375 16.8625 21.9812 16.5896C21.9271 16.3146 21.8458 16.0479 21.7396 15.7917C21.6312 15.5333 21.5 15.2875 21.3458 15.0542C21.1896 14.8229 21.0125 14.6083 20.8167 14.4104C20.6187 14.2125 20.4042 14.0354 20.1708 13.8813C19.9396 13.725 19.6937 13.5938 19.4354 13.4875C19.1771 13.3792 18.9104 13.2979 18.6375 13.2438C18.3625 13.1896 18.0854 13.1625 17.8062 13.1604ZM14.3229 17.4188C14.3229 17.2063 14.3417 16.9958 14.3812 16.7875C14.4208 16.5792 14.4771 16.375 14.5521 16.1771C14.6292 15.9792 14.7229 15.7896 14.8333 15.6083C14.9437 15.4271 15.0687 15.2563 15.2104 15.0979C15.3521 14.9396 15.5083 14.7958 15.675 14.6667C15.8437 14.5354 16.0208 14.4229 16.2104 14.325C16.3979 14.2271 16.5958 14.1479 16.7979 14.0875C17.0021 14.025 17.2083 13.9813 17.4187 13.9583V14.7646C17.2375 14.8125 17.0687 14.8896 16.9146 14.9979C16.7604 15.1063 16.6312 15.2375 16.525 15.3938C16.4208 15.55 16.3458 15.7188 16.3021 15.9021C16.2583 16.0854 16.2479 16.2688 16.2708 16.4563C16.2958 16.6438 16.3521 16.8188 16.4396 16.9854C16.5271 17.1521 16.6417 17.2979 16.7833 17.4208C16.925 17.5458 17.0833 17.6417 17.2604 17.7083C17.4354 17.7729 17.6187 17.8063 17.8062 17.8063C17.9083 17.8063 18.0083 17.8271 18.1021 17.8646C18.1979 17.9042 18.2812 17.9604 18.3542 18.0333C18.4271 18.1063 18.4833 18.1896 18.5208 18.2833C18.5604 18.3792 18.5812 18.4771 18.5812 18.5813C18.5812 18.6833 18.5604 18.7813 18.5208 18.8771C18.4833 18.9708 18.4271 19.0563 18.3542 19.1271C18.2812 19.2 18.1979 19.2563 18.1021 19.2958C18.0083 19.3354 17.9083 19.3542 17.8062 19.3542C17.7042 19.3542 17.6042 19.3354 17.5104 19.2958C17.4146 19.2563 17.3312 19.2 17.2583 19.1271C17.1854 19.0563 17.1312 18.9708 17.0917 18.8771C17.0521 18.7813 17.0312 18.6833 17.0312 18.5813H16.2583C16.2583 18.7521 16.2875 18.9188 16.3437 19.0792C16.3979 19.2417 16.4792 19.3896 16.5833 19.525C16.6896 19.6604 16.8125 19.775 16.9562 19.8688C17.1 19.9625 17.2542 20.0313 17.4187 20.075V20.8813C17.2083 20.8563 17.0021 20.8146 16.7979 20.7521C16.5958 20.6896 16.3979 20.6104 16.2104 20.5146C16.0208 20.4167 15.8437 20.3021 15.675 20.1729C15.5083 20.0417 15.3521 19.8979 15.2104 19.7396C15.0687 19.5813 14.9437 19.4125 14.8333 19.2313C14.7229 19.05 14.6292 18.8604 14.5521 18.6625C14.4771 18.4625 14.4208 18.2604 14.3812 18.05C14.3417 17.8417 14.3229 17.6313 14.3229 17.4188ZM18.1937 20.8813V20.075C18.375 20.0271 18.5437 19.95 18.6979 19.8417C18.8521 19.7333 18.9812 19.6 19.0875 19.4458C19.1937 19.2896 19.2667 19.1208 19.3104 18.9375C19.3542 18.7542 19.3646 18.5688 19.3417 18.3833C19.3167 18.1958 19.2625 18.0188 19.1729 17.8521C19.0854 17.6875 18.9708 17.5417 18.8292 17.4167C18.6875 17.2938 18.5292 17.1979 18.3521 17.1313C18.1771 17.0646 17.9937 17.0313 17.8062 17.0313C17.7042 17.0313 17.6042 17.0125 17.5104 16.9729C17.4146 16.9333 17.3312 16.8771 17.2583 16.8063C17.1854 16.7333 17.1312 16.65 17.0917 16.5542C17.0521 16.4604 17.0312 16.3604 17.0312 16.2583C17.0312 16.1563 17.0521 16.0563 17.0917 15.9625C17.1312 15.8667 17.1854 15.7833 17.2583 15.7104C17.3312 15.6375 17.4146 15.5813 17.5104 15.5438C17.6042 15.5042 17.7042 15.4833 17.8062 15.4833C17.9083 15.4833 18.0083 15.5042 18.1021 15.5438C18.1979 15.5813 18.2812 15.6375 18.3542 15.7104C18.4271 15.7833 18.4833 15.8667 18.5208 15.9625C18.5604 16.0563 18.5812 16.1563 18.5812 16.2583H19.3542C19.3542 16.0875 19.325 15.9208 19.2708 15.7583C19.2146 15.5979 19.1333 15.4479 19.0292 15.3125C18.9229 15.1792 18.8 15.0646 18.6562 14.9688C18.5146 14.875 18.3583 14.8083 18.1937 14.7646V13.9583C18.4042 13.9833 18.6104 14.025 18.8125 14.0875C19.0167 14.15 19.2125 14.2292 19.4 14.3271C19.5875 14.425 19.7667 14.5375 19.9333 14.6688C20.1 14.7979 20.2542 14.9438 20.3958 15.1C20.5375 15.2583 20.6625 15.4292 20.7729 15.6104C20.8833 15.7917 20.975 15.9813 21.05 16.1792C21.1271 16.3771 21.1833 16.5813 21.2208 16.7896C21.2604 16.9979 21.2792 17.2083 21.2792 17.4188C21.2792 17.6313 21.2604 17.8417 21.2208 18.05C21.1833 18.2583 21.1271 18.4625 21.05 18.6604C20.975 18.8583 20.8833 19.0479 20.7729 19.2292C20.6625 19.4104 20.5375 19.5792 20.3958 19.7375C20.2542 19.8958 20.1 20.0396 19.9333 20.1708C19.7667 20.3 19.5875 20.4146 19.4 20.5125C19.2125 20.6083 19.0167 20.6896 18.8125 20.7521C18.6104 20.8125 18.4042 20.8563 18.1937 20.8813Z" fill="#404040"/>
<path d="M12.775 4.64583H16.6458C16.7521 4.64583 16.8438 4.60833 16.9188 4.53125C16.9938 4.45625 17.0313 4.36458 17.0313 4.25833V1.93541C17.0313 1.82916 16.9938 1.7375 16.9188 1.6625C16.8438 1.58541 16.7521 1.54791 16.6458 1.54791H12.775C12.6667 1.54791 12.5771 1.58541 12.5 1.6625C12.425 1.7375 12.3875 1.82916 12.3875 1.93541V4.25833C12.3875 4.36458 12.425 4.45625 12.5 4.53125C12.5771 4.60833 12.6667 4.64583 12.775 4.64583ZM13.1604 2.32291H16.2583V3.87083H13.1604V2.32291Z" fill="#404040"/>
</g>
<defs>
<clipPath id="clip0_438_698">
<rect width="24" height="24" fill="white"/>
</clipPath>
</defs>
</svg>
