<svg width="24" height="24" viewBox="0 0 24 24" fill="none" xmlns="http://www.w3.org/2000/svg">
<g clip-path="url(#clip0_105_224)">
<path d="M13.2792 11.3043C13.3729 11.3043 13.4562 11.2647 13.5146 11.2043C13.5312 11.2043 13.5458 11.2064 13.5604 11.2064C13.5792 11.2064 13.5979 11.2064 13.6167 11.2043C13.7187 11.2001 13.8167 11.1793 13.9021 11.1439C13.9979 11.1022 14.0437 10.9918 14.0042 10.8939C13.9625 10.798 13.8521 10.7501 13.7562 10.7918C13.7437 10.796 13.7271 10.8001 13.7125 10.8043C13.7167 10.8001 13.7208 10.796 13.725 10.7918C13.7875 10.7085 13.7708 10.5876 13.6875 10.5251C13.6021 10.4626 13.4833 10.4793 13.4208 10.5626C13.4146 10.573 13.4062 10.5814 13.3979 10.5876C13.3458 10.6314 13.275 10.6335 13.2562 10.6335C13.225 10.6335 13.1979 10.6418 13.1729 10.6564C13.0417 10.7001 12.95 10.8251 12.95 10.971C12.95 11.1564 13.0958 11.3043 13.2792 11.3043Z" fill="#404040"/>
<path d="M12.1417 17.7936C12.1417 17.8457 12.1229 17.8915 12.0854 17.929C12.05 17.9665 12.0042 17.9853 11.9521 17.9853C11.9 17.9853 11.8563 17.9665 11.8188 17.929C11.7813 17.8915 11.7646 17.8457 11.7646 17.7936C11.7646 17.7415 11.7813 17.6957 11.8188 17.6582C11.8563 17.6228 11.9 17.604 11.9521 17.604C12.0042 17.604 12.05 17.6228 12.0854 17.6582C12.1229 17.6957 12.1417 17.7415 12.1417 17.7936Z" fill="#404040"/>
<path d="M12.1417 19.5729C12.1417 19.625 12.1229 19.6708 12.0854 19.7083C12.05 19.7458 12.0042 19.7625 11.9521 19.7625C11.9 19.7625 11.8563 19.7458 11.8188 19.7083C11.7813 19.6708 11.7646 19.625 11.7646 19.5729C11.7646 19.5208 11.7813 19.475 11.8188 19.4375C11.8563 19.4021 11.9 19.3833 11.9521 19.3833C12.0042 19.3833 12.05 19.4021 12.0854 19.4375C12.1229 19.475 12.1417 19.5208 12.1417 19.5729Z" fill="#404040"/>
<path d="M10.7333 10.6564C10.7083 10.6418 10.6792 10.6335 10.65 10.6335C10.6292 10.6335 10.5604 10.6314 10.5083 10.5897C10.4979 10.5814 10.4896 10.573 10.4833 10.5626C10.4208 10.4793 10.3021 10.4626 10.2187 10.5251C10.1354 10.5876 10.1187 10.7085 10.1812 10.7918C10.1854 10.796 10.1896 10.8022 10.1937 10.8064C10.1771 10.8022 10.1625 10.798 10.1542 10.7939C10.0583 10.7501 9.94583 10.7939 9.90416 10.8897C9.86249 10.9855 9.90416 11.098 9.99999 11.1418C10.0812 11.1772 10.1771 11.198 10.2875 11.2022C10.3062 11.2043 10.3229 11.2043 10.3437 11.2043C10.3583 11.2043 10.3729 11.2022 10.3875 11.2022C10.4479 11.2647 10.5312 11.3043 10.625 11.3043C10.8083 11.3043 10.9562 11.1564 10.9562 10.971C10.9562 10.8251 10.8625 10.7022 10.7333 10.6564Z" fill="#404040"/>
<path d="M9.98751 9.92932C10.025 9.92932 10.0646 9.9189 10.0958 9.8939C10.3479 9.71682 10.7271 9.77515 10.7375 9.77724C10.8417 9.79599 10.9375 9.72724 10.9563 9.62307C10.9729 9.5189 10.9042 9.42099 10.8021 9.40224C10.7792 9.39807 10.2625 9.31265 9.87917 9.58349C9.79376 9.6439 9.77292 9.76265 9.83334 9.84807C9.87084 9.90015 9.92917 9.92932 9.98751 9.92932Z" fill="#404040"/>
<path d="M10.9604 12.3477C11.0417 12.4977 11.1771 12.6039 11.3396 12.6519C11.5438 12.7081 11.75 12.7394 11.9563 12.7394C12.1625 12.7394 12.3708 12.7081 12.5729 12.6519C12.7354 12.606 12.8708 12.4977 12.9521 12.3498C13.0354 12.1998 13.0563 12.0289 13.0104 11.8644C12.9313 11.5914 12.6813 11.4019 12.4 11.4019C12.3417 11.4019 12.2854 11.4102 12.2292 11.4248C12.0479 11.4769 11.8625 11.4769 11.6875 11.4248C11.6313 11.4102 11.5708 11.4019 11.5125 11.4019C11.2292 11.4019 10.9792 11.5914 10.9042 11.8644C10.8583 12.0269 10.8771 12.1998 10.9604 12.3477ZM11.2688 11.9685C11.3 11.8581 11.4 11.7831 11.5125 11.7831C11.5354 11.7831 11.5604 11.7852 11.5833 11.7914C11.8271 11.8623 12.0813 11.8623 12.3313 11.7914C12.4667 11.7539 12.6083 11.8352 12.6458 11.9685C12.6646 12.0352 12.6563 12.1039 12.6229 12.1623C12.5896 12.2227 12.5354 12.2664 12.4708 12.2852C12.1313 12.381 11.7813 12.381 11.4417 12.2852C11.3771 12.2664 11.3229 12.2227 11.2896 12.1623C11.2583 12.1039 11.25 12.0352 11.2688 11.9685Z" fill="#404040"/>
<path d="M0.893746 9.85H2.65833C2.7625 9.85 2.84791 9.76458 2.84791 9.65833C2.84791 9.55417 2.7625 9.46875 2.65833 9.46875H0.893746C0.78958 9.46875 0.704163 9.55417 0.704163 9.65833C0.704163 9.76458 0.78958 9.85 0.893746 9.85Z" fill="#404040"/>
<path d="M4.57916 10.4873H0.893746C0.78958 10.4873 0.704163 10.5727 0.704163 10.6769C0.704163 10.7831 0.78958 10.8686 0.893746 10.8686H4.57916C4.68333 10.8686 4.76666 10.7831 4.76666 10.6769C4.76666 10.5727 4.68333 10.4873 4.57916 10.4873Z" fill="#404040"/>
<path d="M4.16042 3.08955C4.26458 3.08955 4.35 3.00413 4.35 2.89788V2.41663C4.35 2.31247 4.26458 2.22705 4.16042 2.22705C4.05625 2.22705 3.97083 2.31247 3.97083 2.41663V2.89788C3.97083 3.00413 4.05625 3.08955 4.16042 3.08955Z" fill="#404040"/>
<path d="M5.08958 3.08955C5.19374 3.08955 5.27708 3.00413 5.27708 2.89788V2.41663C5.27708 2.31247 5.19374 2.22705 5.08958 2.22705C4.98541 2.22705 4.89999 2.31247 4.89999 2.41663V2.89788C4.89999 3.00413 4.98541 3.08955 5.08958 3.08955Z" fill="#404040"/>
<path d="M5.74584 3.56682C5.79792 3.47516 5.76667 3.36057 5.67917 3.30849C5.58959 3.25432 5.475 3.28349 5.42083 3.37307C5.41042 3.38766 5.19584 3.73141 4.625 3.73141C4.05417 3.73141 3.8375 3.38766 3.83125 3.37516C3.77709 3.28349 3.6625 3.25224 3.57083 3.30641C3.48125 3.35849 3.45 3.47516 3.50417 3.56682C3.51667 3.58766 3.82917 4.11266 4.625 4.11266C5.42083 4.11266 5.73334 3.58766 5.74584 3.56682Z" fill="#404040"/>
<path d="M7.55833 3.08955C7.66249 3.08955 7.74791 3.00413 7.74791 2.89788V2.41663C7.74791 2.31247 7.66249 2.22705 7.55833 2.22705C7.45416 2.22705 7.36874 2.31247 7.36874 2.41663V2.89788C7.36874 3.00413 7.45416 3.08955 7.55833 3.08955Z" fill="#404040"/>
<path d="M8.4875 3.08955C8.59166 3.08955 8.675 3.00413 8.675 2.89788V2.41663C8.675 2.31247 8.59166 2.22705 8.4875 2.22705C8.38333 2.22705 8.29791 2.31247 8.29791 2.41663V2.89788C8.29791 3.00413 8.38333 3.08955 8.4875 3.08955Z" fill="#404040"/>
<path d="M6.96875 4.03769C7.05833 4.09186 7.17292 4.0627 7.22708 3.97311C7.23542 3.95853 7.45208 3.6127 8.02292 3.6127C8.59375 3.6127 8.80833 3.95853 8.81667 3.97103C8.85208 4.03145 8.91458 4.06686 8.98125 4.06686C9.0125 4.06686 9.04583 4.05853 9.075 4.03978C9.16458 3.98769 9.19583 3.87103 9.14375 3.78145C9.13125 3.75853 8.81875 3.23145 8.02292 3.23145C7.225 3.23145 6.91458 3.75853 6.90208 3.78145C6.85 3.87103 6.87917 3.98561 6.96875 4.03769Z" fill="#404040"/>
<mask id="mask0_105_224" style="mask-type:luminance" maskUnits="userSpaceOnUse" x="0" y="0" width="24" height="24">
<path d="M0 0.0874023H24V23.9999H0V0.0874023Z" fill="white"/>
</mask>
<g mask="url(#mask0_105_224)">
<path d="M23.4646 13.5998C23.0875 13.204 22.5312 13.054 22.0167 13.2019L21.2562 12.3998C21.3583 11.8331 21.4125 11.254 21.4125 10.6769C21.4125 7.91023 20.2292 5.30398 18.1604 3.49148C18.8208 2.7144 19.0187 2.07273 19.0646 1.6644C19.1062 1.31648 18.9917 0.9644 18.7479 0.697734L18.3958 0.316484C18.2667 0.1769 18.0917 0.0956505 17.9021 0.0873166C17.7125 0.081067 17.5333 0.147734 17.3937 0.2769L17.0187 0.628984C16.8729 0.768567 16.7937 0.953983 16.7937 1.1519C16.7937 1.33107 16.8604 1.5019 16.9833 1.63523C17.0833 1.74565 17.1062 1.90398 17.0417 2.0394C16.9875 2.15398 16.8979 2.3144 16.7771 2.48107C15.3208 1.60815 13.6562 1.14773 11.9521 1.14773C11.0771 1.14773 10.2104 1.27065 9.37292 1.51023C8.99166 1.19982 8.51875 1.02898 8.02291 1.02898C7.35833 1.02898 6.73125 1.34148 6.325 1.8644C5.91875 1.34148 5.29167 1.02898 4.625 1.02898C3.4375 1.02898 2.47083 2.0019 2.47083 3.19773C2.47083 4.21232 3.18125 5.08523 4.13958 5.31023C3.52917 6.21023 3.08333 7.19148 2.81041 8.23523H1.14166C0.533331 8.23523 0.0395813 8.73315 0.0395813 9.34357V11.6311C0.0395813 12.2415 0.533331 12.7394 1.14166 12.7394H2.71666C3.05208 14.2727 3.75625 15.6894 4.77291 16.8811C4.75 16.879 4.72708 16.8748 4.70208 16.8748C4.51042 16.8748 4.33958 16.9686 4.23333 17.1186L3.70416 16.9561C3.35208 16.8477 2.98125 17.0373 2.86041 17.3873C2.83541 17.4561 2.82292 17.5331 2.82292 17.6123C2.82292 17.8769 2.97708 18.1206 3.2125 18.2331L4.54791 18.8706C4.85208 19.0165 5.05 19.329 5.05 19.6706V23.8956C5.05 24.0019 5.13333 24.0873 5.2375 24.0873C5.34375 24.0873 5.42708 24.0019 5.42708 23.8956V19.6706C5.42708 19.1831 5.14583 18.7331 4.70833 18.5269L3.375 17.8873C3.27083 17.8373 3.20208 17.729 3.20208 17.6123C3.20208 17.5769 3.20625 17.5436 3.21875 17.5144C3.27291 17.3581 3.4375 17.2727 3.59375 17.3207L4.12917 17.4831C4.14166 17.7061 4.28125 17.9123 4.49791 17.9956L5.57292 18.4102C5.66875 18.4477 5.77917 18.3977 5.81666 18.2998C5.85416 18.2019 5.80416 18.0915 5.70625 18.054L4.63333 17.6394C4.5375 17.604 4.48333 17.4977 4.5125 17.3998C4.5375 17.3144 4.61458 17.2561 4.70416 17.2561C4.725 17.2561 4.74375 17.2581 4.75833 17.2644L6.47083 17.779C6.91458 17.9123 7.225 18.3331 7.225 18.7977V22.6998C7.225 22.6998 7.225 22.6998 7.225 22.7019V23.8956C7.225 24.0019 7.31041 24.0873 7.41458 24.0873C7.51875 24.0873 7.60416 24.0019 7.60416 23.8956V23.1394C7.79583 23.2706 8.01875 23.3623 8.28333 23.4206V23.8956C8.28333 24.0019 8.36666 24.0873 8.47083 24.0873C8.575 24.0873 8.66041 24.0019 8.66041 23.8956V19.8748C8.66041 19.7706 8.575 19.6852 8.47083 19.6852C8.36666 19.6852 8.28333 19.7706 8.28333 19.8748V22.2019C8.01458 22.079 7.78958 21.9165 7.60416 21.7144V19.8352C8.42291 18.3519 9.46667 17.5602 10.2417 17.1498L10.8667 17.8602C10.9042 17.9019 10.9542 17.9248 11.0083 17.9248C11.0146 17.9248 11.0229 17.9248 11.0292 17.9248C11.0896 17.9186 11.1437 17.8811 11.1729 17.829L11.1833 17.8123V20.8165C11.1833 20.9206 11.2667 21.0061 11.3729 21.0061H12.5333C12.6375 21.0061 12.7229 20.9206 12.7229 20.8165V17.8123L12.7312 17.829C12.7625 17.8831 12.8167 17.9186 12.8771 17.9248C12.8833 17.9248 12.8896 17.9248 12.8958 17.9248C12.95 17.9248 13.0021 17.9019 13.0375 17.8602L13.6625 17.1498C14.4396 17.5602 15.4812 18.3519 16.3021 19.8331V21.7144C16.1208 21.9144 15.8937 22.079 15.6229 22.2019V19.8748C15.6229 19.7706 15.5375 19.6852 15.4333 19.6852C15.3292 19.6852 15.2437 19.7706 15.2437 19.8748V23.8956C15.2437 24.0019 15.3292 24.0873 15.4333 24.0873C15.5375 24.0873 15.6229 24.0019 15.6229 23.8956V23.4206C15.8875 23.3623 16.1104 23.2706 16.3021 23.1394V23.8956C16.3021 24.0019 16.3854 24.0873 16.4896 24.0873C16.5958 24.0873 16.6792 24.0019 16.6792 23.8956V19.7956C16.6792 19.7915 16.6812 19.7894 16.6812 19.7852C16.6812 19.7831 16.6792 19.7811 16.6792 19.779V18.7977C16.6792 18.3331 16.9896 17.9123 17.4333 17.779L19.15 17.2623C19.1625 17.2581 19.1812 17.2561 19.2021 17.2561C19.2917 17.2561 19.3687 17.3144 19.3937 17.3998C19.4208 17.4977 19.3687 17.604 19.2729 17.6394L18.1979 18.054C18.1 18.0915 18.0521 18.2019 18.0896 18.2998C18.1271 18.3977 18.2354 18.4477 18.3333 18.4102L19.4062 17.9956C19.625 17.9123 19.7646 17.7061 19.7771 17.4831L20.3125 17.3207C20.4687 17.2727 20.6333 17.3561 20.6875 17.5144C20.6979 17.5436 20.7042 17.5769 20.7042 17.6123C20.7042 17.729 20.6354 17.8373 20.5292 17.8873L19.1979 18.5269C18.7604 18.7331 18.4771 19.1831 18.4771 19.6706V23.8956C18.4771 24.0019 18.5625 24.0873 18.6667 24.0873C18.7708 24.0873 18.8562 24.0019 18.8562 23.8956V19.6706C18.8562 19.329 19.0542 19.0165 19.3583 18.8706L20.6917 18.2331C20.9292 18.1206 21.0812 17.8769 21.0812 17.6123C21.0812 17.5331 21.0687 17.4561 21.0437 17.3873C20.9229 17.0373 20.5521 16.8477 20.2021 16.9561L19.6708 17.1165C19.5667 16.9686 19.3937 16.8748 19.2021 16.8748C19.1771 16.8748 19.1521 16.8769 19.1292 16.8811C19.8687 16.0123 20.45 15.0102 20.8375 13.9394L21.0333 14.1456C20.8646 14.6581 20.9875 15.2248 21.3625 15.6227C21.6396 15.9165 22.0187 16.0748 22.4083 16.0748C22.5521 16.0748 22.6958 16.054 22.8375 16.0102C22.9229 15.9831 22.9792 15.9019 22.9708 15.8123C22.9646 15.7227 22.8958 15.6498 22.8083 15.6394C22.7167 15.6269 22.5854 15.5894 22.4771 15.4748C22.2708 15.2561 22.2792 14.9081 22.4958 14.6977C22.7125 14.4894 23.0604 14.4977 23.2687 14.7144C23.3542 14.8061 23.4062 14.9248 23.4167 15.054C23.4229 15.1436 23.4917 15.2165 23.5792 15.229C23.6687 15.2394 23.7521 15.1873 23.7833 15.1019C23.9667 14.579 23.8458 14.0019 23.4646 13.5998ZM17.3812 2.20607C17.5167 1.93107 17.4687 1.60398 17.2604 1.3769C17.2042 1.3144 17.1708 1.23315 17.1708 1.1519C17.1708 1.05815 17.2104 0.97065 17.2771 0.906067L17.6521 0.556067C17.7167 0.49565 17.8021 0.466484 17.8875 0.468567C17.9771 0.472734 18.0583 0.510233 18.1187 0.574817L18.4708 0.95815C18.6375 1.1394 18.7187 1.38107 18.6896 1.61857C18.6458 1.99982 18.4479 2.61232 17.7542 3.37898V3.38107C17.6375 3.50815 17.5083 3.64148 17.3542 3.78315C16.3542 4.71857 15.5833 4.94148 15.1125 4.9644C14.875 4.97482 14.6417 4.87898 14.475 4.69773L14.1208 4.31232C14.0625 4.24773 14.0312 4.1644 14.0333 4.07482C14.0375 3.98732 14.0729 3.90398 14.1396 3.84357L14.5125 3.49357C14.5771 3.43315 14.6583 3.40398 14.7375 3.40398C14.8271 3.40398 14.9146 3.4394 14.9792 3.51023C15.1833 3.73107 15.5083 3.80815 15.7896 3.69357C16.1562 3.54565 16.4729 3.34773 16.7312 3.10607C16.8125 3.02898 16.8937 2.94565 16.9687 2.85398C17.1708 2.61232 17.3042 2.36648 17.3812 2.20607ZM8.02291 1.40815C8.46041 1.40815 8.87917 1.56857 9.20208 1.86232C9.20416 1.86232 9.20625 1.86232 9.20625 1.8644C9.58333 2.20398 9.79792 2.6894 9.79792 3.19773C9.79792 4.18523 9.00208 4.98732 8.02291 4.98732C7.425 4.98732 6.86875 4.67898 6.54167 4.17898C6.69375 3.87898 6.77917 3.54148 6.77917 3.19773C6.77917 2.85398 6.69375 2.51857 6.54167 2.21648C6.87083 1.71648 7.42708 1.40815 8.02291 1.40815ZM2.84791 3.19773C2.84791 2.21232 3.64583 1.40815 4.625 1.40815C5.25 1.40815 5.83333 1.74357 6.15208 2.28315C6.15416 2.2894 6.15833 2.29357 6.16042 2.29982C6.31875 2.56857 6.40208 2.87898 6.40208 3.19773C6.40208 3.51648 6.31875 3.8269 6.16042 4.09773C5.84375 4.64773 5.25416 4.98732 4.625 4.98732C4.575 4.98732 4.52708 4.98523 4.48125 4.98315C3.56458 4.90607 2.84791 4.12273 2.84791 3.19773ZM0.418748 11.6311V9.34357C0.418748 8.94357 0.741665 8.61648 1.14166 8.61648H4.42291C4.82083 8.61648 5.14583 8.94357 5.14583 9.34357V11.6831C5.14583 11.7436 5.17291 11.7998 5.22083 11.8352C5.44166 12.0019 5.69792 12.1957 5.91042 12.3581H1.14166C0.741665 12.3581 0.418748 12.0311 0.418748 11.6311ZM11.6979 16.4811L11.2542 15.929V15.6561C11.4896 15.7123 11.7229 15.7415 11.9521 15.7415C12.1833 15.7415 12.4167 15.7123 12.65 15.6561V15.9311L12.2083 16.4811H11.6979ZM13.5042 16.1957C13.3812 16.0561 13.2229 15.9456 13.0292 15.8665V15.5331C13.9042 15.204 14.6271 14.5394 15.0042 13.9686C15.1604 14.2061 15.2437 14.4831 15.2437 14.7727C15.2437 15.5748 14.5958 16.229 13.8 16.229C13.7021 16.229 13.6021 16.2165 13.5042 16.1957ZM15.7458 11.3665C16.025 11.5519 16.1354 11.9811 15.9875 12.3852C15.8854 12.6665 15.675 12.8769 15.4437 12.9498C15.5729 12.4956 15.6771 11.9581 15.7458 11.3665ZM8.4625 12.9498C8.23125 12.8769 8.02083 12.6665 7.91667 12.3852C7.77083 11.9811 7.88125 11.5519 8.16041 11.3665C8.22917 11.9581 8.33125 12.4956 8.4625 12.9498ZM8.90625 13.1019C8.73125 12.5915 8.59583 11.904 8.51667 11.1561C9.35 10.1769 9.9625 9.09357 10.3396 7.9269C10.5062 8.39773 10.8354 8.98732 11.4917 9.4144C12.2729 9.92273 12.9187 9.99565 13.4375 10.0561C13.7354 10.0894 13.9937 10.1186 14.2354 10.2165C14.8 10.4436 15.2583 10.9873 15.3896 11.154C15.3104 11.8956 15.175 12.579 15.0042 13.0873C15.0042 13.0894 15.0021 13.0915 15.0021 13.0915C15.0021 13.0956 15 13.0977 15 13.1019C14.9396 13.279 14.8792 13.4248 14.8125 13.5498C14.7917 13.5915 14.7729 13.629 14.75 13.6665C14.425 14.2081 13.6708 14.9269 12.7792 15.2227C12.2229 15.4061 11.6812 15.4061 11.125 15.2227C10.2333 14.9269 9.47917 14.2081 9.15625 13.6665C9.06875 13.5227 8.98541 13.3311 8.90625 13.1019ZM11.5604 20.6269V17.1373L11.7167 16.8623H12.1896L12.3437 17.1373V20.6269H11.5604ZM17.325 17.4123C16.7229 17.5956 16.3021 18.1665 16.3021 18.7977V19.0998C15.4792 17.854 14.5146 17.1623 13.7875 16.7852C13.775 16.7227 13.7583 16.6623 13.7396 16.6061C13.7604 16.6061 13.7812 16.6081 13.8 16.6081C14.8042 16.6081 15.6229 15.7852 15.6229 14.7727C15.6229 14.3436 15.475 13.9352 15.2062 13.6061C15.2417 13.529 15.2771 13.4456 15.3104 13.3561C15.7521 13.3352 16.1625 13.0102 16.3437 12.5165C16.5667 11.8998 16.3437 11.2311 15.8479 10.9873C16.2875 9.9519 16.1229 8.37065 15.4312 7.19148C14.6875 5.9269 13.4521 5.22898 11.9521 5.22898C10.4542 5.22898 9.21875 5.9269 8.475 7.19148C7.78333 8.37065 7.61875 9.9519 8.05833 10.9873C7.56041 11.2311 7.33958 11.8977 7.5625 12.5165C7.74375 13.0102 8.15416 13.3352 8.59583 13.3561C8.67083 13.554 8.75 13.7248 8.83125 13.8623C9.18542 14.4561 9.94792 15.1831 10.8771 15.5331L10.875 15.8665C10.4562 16.0394 10.2021 16.3477 10.1187 16.7852C9.38958 17.1623 8.42708 17.854 7.60416 19.1019V18.7977C7.60416 18.1665 7.18333 17.5956 6.57917 17.4123L5.46666 17.079C4.28958 15.8706 3.47708 14.3748 3.10416 12.7394H6.47708C6.55833 12.7394 6.63125 12.6852 6.65625 12.6081C6.68125 12.5311 6.65625 12.4456 6.58958 12.3956C6.58958 12.3956 5.99791 11.9457 5.52291 11.5873V9.34357C5.52291 8.73315 5.02916 8.23523 4.42291 8.23523H3.20208C3.48125 7.20815 3.9375 6.24565 4.56041 5.36648C4.58333 5.36648 4.60416 5.36857 4.625 5.36857C5.29167 5.36857 5.91875 5.05398 6.32292 4.53107C6.72917 5.05398 7.35625 5.36857 8.02291 5.36857C9.21041 5.36857 10.1771 4.39565 10.1771 3.19773C10.1771 2.69148 9.99792 2.20607 9.68333 1.81857C10.4229 1.6269 11.1833 1.52898 11.9521 1.52898C13.5667 1.52898 15.1417 1.96023 16.5271 2.77482C16.5083 2.79148 16.4917 2.81023 16.4729 2.8269C16.25 3.03732 15.9729 3.21023 15.65 3.34148C15.5104 3.39773 15.3562 3.35815 15.2562 3.2519C14.9917 2.96232 14.5417 2.94565 14.2562 3.2144L13.8812 3.5644C13.7417 3.69565 13.6625 3.87065 13.6562 4.06232C13.6479 4.25398 13.7167 4.43523 13.8458 4.57273L14.1979 4.95815C14.4292 5.20607 14.7458 5.34773 15.0792 5.34773C15.0958 5.34773 15.1125 5.34773 15.1312 5.34565C15.6646 5.31857 16.5292 5.07482 17.6125 4.06232C17.7208 3.96232 17.8167 3.86648 17.9062 3.77273C19.8958 5.5144 21.0354 8.01857 21.0354 10.6769C21.0354 11.1394 20.9979 11.5998 20.9312 12.0561L19.675 10.7331C19.8458 10.2206 19.7229 9.65398 19.3458 9.25607C18.9667 8.85607 18.4021 8.70607 17.8708 8.86857C17.7854 8.89565 17.7292 8.9769 17.7375 9.06648C17.7458 9.15607 17.8125 9.22898 17.9021 9.2394C18.0312 9.25607 18.1458 9.3144 18.2312 9.40398C18.4396 9.62273 18.4312 9.97065 18.2125 10.1811C17.9958 10.3915 17.65 10.3811 17.4396 10.1623C17.3562 10.0727 17.3042 9.95398 17.2958 9.82898C17.2896 9.73732 17.2208 9.6644 17.1333 9.6519C17.0437 9.6394 16.9583 9.69148 16.9292 9.7769C16.7437 10.3019 16.8646 10.8769 17.2437 11.279C17.6208 11.6748 18.1771 11.8248 18.6937 11.6769L20.5458 13.6331C20.1125 14.9165 19.3854 16.104 18.4375 17.079L17.325 17.4123ZM22.2354 14.4227C21.8937 14.754 21.8583 15.2873 22.1354 15.6581C21.95 15.6081 21.775 15.5061 21.6375 15.3602C21.3354 15.0436 21.2542 14.579 21.4271 14.179C21.4583 14.1081 21.4437 14.0269 21.3917 13.9706L20.9021 13.454L18.8854 11.3269C18.8333 11.2706 18.7521 11.254 18.6812 11.2811C18.275 11.4373 17.8187 11.3331 17.5187 11.0165C17.3792 10.8686 17.2875 10.6894 17.2458 10.4998C17.6021 10.7977 18.1333 10.7852 18.475 10.4561C18.8167 10.1269 18.8521 9.59148 18.5729 9.22065C18.7604 9.27065 18.9333 9.37273 19.0729 9.52065C19.3729 9.83523 19.4562 10.2998 19.2833 10.6998C19.2521 10.7706 19.2667 10.8519 19.3187 10.9081L20.9146 12.5894C20.9187 12.5936 20.9229 12.5977 20.9271 12.6019L21.8271 13.5519C21.8792 13.6081 21.9604 13.6248 22.0312 13.5977C22.4354 13.4436 22.8917 13.5477 23.1917 13.8623C23.3312 14.0102 23.4229 14.1894 23.4646 14.379C23.1083 14.0811 22.5771 14.0936 22.2354 14.4227Z" fill="#404040"/>
</g>
<path d="M3.79583 16.7147C3.83333 16.7147 3.87291 16.7022 3.90625 16.6793C3.98958 16.6168 4.01041 16.498 3.95 16.4126C3.375 15.6022 2.92916 14.7126 2.61875 13.7689C2.5875 13.6689 2.47916 13.6147 2.38125 13.648C2.28125 13.6814 2.22708 13.7876 2.26041 13.8876C2.58125 14.8689 3.04583 15.7918 3.64166 16.6334C3.67916 16.6855 3.7375 16.7147 3.79583 16.7147Z" fill="#404040"/>
<path d="M21.4125 8.00832C21.4354 8.09374 21.5125 8.1479 21.5938 8.1479C21.6104 8.1479 21.6292 8.14582 21.6458 8.14165C21.7458 8.11249 21.8042 8.00832 21.7771 7.90624C21.4229 6.63124 20.8354 5.45415 20.0313 4.40415C19.9667 4.32082 19.8479 4.30624 19.7667 4.37082C19.6833 4.4354 19.6688 4.55415 19.7313 4.63748C20.5063 5.6479 21.0729 6.78124 21.4125 8.00832Z" fill="#404040"/>
<mask id="mask1_105_224" style="mask-type:luminance" maskUnits="userSpaceOnUse" x="9" y="0" width="6" height="2">
<path d="M9.60001 0.0874023H14.4V1.06657H9.60001V0.0874023Z" fill="white"/>
</mask>
<g mask="url(#mask1_105_224)">
<path d="M10.0958 0.960547C11.3271 0.727214 12.5792 0.727214 13.8083 0.960547C13.8208 0.962631 13.8313 0.962631 13.8438 0.962631C13.9333 0.962631 14.0125 0.90013 14.0292 0.808464C14.0479 0.704297 13.9813 0.60638 13.8792 0.585547C12.6021 0.34388 11.3021 0.34388 10.0271 0.585547C9.925 0.60638 9.85625 0.704297 9.875 0.808464C9.89583 0.912631 9.99375 0.979297 10.0958 0.960547Z" fill="#404040"/>
</g>
<path d="M18.4875 16.2854C19.1375 15.5145 19.6458 14.6458 19.9979 13.702C20.0333 13.6041 19.9854 13.4937 19.8875 13.4562C19.7896 13.4208 19.6812 13.4708 19.6437 13.5687C19.3083 14.4708 18.8208 15.302 18.2 16.0374C18.1312 16.1187 18.1417 16.2374 18.2208 16.3062C18.2562 16.3374 18.3 16.352 18.3437 16.352C18.3979 16.352 18.45 16.3291 18.4875 16.2854Z" fill="#404040"/>
<path d="M4.89792 5.74988C4.50625 6.31863 4.18125 6.9353 3.93334 7.5853C3.89584 7.6853 3.94375 7.79363 4.04167 7.83321C4.06459 7.84155 4.0875 7.84571 4.11042 7.84571C4.18542 7.84571 4.25625 7.7978 4.28542 7.7228C4.52292 7.10196 4.83334 6.5103 5.20834 5.96655C5.26667 5.88113 5.24584 5.76238 5.16042 5.70196C5.075 5.64155 4.95625 5.66238 4.89792 5.74988Z" fill="#404040"/>
</g>
<defs>
<clipPath id="clip0_105_224">
<rect width="24" height="24" fill="white"/>
</clipPath>
</defs>
</svg>
