<svg width="24" height="24" viewBox="0 0 24 24" fill="none" xmlns="http://www.w3.org/2000/svg">
<g clip-path="url(#clip0_1061_3553)">
<path d="M13.2784 11.3053C13.3721 11.3053 13.4555 11.2657 13.5138 11.2053C13.5305 11.2053 13.5451 11.2073 13.5596 11.2073C13.5784 11.2073 13.5971 11.2073 13.6159 11.2053C13.718 11.2011 13.8159 11.1803 13.9013 11.1448C13.9971 11.1032 14.043 10.9928 14.0034 10.8948C13.9617 10.799 13.8513 10.7511 13.7555 10.7928C13.743 10.7969 13.7263 10.8011 13.7117 10.8053C13.7159 10.8011 13.7201 10.7969 13.7242 10.7928C13.7867 10.7094 13.7701 10.5886 13.6867 10.5261C13.6013 10.4636 13.4826 10.4803 13.4201 10.5636C13.4138 10.574 13.4055 10.5823 13.3971 10.5886C13.3451 10.6323 13.2742 10.6344 13.2555 10.6344C13.2242 10.6344 13.1971 10.6428 13.1721 10.6573C13.0409 10.7011 12.9492 10.8261 12.9492 10.9719C12.9492 11.1573 13.0951 11.3053 13.2784 11.3053Z" fill="#EFEFEF"/>
<path d="M12.1427 17.7951C12.1427 17.8471 12.124 17.893 12.0865 17.9305C12.051 17.968 12.0052 17.9867 11.9531 17.9867C11.901 17.9867 11.8573 17.968 11.8198 17.9305C11.7823 17.893 11.7656 17.8471 11.7656 17.7951C11.7656 17.743 11.7823 17.6971 11.8198 17.6596C11.8573 17.6242 11.901 17.6055 11.9531 17.6055C12.0052 17.6055 12.051 17.6242 12.0865 17.6596C12.124 17.6971 12.1427 17.743 12.1427 17.7951Z" fill="#EFEFEF"/>
<path d="M12.1427 19.5724C12.1427 19.6245 12.124 19.6703 12.0865 19.7078C12.051 19.7453 12.0052 19.762 11.9531 19.762C11.901 19.762 11.8573 19.7453 11.8198 19.7078C11.7823 19.6703 11.7656 19.6245 11.7656 19.5724C11.7656 19.5203 11.7823 19.4745 11.8198 19.437C11.8573 19.4016 11.901 19.3828 11.9531 19.3828C12.0052 19.3828 12.051 19.4016 12.0865 19.437C12.124 19.4745 12.1427 19.5203 12.1427 19.5724Z" fill="#EFEFEF"/>
<path d="M10.732 10.6573C10.707 10.6428 10.6778 10.6344 10.6487 10.6344C10.6278 10.6344 10.5591 10.6323 10.507 10.5907C10.4966 10.5823 10.4882 10.574 10.482 10.5636C10.4195 10.4803 10.3007 10.4636 10.2174 10.5261C10.1341 10.5886 10.1174 10.7094 10.1799 10.7928C10.1841 10.7969 10.1882 10.8032 10.1924 10.8073C10.1757 10.8032 10.1612 10.799 10.1528 10.7948C10.057 10.7511 9.9445 10.7948 9.90283 10.8907C9.86117 10.9865 9.90283 11.099 9.99867 11.1428C10.0799 11.1782 10.1757 11.199 10.2862 11.2032C10.3049 11.2053 10.3216 11.2053 10.3424 11.2053C10.357 11.2053 10.3716 11.2032 10.3862 11.2032C10.4466 11.2657 10.5299 11.3053 10.6237 11.3053C10.807 11.3053 10.9549 11.1573 10.9549 10.9719C10.9549 10.8261 10.8612 10.7032 10.732 10.6573Z" fill="#EFEFEF"/>
<path d="M9.9876 9.92981C10.0251 9.92981 10.0647 9.91939 10.0959 9.89439C10.348 9.71731 10.7272 9.77564 10.7376 9.77772C10.8418 9.79647 10.9376 9.72772 10.9563 9.62356C10.973 9.51939 10.9043 9.42147 10.8022 9.40272C10.7793 9.39856 10.2626 9.31314 9.87927 9.58397C9.79385 9.64439 9.77302 9.76314 9.83343 9.84856C9.87093 9.90064 9.92927 9.92981 9.9876 9.92981Z" fill="#EFEFEF"/>
<path d="M10.9596 12.3482C11.0408 12.4982 11.1762 12.6044 11.3387 12.6523C11.5429 12.7086 11.7491 12.7398 11.9554 12.7398C12.1616 12.7398 12.37 12.7086 12.5721 12.6523C12.7346 12.6065 12.87 12.4982 12.9512 12.3503C13.0346 12.2003 13.0554 12.0294 13.0096 11.8648C12.9304 11.5919 12.6804 11.4023 12.3991 11.4023C12.3408 11.4023 12.2846 11.4107 12.2283 11.4253C12.0471 11.4773 11.8616 11.4773 11.6866 11.4253C11.6304 11.4107 11.57 11.4023 11.5116 11.4023C11.2283 11.4023 10.9783 11.5919 10.9033 11.8648C10.8575 12.0273 10.8762 12.2003 10.9596 12.3482ZM11.2679 11.969C11.2991 11.8586 11.3991 11.7836 11.5116 11.7836C11.5346 11.7836 11.5596 11.7857 11.5825 11.7919C11.8262 11.8628 12.0804 11.8628 12.3304 11.7919C12.4658 11.7544 12.6075 11.8357 12.645 11.969C12.6637 12.0357 12.6554 12.1044 12.6221 12.1628C12.5887 12.2232 12.5346 12.2669 12.47 12.2857C12.1304 12.3815 11.7804 12.3815 11.4408 12.2857C11.3762 12.2669 11.3221 12.2232 11.2887 12.1628C11.2575 12.1044 11.2491 12.0357 11.2679 11.969Z" fill="#EFEFEF"/>
<path d="M0.894662 9.85H2.65925C2.76341 9.85 2.84883 9.76458 2.84883 9.65833C2.84883 9.55417 2.76341 9.46875 2.65925 9.46875H0.894662C0.790495 9.46875 0.705078 9.55417 0.705078 9.65833C0.705078 9.76458 0.790495 9.85 0.894662 9.85Z" fill="#EFEFEF"/>
<path d="M4.57813 10.4883H0.892708C0.788542 10.4883 0.703125 10.5737 0.703125 10.6779C0.703125 10.7841 0.788542 10.8695 0.892708 10.8695H4.57813C4.68229 10.8695 4.76563 10.7841 4.76563 10.6779C4.76563 10.5737 4.68229 10.4883 4.57813 10.4883Z" fill="#EFEFEF"/>
<path d="M4.16029 3.08906C4.26445 3.08906 4.34987 3.00365 4.34987 2.8974V2.41615C4.34987 2.31198 4.26445 2.22656 4.16029 2.22656C4.05612 2.22656 3.9707 2.31198 3.9707 2.41615V2.8974C3.9707 3.00365 4.05612 3.08906 4.16029 3.08906Z" fill="#EFEFEF"/>
<path d="M5.08997 3.08906C5.19414 3.08906 5.27747 3.00365 5.27747 2.8974V2.41615C5.27747 2.31198 5.19414 2.22656 5.08997 2.22656C4.98581 2.22656 4.90039 2.31198 4.90039 2.41615V2.8974C4.90039 3.00365 4.98581 3.08906 5.08997 3.08906Z" fill="#EFEFEF"/>
<path d="M5.74493 3.56829C5.79701 3.47662 5.76576 3.36204 5.67826 3.30995C5.58868 3.25579 5.47409 3.28495 5.41993 3.37454C5.40951 3.38912 5.19493 3.73287 4.62409 3.73287C4.05326 3.73287 3.83659 3.38912 3.83034 3.37662C3.77618 3.28495 3.66159 3.2537 3.56993 3.30787C3.48034 3.35995 3.44909 3.47662 3.50326 3.56829C3.51576 3.58912 3.82826 4.11412 4.62409 4.11412C5.41993 4.11412 5.73243 3.58912 5.74493 3.56829Z" fill="#EFEFEF"/>
<path d="M7.55872 3.08906C7.66289 3.08906 7.74831 3.00365 7.74831 2.8974V2.41615C7.74831 2.31198 7.66289 2.22656 7.55872 2.22656C7.45456 2.22656 7.36914 2.31198 7.36914 2.41615V2.8974C7.36914 3.00365 7.45456 3.08906 7.55872 3.08906Z" fill="#EFEFEF"/>
<path d="M8.48646 3.08906C8.59062 3.08906 8.67396 3.00365 8.67396 2.8974V2.41615C8.67396 2.31198 8.59062 2.22656 8.48646 2.22656C8.38229 2.22656 8.29688 2.31198 8.29688 2.41615V2.8974C8.29688 3.00365 8.38229 3.08906 8.48646 3.08906Z" fill="#EFEFEF"/>
<path d="M6.96744 4.03672C7.05702 4.09089 7.17161 4.06172 7.22577 3.97214C7.23411 3.95755 7.45077 3.61172 8.02161 3.61172C8.59244 3.61172 8.80702 3.95755 8.81536 3.97005C8.85077 4.03047 8.91327 4.06589 8.97994 4.06589C9.01119 4.06589 9.04452 4.05755 9.07369 4.0388C9.16327 3.98672 9.19452 3.87005 9.14244 3.78047C9.12994 3.75755 8.81744 3.23047 8.02161 3.23047C7.22369 3.23047 6.91327 3.75755 6.90077 3.78047C6.84869 3.87005 6.87786 3.98464 6.96744 4.03672Z" fill="#EFEFEF"/>
<mask id="mask0_1061_3553" style="mask-type:luminance" maskUnits="userSpaceOnUse" x="0" y="0" width="24" height="24">
<path d="M0 0.0859375H24V23.9984H0V0.0859375Z" fill="white"/>
</mask>
<g mask="url(#mask0_1061_3553)">
<path d="M23.4641 13.5988C23.087 13.203 22.5307 13.053 22.0161 13.2009L21.2557 12.3988C21.3578 11.8322 21.412 11.253 21.412 10.6759C21.412 7.90926 20.2286 5.30301 18.1599 3.49051C18.8203 2.71342 19.0182 2.07176 19.0641 1.66342C19.1057 1.31551 18.9911 0.963424 18.7474 0.696757L18.3953 0.315507C18.2661 0.175924 18.0911 0.0946739 17.9016 0.0863401C17.712 0.0800905 17.5328 0.146757 17.3932 0.275924L17.0182 0.628007C16.8724 0.76759 16.7932 0.953007 16.7932 1.15092C16.7932 1.33009 16.8599 1.50092 16.9828 1.63426C17.0828 1.74467 17.1057 1.90301 17.0411 2.03842C16.987 2.15301 16.8974 2.31342 16.7766 2.48009C15.3203 1.60717 13.6557 1.14676 11.9516 1.14676C11.0766 1.14676 10.2099 1.26967 9.3724 1.50926C8.99115 1.19884 8.51823 1.02801 8.0224 1.02801C7.35781 1.02801 6.73073 1.34051 6.32448 1.86342C5.91823 1.34051 5.29115 1.02801 4.62448 1.02801C3.43698 1.02801 2.47031 2.00092 2.47031 3.19676C2.47031 4.21134 3.18073 5.08426 4.13906 5.30926C3.52865 6.20926 3.08281 7.19051 2.8099 8.23426H1.14115C0.532813 8.23426 0.0390625 8.73217 0.0390625 9.34259V11.6301C0.0390625 12.2405 0.532813 12.7384 1.14115 12.7384H2.71615C3.05156 14.2718 3.75573 15.6884 4.7724 16.8801C4.74948 16.878 4.72656 16.8738 4.70156 16.8738C4.5099 16.8738 4.33906 16.9676 4.23281 17.1176L3.70365 16.9551C3.35156 16.8468 2.98073 17.0363 2.8599 17.3863C2.8349 17.4551 2.8224 17.5322 2.8224 17.6113C2.8224 17.8759 2.97656 18.1197 3.21198 18.2322L4.5474 18.8697C4.85156 19.0155 5.04948 19.328 5.04948 19.6697V23.8947C5.04948 24.0009 5.13281 24.0863 5.23698 24.0863C5.34323 24.0863 5.42656 24.0009 5.42656 23.8947V19.6697C5.42656 19.1822 5.14531 18.7322 4.70781 18.5259L3.37448 17.8863C3.27031 17.8363 3.20156 17.728 3.20156 17.6113C3.20156 17.5759 3.20573 17.5426 3.21823 17.5134C3.2724 17.3572 3.43698 17.2718 3.59323 17.3197L4.12865 17.4822C4.14115 17.7051 4.28073 17.9113 4.4974 17.9947L5.5724 18.4093C5.66823 18.4468 5.77865 18.3968 5.81615 18.2988C5.85365 18.2009 5.80365 18.0905 5.70573 18.053L4.63281 17.6384C4.53698 17.603 4.48281 17.4968 4.51198 17.3988C4.53698 17.3134 4.61406 17.2551 4.70365 17.2551C4.72448 17.2551 4.74323 17.2572 4.75781 17.2634L6.47031 17.778C6.91406 17.9113 7.22448 18.3322 7.22448 18.7968V22.6988C7.22448 22.6988 7.22448 22.6988 7.22448 22.7009V23.8947C7.22448 24.0009 7.3099 24.0863 7.41406 24.0863C7.51823 24.0863 7.60365 24.0009 7.60365 23.8947V23.1384C7.79531 23.2697 8.01823 23.3613 8.28281 23.4197V23.8947C8.28281 24.0009 8.36615 24.0863 8.47031 24.0863C8.57448 24.0863 8.6599 24.0009 8.6599 23.8947V19.8738C8.6599 19.7697 8.57448 19.6843 8.47031 19.6843C8.36615 19.6843 8.28281 19.7697 8.28281 19.8738V22.2009C8.01406 22.078 7.78906 21.9155 7.60365 21.7134V19.8343C8.4224 18.3509 9.46615 17.5593 10.2411 17.1488L10.8661 17.8593C10.9036 17.9009 10.9536 17.9238 11.0078 17.9238C11.0141 17.9238 11.0224 17.9238 11.0286 17.9238C11.0891 17.9176 11.1432 17.8801 11.1724 17.828L11.1828 17.8113V20.8155C11.1828 20.9197 11.2661 21.0051 11.3724 21.0051H12.5328C12.637 21.0051 12.7224 20.9197 12.7224 20.8155V17.8113L12.7307 17.828C12.762 17.8822 12.8161 17.9176 12.8766 17.9238C12.8828 17.9238 12.8891 17.9238 12.8953 17.9238C12.9495 17.9238 13.0016 17.9009 13.037 17.8593L13.662 17.1488C14.4391 17.5593 15.4807 18.3509 16.3016 19.8322V21.7134C16.1203 21.9134 15.8932 22.078 15.6224 22.2009V19.8738C15.6224 19.7697 15.537 19.6843 15.4328 19.6843C15.3286 19.6843 15.2432 19.7697 15.2432 19.8738V23.8947C15.2432 24.0009 15.3286 24.0863 15.4328 24.0863C15.537 24.0863 15.6224 24.0009 15.6224 23.8947V23.4197C15.887 23.3613 16.1099 23.2697 16.3016 23.1384V23.8947C16.3016 24.0009 16.3849 24.0863 16.4891 24.0863C16.5953 24.0863 16.6786 24.0009 16.6786 23.8947V19.7947C16.6786 19.7905 16.6807 19.7884 16.6807 19.7843C16.6807 19.7822 16.6786 19.7801 16.6786 19.778V18.7968C16.6786 18.3322 16.9891 17.9113 17.4328 17.778L19.1495 17.2613C19.162 17.2572 19.1807 17.2551 19.2016 17.2551C19.2911 17.2551 19.3682 17.3134 19.3932 17.3988C19.4203 17.4968 19.3682 17.603 19.2724 17.6384L18.1974 18.053C18.0995 18.0905 18.0516 18.2009 18.0891 18.2988C18.1266 18.3968 18.2349 18.4468 18.3328 18.4093L19.4057 17.9947C19.6245 17.9113 19.7641 17.7051 19.7766 17.4822L20.312 17.3197C20.4682 17.2718 20.6328 17.3551 20.687 17.5134C20.6974 17.5426 20.7036 17.5759 20.7036 17.6113C20.7036 17.728 20.6349 17.8363 20.5286 17.8863L19.1974 18.5259C18.7599 18.7322 18.4766 19.1822 18.4766 19.6697V23.8947C18.4766 24.0009 18.562 24.0863 18.6661 24.0863C18.7703 24.0863 18.8557 24.0009 18.8557 23.8947V19.6697C18.8557 19.328 19.0536 19.0155 19.3578 18.8697L20.6911 18.2322C20.9286 18.1197 21.0807 17.8759 21.0807 17.6113C21.0807 17.5322 21.0682 17.4551 21.0432 17.3863C20.9224 17.0363 20.5516 16.8468 20.2016 16.9551L19.6703 17.1155C19.5661 16.9676 19.3932 16.8738 19.2016 16.8738C19.1766 16.8738 19.1516 16.8759 19.1286 16.8801C19.8682 16.0113 20.4495 15.0093 20.837 13.9384L21.0328 14.1447C20.8641 14.6572 20.987 15.2238 21.362 15.6218C21.6391 15.9155 22.0182 16.0738 22.4078 16.0738C22.5516 16.0738 22.6953 16.053 22.837 16.0093C22.9224 15.9822 22.9786 15.9009 22.9703 15.8113C22.9641 15.7218 22.8953 15.6488 22.8078 15.6384C22.7161 15.6259 22.5849 15.5884 22.4766 15.4738C22.2703 15.2551 22.2786 14.9072 22.4953 14.6968C22.712 14.4884 23.0599 14.4968 23.2682 14.7134C23.3536 14.8051 23.4057 14.9238 23.4161 15.053C23.4224 15.1426 23.4911 15.2155 23.5786 15.228C23.6682 15.2384 23.7516 15.1863 23.7828 15.1009C23.9661 14.578 23.8453 14.0009 23.4641 13.5988ZM17.3807 2.20509C17.5161 1.93009 17.4682 1.60301 17.2599 1.37592C17.2036 1.31342 17.1703 1.23217 17.1703 1.15092C17.1703 1.05717 17.2099 0.969673 17.2766 0.90509L17.6516 0.55509C17.7161 0.494674 17.8016 0.465507 17.887 0.46759C17.9766 0.471757 18.0578 0.509257 18.1182 0.57384L18.4703 0.957174C18.637 1.13842 18.7182 1.38009 18.6891 1.61759C18.6453 1.99884 18.4474 2.61134 17.7536 3.37801V3.38009C17.637 3.50717 17.5078 3.64051 17.3536 3.78217C16.3536 4.71759 15.5828 4.94051 15.112 4.96342C14.8745 4.97384 14.6411 4.87801 14.4745 4.69676L14.1203 4.31134C14.062 4.24676 14.0307 4.16342 14.0328 4.07384C14.037 3.98634 14.0724 3.90301 14.1391 3.84259L14.512 3.49259C14.5766 3.43217 14.6578 3.40301 14.737 3.40301C14.8266 3.40301 14.9141 3.43842 14.9786 3.50926C15.1828 3.73009 15.5078 3.80717 15.7891 3.69259C16.1557 3.54467 16.4724 3.34676 16.7307 3.10509C16.812 3.02801 16.8932 2.94467 16.9682 2.85301C17.1703 2.61134 17.3036 2.36551 17.3807 2.20509ZM8.0224 1.40717C8.4599 1.40717 8.87865 1.56759 9.20156 1.86134C9.20365 1.86134 9.20573 1.86134 9.20573 1.86342C9.58281 2.20301 9.7974 2.68842 9.7974 3.19676C9.7974 4.18426 9.00156 4.98634 8.0224 4.98634C7.42448 4.98634 6.86823 4.67801 6.54115 4.17801C6.69323 3.87801 6.77865 3.54051 6.77865 3.19676C6.77865 2.85301 6.69323 2.51759 6.54115 2.21551C6.87031 1.71551 7.42656 1.40717 8.0224 1.40717ZM2.8474 3.19676C2.8474 2.21134 3.64531 1.40717 4.62448 1.40717C5.24948 1.40717 5.83281 1.74259 6.15156 2.28217C6.15365 2.28842 6.15781 2.29259 6.1599 2.29884C6.31823 2.56759 6.40156 2.87801 6.40156 3.19676C6.40156 3.51551 6.31823 3.82592 6.1599 4.09676C5.84323 4.64676 5.25365 4.98634 4.62448 4.98634C4.57448 4.98634 4.52656 4.98426 4.48073 4.98217C3.56406 4.90509 2.8474 4.12176 2.8474 3.19676ZM0.418229 11.6301V9.34259C0.418229 8.94259 0.741146 8.61551 1.14115 8.61551H4.4224C4.82031 8.61551 5.14531 8.94259 5.14531 9.34259V11.6822C5.14531 11.7426 5.1724 11.7988 5.22031 11.8343C5.44115 12.0009 5.6974 12.1947 5.9099 12.3572H1.14115C0.741146 12.3572 0.418229 12.0301 0.418229 11.6301ZM11.6974 16.4801L11.2536 15.928V15.6551C11.4891 15.7113 11.7224 15.7405 11.9516 15.7405C12.1828 15.7405 12.4161 15.7113 12.6495 15.6551V15.9301L12.2078 16.4801H11.6974ZM13.5036 16.1947C13.3807 16.0551 13.2224 15.9447 13.0286 15.8655V15.5322C13.9036 15.203 14.6266 14.5384 15.0036 13.9676C15.1599 14.2051 15.2432 14.4822 15.2432 14.7718C15.2432 15.5738 14.5953 16.228 13.7995 16.228C13.7016 16.228 13.6016 16.2155 13.5036 16.1947ZM15.7453 11.3655C16.0245 11.5509 16.1349 11.9801 15.987 12.3843C15.8849 12.6655 15.6745 12.8759 15.4432 12.9488C15.5724 12.4947 15.6766 11.9572 15.7453 11.3655ZM8.46198 12.9488C8.23073 12.8759 8.02031 12.6655 7.91615 12.3843C7.77031 11.9801 7.88073 11.5509 8.1599 11.3655C8.22865 11.9572 8.33073 12.4947 8.46198 12.9488ZM8.90573 13.1009C8.73073 12.5905 8.59531 11.903 8.51615 11.1551C9.34948 10.1759 9.96198 9.09259 10.3391 7.92592C10.5057 8.39676 10.8349 8.98634 11.4911 9.41342C12.2724 9.92176 12.9182 9.99467 13.437 10.0551C13.7349 10.0884 13.9932 10.1176 14.2349 10.2155C14.7995 10.4426 15.2578 10.9863 15.3891 11.153C15.3099 11.8947 15.1745 12.578 15.0036 13.0863C15.0036 13.0884 15.0016 13.0905 15.0016 13.0905C15.0016 13.0947 14.9995 13.0968 14.9995 13.1009C14.9391 13.278 14.8786 13.4238 14.812 13.5488C14.7911 13.5905 14.7724 13.628 14.7495 13.6655C14.4245 14.2072 13.6703 14.9259 12.7786 15.2218C12.2224 15.4051 11.6807 15.4051 11.1245 15.2218C10.2328 14.9259 9.47865 14.2072 9.15573 13.6655C9.06823 13.5218 8.9849 13.3301 8.90573 13.1009ZM11.5599 20.6259V17.1363L11.7161 16.8613H12.1891L12.3432 17.1363V20.6259H11.5599ZM17.3245 17.4113C16.7224 17.5947 16.3016 18.1655 16.3016 18.7968V19.0988C15.4786 17.853 14.5141 17.1613 13.787 16.7843C13.7745 16.7218 13.7578 16.6613 13.7391 16.6051C13.7599 16.6051 13.7807 16.6072 13.7995 16.6072C14.8036 16.6072 15.6224 15.7843 15.6224 14.7718C15.6224 14.3426 15.4745 13.9343 15.2057 13.6051C15.2411 13.528 15.2766 13.4447 15.3099 13.3551C15.7516 13.3343 16.162 13.0093 16.3432 12.5155C16.5661 11.8988 16.3432 11.2301 15.8474 10.9863C16.287 9.95092 16.1224 8.36967 15.4307 7.19051C14.687 5.92592 13.4516 5.22801 11.9516 5.22801C10.4536 5.22801 9.21823 5.92592 8.47448 7.19051C7.78281 8.36967 7.61823 9.95092 8.05781 10.9863C7.5599 11.2301 7.33906 11.8968 7.56198 12.5155C7.74323 13.0093 8.15365 13.3343 8.59531 13.3551C8.67031 13.553 8.74948 13.7238 8.83073 13.8613C9.1849 14.4551 9.9474 15.1822 10.8766 15.5322L10.8745 15.8655C10.4557 16.0384 10.2016 16.3468 10.1182 16.7843C9.38906 17.1613 8.42656 17.853 7.60365 19.1009V18.7968C7.60365 18.1655 7.18281 17.5947 6.57865 17.4113L5.46615 17.078C4.28906 15.8697 3.47656 14.3738 3.10365 12.7384H6.47656C6.55781 12.7384 6.63073 12.6843 6.65573 12.6072C6.68073 12.5301 6.65573 12.4447 6.58906 12.3947C6.58906 12.3947 5.9974 11.9447 5.5224 11.5863V9.34259C5.5224 8.73217 5.02865 8.23426 4.4224 8.23426H3.20156C3.48073 7.20717 3.93698 6.24467 4.5599 5.36551C4.58281 5.36551 4.60365 5.36759 4.62448 5.36759C5.29115 5.36759 5.91823 5.05301 6.3224 4.53009C6.72865 5.05301 7.35573 5.36759 8.0224 5.36759C9.2099 5.36759 10.1766 4.39467 10.1766 3.19676C10.1766 2.69051 9.9974 2.20509 9.68281 1.81759C10.4224 1.62592 11.1828 1.52801 11.9516 1.52801C13.5661 1.52801 15.1411 1.95926 16.5266 2.77384C16.5078 2.79051 16.4911 2.80926 16.4724 2.82592C16.2495 3.03634 15.9724 3.20926 15.6495 3.34051C15.5099 3.39676 15.3557 3.35717 15.2557 3.25092C14.9911 2.96134 14.5411 2.94467 14.2557 3.21342L13.8807 3.56342C13.7411 3.69467 13.662 3.86967 13.6557 4.06134C13.6474 4.25301 13.7161 4.43426 13.8453 4.57176L14.1974 4.95717C14.4286 5.20509 14.7453 5.34676 15.0786 5.34676C15.0953 5.34676 15.112 5.34676 15.1307 5.34467C15.6641 5.31759 16.5286 5.07384 17.612 4.06134C17.7203 3.96134 17.8161 3.86551 17.9057 3.77176C19.8953 5.51342 21.0349 8.01759 21.0349 10.6759C21.0349 11.1384 20.9974 11.5988 20.9307 12.0551L19.6745 10.7322C19.8453 10.2197 19.7224 9.65301 19.3453 9.25509C18.9661 8.85509 18.4016 8.70509 17.8703 8.86759C17.7849 8.89467 17.7286 8.97592 17.737 9.06551C17.7453 9.15509 17.812 9.22801 17.9016 9.23842C18.0307 9.25509 18.1453 9.31342 18.2307 9.40301C18.4391 9.62176 18.4307 9.96967 18.212 10.1801C17.9953 10.3905 17.6495 10.3801 17.4391 10.1613C17.3557 10.0718 17.3036 9.95301 17.2953 9.82801C17.2891 9.73634 17.2203 9.66342 17.1328 9.65092C17.0432 9.63842 16.9578 9.69051 16.9286 9.77592C16.7432 10.3009 16.8641 10.8759 17.2432 11.278C17.6203 11.6738 18.1766 11.8238 18.6932 11.6759L20.5453 13.6322C20.112 14.9155 19.3849 16.103 18.437 17.078L17.3245 17.4113ZM22.2349 14.4218C21.8932 14.753 21.8578 15.2863 22.1349 15.6572C21.9495 15.6072 21.7745 15.5051 21.637 15.3593C21.3349 15.0426 21.2536 14.578 21.4266 14.178C21.4578 14.1072 21.4432 14.0259 21.3911 13.9697L20.9016 13.453L18.8849 11.3259C18.8328 11.2697 18.7516 11.253 18.6807 11.2801C18.2745 11.4363 17.8182 11.3322 17.5182 11.0155C17.3786 10.8676 17.287 10.6884 17.2453 10.4988C17.6016 10.7968 18.1328 10.7843 18.4745 10.4551C18.8161 10.1259 18.8516 9.59051 18.5724 9.21967C18.7599 9.26967 18.9328 9.37176 19.0724 9.51967C19.3724 9.83426 19.4557 10.2988 19.2828 10.6988C19.2516 10.7697 19.2661 10.8509 19.3182 10.9072L20.9141 12.5884C20.9182 12.5926 20.9224 12.5968 20.9266 12.6009L21.8266 13.5509C21.8786 13.6072 21.9599 13.6238 22.0307 13.5968C22.4349 13.4426 22.8911 13.5468 23.1911 13.8613C23.3307 14.0093 23.4224 14.1884 23.4641 14.378C23.1078 14.0801 22.5766 14.0926 22.2349 14.4218Z" fill="#EFEFEF"/>
</g>
<path d="M3.79525 16.7132C3.83275 16.7132 3.87233 16.7007 3.90567 16.6778C3.989 16.6153 4.00983 16.4966 3.94942 16.4111C3.37442 15.6007 2.92858 14.7111 2.61817 13.7674C2.58692 13.6674 2.47858 13.6132 2.38067 13.6466C2.28067 13.6799 2.2265 13.7861 2.25983 13.8861C2.58067 14.8674 3.04525 15.7903 3.64108 16.632C3.67858 16.6841 3.73692 16.7132 3.79525 16.7132Z" fill="#EFEFEF"/>
<path d="M21.4112 8.00978C21.4342 8.0952 21.5112 8.14937 21.5925 8.14937C21.6092 8.14937 21.6279 8.14728 21.6446 8.14312C21.7446 8.11395 21.8029 8.00978 21.7758 7.9077C21.4217 6.6327 20.8342 5.45562 20.03 4.40562C19.9654 4.32228 19.8467 4.3077 19.7654 4.37228C19.6821 4.43687 19.6675 4.55562 19.73 4.63895C20.505 5.64937 21.0717 6.7827 21.4112 8.00978Z" fill="#EFEFEF"/>
<mask id="mask1_1061_3553" style="mask-type:luminance" maskUnits="userSpaceOnUse" x="9" y="0" width="6" height="2">
<path d="M9.59961 0.0859375H14.3996V1.0651H9.59961V0.0859375Z" fill="white"/>
</mask>
<g mask="url(#mask1_1061_3553)">
<path d="M10.095 0.958594C11.3263 0.72526 12.5783 0.72526 13.8075 0.958594C13.82 0.960678 13.8304 0.960678 13.8429 0.960678C13.9325 0.960678 14.0117 0.898177 14.0283 0.806511C14.0471 0.702344 13.9804 0.604427 13.8783 0.583594C12.6013 0.341927 11.3013 0.341927 10.0263 0.583594C9.92418 0.604427 9.85543 0.702344 9.87418 0.806511C9.89501 0.910677 9.99293 0.977344 10.095 0.958594Z" fill="#EFEFEF"/>
</g>
<path d="M18.4875 16.2859C19.1375 15.515 19.6458 14.6463 19.9979 13.7025C20.0333 13.6046 19.9854 13.4942 19.8875 13.4567C19.7895 13.4213 19.6812 13.4713 19.6437 13.5692C19.3083 14.4713 18.8208 15.3025 18.2 16.0379C18.1312 16.1192 18.1416 16.2379 18.2208 16.3067C18.2562 16.3379 18.3 16.3525 18.3437 16.3525C18.3979 16.3525 18.45 16.3296 18.4875 16.2859Z" fill="#EFEFEF"/>
<path d="M4.89921 5.75037C4.50754 6.31912 4.18254 6.93579 3.93463 7.58579C3.89713 7.68579 3.94504 7.79412 4.04296 7.8337C4.06588 7.84204 4.08879 7.8462 4.11171 7.8462C4.18671 7.8462 4.25754 7.79829 4.28671 7.72329C4.52421 7.10245 4.83463 6.51079 5.20963 5.96704C5.26796 5.88162 5.24713 5.76287 5.16171 5.70245C5.07629 5.64204 4.95754 5.66287 4.89921 5.75037Z" fill="#EFEFEF"/>
</g>
<defs>
<clipPath id="clip0_1061_3553">
<rect width="24" height="24" fill="white"/>
</clipPath>
</defs>
</svg>
