<svg width="26" height="26" viewBox="0 0 26 26" fill="none" xmlns="http://www.w3.org/2000/svg">
<path d="M15.6609 3.90429C15.6816 3.82691 15.7173 3.75435 15.766 3.69077C15.8146 3.62719 15.8754 3.57383 15.9447 3.53374C16.014 3.49365 16.0906 3.46762 16.17 3.45714C16.2494 3.44666 16.3301 3.45193 16.4074 3.47265C17.8793 3.85658 19.2221 4.62595 20.2977 5.70152C21.3733 6.77709 22.1426 8.11996 22.5266 9.59179C22.5473 9.66915 22.5526 9.74983 22.5421 9.82923C22.5316 9.90862 22.5056 9.98518 22.4655 10.0545C22.4254 10.1238 22.372 10.1846 22.3085 10.2333C22.2449 10.282 22.1723 10.3176 22.0949 10.3383C22.0436 10.352 21.9907 10.3588 21.9375 10.3586C21.8033 10.3587 21.6727 10.3144 21.5662 10.2327C21.4597 10.151 21.3831 10.0363 21.3484 9.90664C21.0188 8.64237 20.3581 7.48888 19.4342 6.56502C18.5104 5.64117 17.3569 4.98039 16.0926 4.65078C16.0152 4.63015 15.9427 4.59446 15.8791 4.54577C15.8155 4.49708 15.7621 4.43633 15.722 4.367C15.6819 4.29768 15.6559 4.22112 15.6454 4.14173C15.635 4.06233 15.6402 3.98165 15.6609 3.90429ZM15.2801 7.90078C16.7578 8.29484 17.7044 9.2414 18.0984 10.7191C18.1331 10.8488 18.2097 10.9635 18.3162 11.0452C18.4227 11.1269 18.5533 11.1712 18.6875 11.1711C18.7407 11.1713 18.7936 11.1645 18.8449 11.1508C18.9223 11.1301 18.9949 11.0945 19.0585 11.0458C19.122 10.9971 19.1754 10.9363 19.2155 10.867C19.2556 10.7977 19.2816 10.7211 19.2921 10.6417C19.3026 10.5623 19.2973 10.4816 19.2766 10.4043C18.7688 8.50406 17.4952 7.23046 15.5949 6.72265C15.5176 6.70198 15.4369 6.69674 15.3575 6.70725C15.2781 6.71775 15.2016 6.74379 15.1323 6.78387C14.9923 6.86482 14.8902 6.99806 14.8484 7.15429C14.8067 7.31052 14.8287 7.47694 14.9097 7.61693C14.9906 7.75692 15.1239 7.85903 15.2801 7.90078ZM23.3482 17.7523C23.1742 19.08 22.5227 20.2989 21.5154 21.1811C20.5081 22.0633 19.214 22.5486 17.875 22.5461C9.92267 22.5461 3.45314 16.0766 3.45314 8.12421C3.45057 6.78566 3.93537 5.49195 4.81699 4.48474C5.6986 3.47753 6.91673 2.8257 8.24384 2.65101C8.54934 2.61389 8.85863 2.67688 9.12528 2.83053C9.39192 2.98418 9.60152 3.22019 9.72259 3.50312L11.8656 8.28671C11.9602 8.50327 11.9993 8.74 11.9795 8.97549C11.9596 9.21098 11.8814 9.43781 11.7518 9.63546C11.7387 9.65558 11.7245 9.67491 11.7092 9.69335L9.56923 12.2385C9.55624 12.2649 9.54948 12.2939 9.54948 12.3233C9.54948 12.3527 9.55624 12.3817 9.56923 12.4081C10.3472 14.0006 12.0169 15.6581 13.6317 16.4351C13.6587 16.4474 13.6881 16.4532 13.7178 16.4522C13.7474 16.4511 13.7763 16.4432 13.8024 16.429L16.3099 14.2962C16.3278 14.2806 16.3468 14.2663 16.3668 14.2535C16.5636 14.1223 16.79 14.0423 17.0255 14.0206C17.261 13.999 17.4982 14.0365 17.7156 14.1296L22.5134 16.2797C22.7925 16.4034 23.0245 16.6137 23.1748 16.8795C23.3252 17.1453 23.386 17.4524 23.3482 17.7554V17.7523ZM22.1406 17.602C22.144 17.5596 22.134 17.5171 22.112 17.4806C22.0899 17.4442 22.0569 17.4156 22.0177 17.3989L17.2189 15.2488C17.1927 15.2387 17.1646 15.2344 17.1366 15.2361C17.1085 15.2379 17.0812 15.2457 17.0564 15.259L14.5499 17.3918C14.5316 17.407 14.5123 17.4212 14.493 17.4344C14.2885 17.5708 14.0522 17.6518 13.8071 17.6696C13.562 17.6874 13.3165 17.6414 13.0945 17.536C11.2298 16.6352 9.37118 14.7938 8.47032 12.9464C8.36437 12.7257 8.3172 12.4813 8.33339 12.237C8.34959 11.9927 8.42859 11.7568 8.56274 11.5519C8.57582 11.5316 8.59042 11.5122 8.60642 11.4941L10.7453 8.9489C10.7575 8.9223 10.7639 8.89337 10.7639 8.8641C10.7639 8.83482 10.7575 8.80589 10.7453 8.77929L8.60642 3.99164C8.5923 3.95321 8.56691 3.91995 8.53356 3.89621C8.50021 3.87247 8.46047 3.85935 8.41954 3.85859H8.39618C7.36323 3.99599 6.41561 4.50467 5.73026 5.28963C5.04492 6.07459 4.66871 7.08217 4.67189 8.12421C4.67189 15.4042 10.595 21.3273 17.875 21.3273C18.9172 21.3305 19.9249 20.9541 20.7099 20.2686C21.4949 19.583 22.0035 18.6352 22.1406 17.602Z" fill="#EFEFEF"/>
</svg>
