<svg width="26" height="26" viewBox="0 0 26 26" fill="none" xmlns="http://www.w3.org/2000/svg">
<path d="M20.3125 22.9531H14.7489C15.7385 22.105 16.6654 21.1866 17.5226 20.2048C20.278 17.0361 21.7344 13.7048 21.7344 10.5625C21.7344 8.246 20.8141 6.02438 19.1761 4.38636C17.5381 2.74835 15.3165 1.82813 13 1.82812C10.6835 1.82813 8.46188 2.74835 6.82386 4.38636C5.18585 6.02438 4.26563 8.246 4.26562 10.5625C4.26562 13.7018 5.72203 17.0361 8.47742 20.2048C9.33458 21.1866 10.2615 22.105 11.2511 22.9531H5.6875C5.52588 22.9531 5.37089 23.0173 5.25661 23.1316C5.14233 23.2459 5.07812 23.4009 5.07812 23.5625C5.07812 23.7241 5.14233 23.8791 5.25661 23.9934C5.37089 24.1077 5.52588 24.1719 5.6875 24.1719H20.3125C20.4741 24.1719 20.6291 24.1077 20.7434 23.9934C20.8577 23.8791 20.9219 23.7241 20.9219 23.5625C20.9219 23.4009 20.8577 23.2459 20.7434 23.1316C20.6291 23.0173 20.4741 22.9531 20.3125 22.9531ZM5.48438 10.5625C5.48438 8.56923 6.2762 6.6576 7.68565 5.24815C9.0951 3.8387 11.0067 3.04688 13 3.04688C14.9933 3.04688 16.9049 3.8387 18.3143 5.24815C19.7238 6.6576 20.5156 8.56923 20.5156 10.5625C20.5156 16.6177 14.5234 21.6257 13 22.8018C11.4766 21.6257 5.48438 16.6177 5.48438 10.5625ZM16.8594 10.5625C16.8594 9.79919 16.633 9.05302 16.209 8.41835C15.7849 7.78367 15.1821 7.28901 14.4769 6.9969C13.7717 6.7048 12.9957 6.62837 12.2471 6.77728C11.4984 6.9262 10.8108 7.29377 10.271 7.83351C9.73127 8.37325 9.3637 9.06093 9.21478 9.80957C9.06587 10.5582 9.1423 11.3342 9.4344 12.0394C9.72651 12.7446 10.2212 13.3474 10.8558 13.7715C11.4905 14.1955 12.2367 14.4219 13 14.4219C14.0236 14.4219 15.0052 14.0153 15.729 13.2915C16.4528 12.5677 16.8594 11.5861 16.8594 10.5625ZM10.3594 10.5625C10.3594 10.0402 10.5142 9.5297 10.8044 9.09545C11.0946 8.6612 11.507 8.32274 11.9895 8.12288C12.472 7.92302 13.0029 7.87072 13.5152 7.97261C14.0274 8.0745 14.4979 8.326 14.8672 8.6953C15.2365 9.06459 15.488 9.53511 15.5899 10.0473C15.6918 10.5596 15.6395 11.0905 15.4396 11.573C15.2398 12.0555 14.9013 12.4679 14.4671 12.7581C14.0328 13.0483 13.5223 13.2031 13 13.2031C12.2997 13.2031 11.628 12.9249 11.1328 12.4297C10.6376 11.9345 10.3594 11.2628 10.3594 10.5625Z" fill="#EFEFEF"/>
</svg>
