<svg width="24" height="24" viewBox="0 0 24 24" fill="none" xmlns="http://www.w3.org/2000/svg">
<g clip-path="url(#clip0_105_307)">
<mask id="mask0_105_307" style="mask-type:luminance" maskUnits="userSpaceOnUse" x="0" y="0" width="24" height="24">
<path d="M0.645836 0H23.4458V24H0.645836V0Z" fill="white"/>
</mask>
<g mask="url(#mask0_105_307)">
<path fill-rule="evenodd" clip-rule="evenodd" d="M14.1833 12.7001C13.8333 12.7001 13.8604 12.3647 13.8604 12.1959C12.8042 11.9438 12.4542 10.5147 13.1 10.5147C13.6354 10.5147 13.1854 11.2147 13.8604 11.523V10.0522C12.425 9.71467 12.425 7.66883 13.8604 7.33342C13.8604 7.16467 13.8333 6.82717 14.1833 6.82717C14.5229 6.82717 14.4938 7.16467 14.4938 7.33342C15.55 7.5855 15.9021 9.01467 15.2542 9.01467C14.7188 9.01467 15.1688 8.31467 14.4938 8.00633V9.47717C15.9292 9.81259 15.9292 11.8605 14.4938 12.1959C14.4938 12.3647 14.5229 12.7001 14.1833 12.7001ZM6.24584 21.0959L7.90625 20.1438C7.97709 20.1022 8.0625 20.0876 8.14584 20.1022C14.4792 21.798 16.2667 20.4793 20.1667 17.5793C20.9125 17.0313 21.7417 16.4147 22.6854 15.7709C22.5583 15.5751 22.4042 15.448 22.2063 15.3918C21.1938 15.098 19.2938 16.4293 18.1667 17.2272C17.8292 17.4668 17.3229 17.873 17.125 17.873L12.6917 17.9001C12.2708 17.9001 12.2708 17.2563 12.6917 17.2563L16.8021 17.2272C16.5625 15.098 11.8333 16.0376 11.4125 15.7834C8.37084 13.9897 6.55625 15.8272 4.12084 17.4813L6.24584 21.0959ZM3.43125 17.5501L3.10834 17.0043L1.44792 17.9709L4.51459 23.198L6.17709 22.2313L3.43125 17.5501ZM3.79792 16.9188C4.06459 16.7376 4.33334 16.5563 4.58542 16.373C6.69584 14.8876 8.69584 13.4709 11.6646 15.1959C11.8771 15.2522 15.0708 14.8168 16.5479 15.7563C17.6042 15.1126 19.5333 13.7376 20.6021 15.0126C21.7417 14.5376 22.8958 14.5084 23.3896 15.7563C23.4458 15.8959 23.4021 16.0501 23.2771 16.1355C17.2104 20.2834 15.9708 22.8209 8.10417 20.7605L6.57084 21.6438C6.78125 22.0084 7.13334 22.4147 6.78125 22.6251L4.55834 23.9147C4.41667 23.998 4.22083 23.9563 4.12084 23.8022L0.729169 18.0126C0.645835 17.8584 0.687502 17.6626 0.841668 17.5793L3.05208 16.2897C3.41667 16.0793 3.6 16.598 3.79792 16.9188ZM17.0417 16.2043C17.225 16.4293 17.35 16.6959 17.4063 16.9897C18.2229 16.4147 19.0542 15.7834 19.9833 15.2938C19.2792 14.7188 17.8021 15.7293 17.0417 16.2043ZM14.1833 14.7605C10.7354 14.7605 8.71042 13.8918 8.11875 12.1813C7.34375 9.86883 9.56875 6.773 11.5667 5.11883C10.9188 4.45842 11.3271 3.35217 12.2417 3.26883C12.1021 2.87508 11.9042 2.37092 11.8063 2.06258C11.5813 1.43133 11.75 1.05425 12.425 1.1105L13.4813 1.20842C13.5792 1.0105 13.3958 0.00216727 14.2542 0.0584173C14.8167 0.100084 15 0.645918 15.1979 0.956334C16.1271 0.352167 16.8438 0.675084 16.6042 1.348C16.4354 1.85217 16.2104 2.56675 16.1271 3.26883C17.0271 3.36675 17.4354 4.45842 16.8021 5.11883C18.7875 6.773 21.0104 9.86883 20.2354 12.1813C19.6583 13.8918 17.6188 14.7605 14.1833 14.7605ZM12.1854 5.43967C10.2708 6.93967 8.04792 9.98133 8.72292 11.973C9.20209 13.373 11.0875 14.1168 14.1833 14.1168C17.2667 14.1168 19.1521 13.373 19.6313 11.973C20.3063 9.98133 18.0958 6.93967 16.1833 5.43967H12.1854ZM15.7896 3.898C15.775 3.898 15.775 3.898 15.7604 3.898H12.3542C11.7354 3.898 11.75 4.8105 12.3542 4.8105H16C16.6188 4.8105 16.6188 3.898 16 3.898H15.7896ZM15.4792 3.25425C15.5625 2.56675 15.7604 1.86675 15.9583 1.30633C15.4229 1.4605 15.0708 2.06258 14.5354 1.08133C14.4104 0.843834 14.325 0.702167 14.1979 0.689667C14.1271 0.900084 14.2688 1.923 13.3688 1.83758L12.3688 1.75425L12.9167 3.25425H15.4792ZM14.1833 13.4293C12.1438 13.4293 10.4958 11.7897 10.4958 9.75842C10.4958 7.73967 12.1438 6.10008 14.1833 6.10008C16.2104 6.10008 17.8583 7.73967 17.8583 9.75842C17.8583 11.7897 16.2104 13.4293 14.1833 13.4293ZM14.1833 6.74383C12.5104 6.74383 11.1438 8.08967 11.1438 9.75842C11.1438 11.4251 12.5104 12.7855 14.1833 12.7855C15.8583 12.7855 17.2104 11.4397 17.2104 9.75842C17.2104 8.08967 15.8583 6.74383 14.1833 6.74383ZM13.8604 9.37925V8.00633C13.2688 8.27092 13.2688 9.098 13.8604 9.37925ZM14.4938 10.1501V11.523C15.0854 11.2563 15.0854 10.4293 14.4938 10.1501Z" fill="#404040"/>
</g>
</g>
<defs>
<clipPath id="clip0_105_307">
<rect width="24" height="24" fill="white"/>
</clipPath>
</defs>
</svg>
