<svg width="24" height="24" viewBox="0 0 24 24" fill="none" xmlns="http://www.w3.org/2000/svg">
<g clip-path="url(#clip0_1061_3585)">
<mask id="mask0_1061_3585" style="mask-type:luminance" maskUnits="userSpaceOnUse" x="0" y="0" width="24" height="24">
<path d="M0.644531 0H23.4445V24H0.644531V0Z" fill="white"/>
</mask>
<g mask="url(#mask0_1061_3585)">
<path fill-rule="evenodd" clip-rule="evenodd" d="M14.1819 12.6986C13.8319 12.6986 13.8589 12.3632 13.8589 12.1945C12.8027 11.9424 12.4527 10.5132 13.0985 10.5132C13.6339 10.5132 13.1839 11.2132 13.8589 11.5215V10.0507C12.4235 9.7132 12.4235 7.66737 13.8589 7.33195C13.8589 7.1632 13.8319 6.8257 14.1819 6.8257C14.5214 6.8257 14.4923 7.1632 14.4923 7.33195C15.5485 7.58404 15.9006 9.0132 15.2527 9.0132C14.7173 9.0132 15.1673 8.3132 14.4923 8.00487V9.4757C15.9277 9.81112 15.9277 11.859 14.4923 12.1945C14.4923 12.3632 14.5214 12.6986 14.1819 12.6986ZM6.24436 21.0945L7.90477 20.1424C7.97561 20.1007 8.06102 20.0861 8.14436 20.1007C14.4777 21.7965 16.2652 20.4778 20.1652 17.5778C20.911 17.0299 21.7402 16.4132 22.6839 15.7695C22.5569 15.5736 22.4027 15.4465 22.2048 15.3903C21.1923 15.0965 19.2923 16.4278 18.1652 17.2257C17.8277 17.4653 17.3214 17.8715 17.1235 17.8715L12.6902 17.8986C12.2694 17.8986 12.2694 17.2549 12.6902 17.2549L16.8006 17.2257C16.561 15.0965 11.8319 16.0361 11.411 15.782C8.36936 13.9882 6.55477 15.8257 4.11935 17.4799L6.24436 21.0945ZM3.42977 17.5486L3.10686 17.0028L1.44644 17.9695L4.51311 23.1965L6.17561 22.2299L3.42977 17.5486ZM3.79644 16.9174C4.06311 16.7361 4.33186 16.5549 4.58394 16.3715C6.69436 14.8861 8.69436 13.4695 11.6631 15.1945C11.8756 15.2507 15.0694 14.8153 16.5464 15.7549C17.6027 15.1111 19.5319 13.7361 20.6006 15.0111C21.7402 14.5361 22.8944 14.507 23.3881 15.7549C23.4444 15.8945 23.4006 16.0486 23.2756 16.134C17.2089 20.282 15.9694 22.8195 8.10269 20.759L6.56936 21.6424C6.77977 22.007 7.13186 22.4132 6.77977 22.6236L4.55686 23.9132C4.41519 23.9965 4.21935 23.9549 4.11935 23.8007L0.727689 18.0111C0.644355 17.857 0.686021 17.6611 0.840188 17.5778L3.0506 16.2882C3.41519 16.0778 3.59852 16.5965 3.79644 16.9174ZM17.0402 16.2028C17.2235 16.4278 17.3485 16.6945 17.4048 16.9882C18.2214 16.4132 19.0527 15.782 19.9819 15.2924C19.2777 14.7174 17.8006 15.7278 17.0402 16.2028ZM14.1819 14.759C10.7339 14.759 8.70894 13.8903 8.11727 12.1799C7.34227 9.86737 9.56727 6.77154 11.5652 5.11737C10.9173 4.45695 11.3256 3.3507 12.2402 3.26737C12.1006 2.87362 11.9027 2.36945 11.8048 2.06112C11.5798 1.42987 11.7485 1.05279 12.4235 1.10904L13.4798 1.20695C13.5777 1.00904 13.3944 0.000702422 14.2527 0.0569524C14.8152 0.0986191 14.9985 0.644453 15.1964 0.954869C16.1256 0.350702 16.8423 0.673619 16.6027 1.34654C16.4339 1.8507 16.2089 2.56529 16.1256 3.26737C17.0256 3.36529 17.4339 4.45695 16.8006 5.11737C18.786 6.77154 21.0089 9.86737 20.2339 12.1799C19.6569 13.8903 17.6173 14.759 14.1819 14.759ZM12.1839 5.4382C10.2694 6.9382 8.04644 9.97987 8.72144 11.9715C9.20061 13.3715 11.086 14.1153 14.1819 14.1153C17.2652 14.1153 19.1506 13.3715 19.6298 11.9715C20.3048 9.97987 18.0944 6.9382 16.1819 5.4382H12.1839ZM15.7881 3.89654C15.7735 3.89654 15.7735 3.89654 15.7589 3.89654H12.3527C11.7339 3.89654 11.7485 4.80904 12.3527 4.80904H15.9985C16.6173 4.80904 16.6173 3.89654 15.9985 3.89654H15.7881ZM15.4777 3.25279C15.561 2.56529 15.7589 1.86529 15.9569 1.30487C15.4214 1.45904 15.0694 2.06112 14.5339 1.07987C14.4089 0.842369 14.3235 0.700702 14.1964 0.688203C14.1256 0.898619 14.2673 1.92154 13.3673 1.83612L12.3673 1.75279L12.9152 3.25279H15.4777ZM14.1819 13.4278C12.1423 13.4278 10.4944 11.7882 10.4944 9.75695C10.4944 7.7382 12.1423 6.09862 14.1819 6.09862C16.2089 6.09862 17.8569 7.7382 17.8569 9.75695C17.8569 11.7882 16.2089 13.4278 14.1819 13.4278ZM14.1819 6.74237C12.5089 6.74237 11.1423 8.0882 11.1423 9.75695C11.1423 11.4236 12.5089 12.784 14.1819 12.784C15.8569 12.784 17.2089 11.4382 17.2089 9.75695C17.2089 8.0882 15.8569 6.74237 14.1819 6.74237ZM13.8589 9.37779V8.00487C13.2673 8.26945 13.2673 9.09654 13.8589 9.37779ZM14.4923 10.1486V11.5215C15.0839 11.2549 15.0839 10.4278 14.4923 10.1486Z" fill="#EFEFEF"/>
</g>
</g>
<defs>
<clipPath id="clip0_1061_3585">
<rect width="24" height="24" fill="white"/>
</clipPath>
</defs>
</svg>
