<svg width="22" height="22" viewBox="0 0 25 25" fill="none" xmlns="http://www.w3.org/2000/svg">
<path d="M10.3333 4V6.14105L12 7.40105V5.89474H20.3333V20.1053H16.1667V22H22V4H10.3333ZM8.25 6.84211L2 11.5789V22H14.5V11.5789L8.25 6.84211ZM13.6667 7.78947V8.67053L15.0083 9.68421H15.3333V7.78947H13.6667ZM17 7.78947V9.68421H18.6667V7.78947H17ZM8.25 9.21053L12.8333 12.5263V20.1053H10.3333V14.4211H6.16667V20.1053H3.66667V12.5263L8.25 9.21053ZM17 11.5789V13.4737H18.6667V11.5789H17ZM17 15.3684V17.2632H18.6667V15.3684H17Z" fill="#E8E5DC"/>
</svg>
