<svg width="24" height="24" viewBox="0 0 24 24" fill="none" xmlns="http://www.w3.org/2000/svg">
<g clip-path="url(#clip0_343_986)">
<path d="M12 24C5.37083 24 0 18.6292 0 12C0 5.37083 5.37083 0 12 0C18.6292 0 24 5.37083 24 12C24 18.6292 18.6292 24 12 24ZM12 0.570833C5.68542 0.570833 0.570833 5.68542 0.570833 12C0.570833 18.3146 5.68542 23.4292 12 23.4292C18.3146 23.4292 23.4292 18.3146 23.4292 12C23.4292 5.68542 18.3146 0.570833 12 0.570833ZM18.2854 9.91458L12 5.91458C11.9146 5.85625 11.8 5.85625 11.6854 5.91458L5.4 9.91458L5.71458 10.4L7 9.6V16.4563C7 17.2563 7.62917 17.8854 8.42917 17.8854H15.2854C16.0854 17.8854 16.7146 17.2563 16.7146 16.4563V9.6L18 10.4L18.2854 9.91458ZM10.4292 17.2854V14.7146C10.4292 13.9146 11.0563 13.2854 11.8563 13.2854C12.6563 13.2854 13.2854 13.9146 13.2854 14.7146V17.2854H10.4292ZM16.1438 16.4292C16.1438 16.9146 15.7708 17.2854 15.2854 17.2854H13.8563V14.7146C13.8563 13.6 12.9708 12.7146 11.8563 12.7146C10.7438 12.7146 9.85625 13.6 9.85625 14.7146V17.2854H8.42917C7.94375 17.2854 7.57083 16.9146 7.57083 16.4292V9.2L11.8563 6.48542L16.1438 9.2V16.4292Z" fill="#404040"/>
</g>
<defs>
<clipPath id="clip0_343_986">
<rect width="24" height="24" fill="white"/>
</clipPath>
</defs>
</svg>
