<svg width="56" height="56" viewBox="0 0 56 56" fill="none" xmlns="http://www.w3.org/2000/svg">
<path d="M25.3747 45.0333L9.97467 29.6333C9.74134 29.4 9.57567 29.1472 9.47767 28.875C9.38123 28.6028 9.33301 28.3111 9.33301 28C9.33301 27.6889 9.38123 27.3972 9.47767 27.125C9.57567 26.8528 9.74134 26.6 9.97467 26.3667L25.3747 10.9667C25.8025 10.5389 26.3368 10.3149 26.9777 10.2947C27.6201 10.276 28.1747 10.5 28.6413 10.9667C29.108 11.3944 29.3515 11.9288 29.3717 12.5697C29.3903 13.2121 29.1663 13.7667 28.6997 14.2333L17.2663 25.6667H43.3413C44.0025 25.6667 44.557 25.8899 45.005 26.3363C45.4515 26.7843 45.6747 27.3389 45.6747 28C45.6747 28.6611 45.4515 29.2149 45.005 29.6613C44.557 30.1093 44.0025 30.3333 43.3413 30.3333H17.2663L28.6997 41.7667C29.1275 42.1944 29.3515 42.7389 29.3717 43.4C29.3903 44.0611 29.1663 44.6055 28.6997 45.0333C28.2719 45.5 27.7275 45.7333 27.0663 45.7333C26.4052 45.7333 25.8413 45.5 25.3747 45.0333Z" fill="black"/>
</svg>
