<svg width="24" height="24" viewBox="0 0 24 24" fill="none" xmlns="http://www.w3.org/2000/svg">
<path d="M14.5791 2.32603C14.4529 2.26457 14.3121 2.23972 14.1726 2.25431C14.033 2.26889 13.9004 2.32232 13.7897 2.40853L7.24219 7.50009H3C2.60218 7.50009 2.22064 7.65813 1.93934 7.93943C1.65804 8.22074 1.5 8.60227 1.5 9.00009V15.0001C1.5 15.3979 1.65804 15.7794 1.93934 16.0608C2.22064 16.3421 2.60218 16.5001 3 16.5001H7.24219L13.7897 21.5917C13.9005 21.6778 14.0332 21.7311 14.1728 21.7455C14.3124 21.76 14.4533 21.735 14.5793 21.6733C14.7054 21.6117 14.8117 21.516 14.8861 21.3969C14.9604 21.2779 14.9999 21.1404 15 21.0001V3.00009C15 2.85959 14.9606 2.7219 14.8861 2.60273C14.8117 2.48355 14.7053 2.38768 14.5791 2.32603ZM3 9.00009H6.75V15.0001H3V9.00009ZM13.5 19.4663L8.25 15.3835V8.61666L13.5 4.53384V19.4663ZM18.5625 9.52134C19.1657 10.2062 19.4986 11.0875 19.4986 12.0001C19.4986 12.9127 19.1657 13.794 18.5625 14.4788C18.43 14.6244 18.2456 14.7121 18.049 14.7229C17.8524 14.7337 17.6595 14.6668 17.5118 14.5366C17.3642 14.4064 17.2736 14.2234 17.2597 14.027C17.2458 13.8306 17.3097 13.6367 17.4375 13.487C17.7992 13.0761 17.9988 12.5475 17.9988 12.0001C17.9988 11.4527 17.7992 10.9241 17.4375 10.5132C17.3097 10.3635 17.2458 10.1695 17.2597 9.97318C17.2736 9.7768 17.3642 9.59377 17.5118 9.46358C17.6595 9.33338 17.8524 9.26647 18.049 9.27728C18.2456 9.28809 18.43 9.37575 18.5625 9.52134ZM23.25 12.0001C23.2511 13.8453 22.5711 15.6259 21.3403 17.0007C21.2067 17.1453 21.0216 17.2315 20.825 17.2408C20.6284 17.2502 20.436 17.1818 20.2893 17.0505C20.1426 16.9192 20.0535 16.7355 20.041 16.5391C20.0286 16.3426 20.0939 16.1491 20.2228 16.0004C21.2066 14.9004 21.7505 13.4764 21.7505 12.0006C21.7505 10.5248 21.2066 9.10074 20.2228 8.00072C20.1553 7.92765 20.103 7.84187 20.0689 7.74839C20.0349 7.6549 20.0197 7.55558 20.0245 7.45619C20.0292 7.35681 20.0536 7.25936 20.0963 7.16951C20.1391 7.07966 20.1993 6.99922 20.2734 6.93286C20.3475 6.8665 20.4341 6.81555 20.5281 6.78299C20.6221 6.75042 20.7217 6.73689 20.821 6.74318C20.9203 6.74946 21.0173 6.77544 21.1065 6.8196C21.1957 6.86377 21.2751 6.92523 21.3403 7.0004C22.5714 8.37461 23.2515 10.1551 23.25 12.0001Z" fill="#404040"/>
</svg>
