<svg width="24" height="24" viewBox="0 0 24 24" fill="none" xmlns="http://www.w3.org/2000/svg">
<path d="M12.001 17C11.4705 17 10.9618 16.7893 10.5868 16.4142C10.2117 16.0391 10.001 15.5304 10.001 15C10.001 13.89 10.891 13 12.001 13C12.5314 13 13.0401 13.2107 13.4152 13.5858C13.7903 13.9609 14.001 14.4696 14.001 15C14.001 15.5304 13.7903 16.0391 13.4152 16.4142C13.0401 16.7893 12.5314 17 12.001 17ZM18.001 20V10H6.00098V20H18.001ZM18.001 8C18.5314 8 19.0401 8.21071 19.4152 8.58579C19.7903 8.96086 20.001 9.46957 20.001 10V20C20.001 20.5304 19.7903 21.0391 19.4152 21.4142C19.0401 21.7893 18.5314 22 18.001 22H6.00098C5.47054 22 4.96184 21.7893 4.58676 21.4142C4.21169 21.0391 4.00098 20.5304 4.00098 20V10C4.00098 8.89 4.89098 8 6.00098 8H7.00098V6C7.00098 4.67392 7.52776 3.40215 8.46544 2.46447C9.40312 1.52678 10.6749 1 12.001 1C12.6576 1 13.3078 1.12933 13.9144 1.3806C14.521 1.63188 15.0722 2.00017 15.5365 2.46447C16.0008 2.92876 16.3691 3.47995 16.6204 4.08658C16.8716 4.69321 17.001 5.34339 17.001 6V8H18.001ZM12.001 3C11.2053 3 10.4423 3.31607 9.87966 3.87868C9.31705 4.44129 9.00098 5.20435 9.00098 6V8H15.001V6C15.001 5.20435 14.6849 4.44129 14.1223 3.87868C13.5597 3.31607 12.7966 3 12.001 3Z" fill="#747474"/>
</svg>
