<svg width="24" height="24" viewBox="0 0 24 24" fill="none" xmlns="http://www.w3.org/2000/svg">
<path d="M20.001 12C19.7343 12 19.497 11.904 19.289 11.712C19.0803 11.5207 18.9593 11.2833 18.926 11C18.7093 9.45 18.0553 8.129 16.964 7.037C15.872 5.94567 14.551 5.29167 13.001 5.075C12.7176 5.04167 12.4803 4.925 12.289 4.725C12.097 4.525 12.001 4.28333 12.001 4C12.001 3.71667 12.101 3.479 12.301 3.287C12.501 3.09567 12.7343 3.01667 13.001 3.05C15.101 3.28333 16.8926 4.14167 18.376 5.625C19.8593 7.10833 20.7176 8.9 20.951 11C20.9843 11.2667 20.905 11.5 20.713 11.7C20.5216 11.9 20.2843 12 20.001 12ZM15.826 12C15.6093 12 15.4176 11.925 15.251 11.775C15.0843 11.625 14.9593 11.425 14.876 11.175C14.7426 10.6917 14.4886 10.2623 14.114 9.887C13.7386 9.51233 13.3093 9.25833 12.826 9.125C12.576 9.04167 12.376 8.91667 12.226 8.75C12.076 8.58333 12.001 8.38333 12.001 8.15C12.001 7.81667 12.1176 7.54567 12.351 7.337C12.5843 7.129 12.8426 7.05833 13.126 7.125C14.0593 7.34167 14.8636 7.78733 15.539 8.462C16.2136 9.13733 16.6593 9.94167 16.876 10.875C16.9426 11.1583 16.8676 11.4167 16.651 11.65C16.4343 11.8833 16.1593 12 15.826 12ZM19.951 21C17.801 21 15.7053 20.5207 13.664 19.562C11.622 18.604 9.81364 17.3373 8.23898 15.762C6.66364 14.1873 5.39698 12.379 4.43898 10.337C3.48031 8.29567 3.00098 6.2 3.00098 4.05C3.00098 3.75 3.10098 3.5 3.30098 3.3C3.50098 3.1 3.75098 3 4.05098 3H8.10098C8.33431 3 8.54264 3.075 8.72598 3.225C8.90931 3.375 9.01764 3.56667 9.05098 3.8L9.70098 7.3C9.73431 7.53333 9.73031 7.74567 9.68898 7.937C9.64698 8.129 9.55098 8.3 9.40098 8.45L7.00098 10.9C7.70098 12.1 8.57598 13.225 9.62598 14.275C10.676 15.325 11.8343 16.2333 13.101 17L15.451 14.65C15.601 14.5 15.797 14.3873 16.039 14.312C16.2803 14.2373 16.5176 14.2167 16.751 14.25L20.201 14.95C20.4343 15 20.626 15.1123 20.776 15.287C20.926 15.4623 21.001 15.6667 21.001 15.9V19.95C21.001 20.25 20.901 20.5 20.701 20.7C20.501 20.9 20.251 21 19.951 21Z" fill="#747474"/>
</svg>
