<svg width="60" height="60" viewBox="0 0 60 60" fill="none" xmlns="http://www.w3.org/2000/svg">
<g clip-path="url(#clip0_1028_4353)">
<path d="M0.937826 19.6041V28.0989C0.937826 28.0989 4.50033 28.0989 8.92741 28.0989V29.4114H15.9326V28.0989C16.542 28.0989 17.141 28.0989 17.7295 28.0989C24.5055 28.0989 26.7555 20.6614 27.0212 19.6875H27.3024C27.7243 19.6875 28.068 19.3385 28.068 18.9166C28.068 18.4948 27.7243 18.151 27.3024 18.151H1.27637C0.854493 18.151 0.510742 18.4948 0.510742 18.9166C0.510742 19.2187 0.687826 19.4791 0.937826 19.6041Z" fill="white"/>
<path d="M13.3698 36.4636V35.9115H13.1042C13.1042 35.8855 13.1042 35.8646 13.1042 35.8438V30.349H11.3958V35.8438C11.3958 35.8646 11.3906 35.8855 11.3906 35.9115H11.0469V36.4636H11.3281C11.0417 37.7813 9.875 38.7709 8.47917 38.7709C7.08333 38.7709 5.91667 37.7813 5.63542 36.4636H5.89063V35.9115H5.57292C5.56771 35.8855 5.56771 35.8646 5.56771 35.8438V32.1407H0V33.8594H3.85417V35.8438C3.85417 35.8646 3.85937 35.8855 3.85937 35.9115H3.56771V36.4636H3.90104C4.20313 38.7344 6.14063 40.4948 8.47917 40.4948C10.8229 40.4948 12.7552 38.7344 13.0625 36.4636H13.3698Z" fill="white"/>
<mask id="mask0_1028_4353" style="mask-type:luminance" maskUnits="userSpaceOnUse" x="2" y="7" width="13" height="12">
<path d="M2.66699 7.125H14.667V18.6667H2.66699V7.125Z" fill="white"/>
</mask>
<g mask="url(#mask0_1028_4353)">
<path d="M14.2246 13.3021V12.3802C14.2246 9.52083 11.9069 7.1875 9.05794 7.1875C6.20898 7.1875 3.89648 9.52083 3.89648 12.3802V17.4115H5.84961V12.3802C5.84961 10.6042 7.28711 9.15625 9.05794 9.15625C10.8288 9.15625 12.2663 10.6042 12.2663 12.3802V13.3021H14.2246Z" fill="white"/>
</g>
<mask id="mask1_1028_4353" style="mask-type:luminance" maskUnits="userSpaceOnUse" x="28" y="21" width="32" height="33">
<path d="M28 21.3334H60V53.125H28V21.3334Z" fill="white"/>
</mask>
<g mask="url(#mask1_1028_4353)">
<path d="M36.8277 33.1616C37.4267 32.7553 38.1246 32.5366 38.8486 32.5366C39.2027 32.5366 39.5517 32.5886 39.8954 32.6928L44.4319 34.0678L48.0204 25.8595C48.4215 24.9376 49.3277 24.3438 50.3277 24.3438C50.6767 24.3438 51.0204 24.4168 51.3434 24.5574C52.6142 25.1199 53.1923 26.6147 52.635 27.8959L49.1038 35.9688C49.1142 36.0053 49.1246 36.047 49.135 36.0886L49.0621 36.0678L48.4788 37.4011C48.1819 38.0782 47.6038 38.5886 46.9006 38.8074L41.9267 40.323L45.9267 41.5366L49.1663 39.5678L49.6402 38.7657C49.6871 39.1355 49.7288 39.5053 49.7548 39.8751L40.1611 45.6928C39.0204 46.3855 38.4579 47.7397 38.7704 49.0418C39.0777 50.3438 40.1923 51.2918 41.5204 51.3907L56.6194 52.4949C56.6923 52.5001 56.7652 52.5053 56.8434 52.5053C58.4319 52.5053 59.7704 51.2709 59.885 49.6563C60.01 47.9636 58.7444 46.4897 57.0621 46.3647L51.5465 45.9636L55.5517 43.5366C57.01 42.9168 58.234 41.6772 58.359 38.9688C58.2288 34.3647 57.635 31.4063 56.0569 27.823C55.7548 27.1303 55.4163 26.4168 55.0361 25.6616C53.3017 22.2813 50.1454 21.5886 48.1559 22.4063C47.984 22.4793 47.8277 22.5678 47.6819 22.672C47.3954 22.8178 47.1402 23.0366 46.9475 23.323L41.0777 32.1511L30.9371 33.297L30.5256 29.7709L31.0934 29.7032L31.2496 31.0418C31.3121 31.5678 31.7913 31.948 32.3173 31.8855C32.8381 31.823 33.2131 31.3438 33.1559 30.8126L32.9944 29.4636C33.6819 29.3022 34.1506 28.6459 34.0673 27.9272C33.984 27.2032 33.3746 26.6772 32.6663 26.6824L32.5413 25.5886L33.1975 25.5105L33.0673 24.4063C32.9579 23.4845 32.4788 22.7813 31.0934 22.9428C29.7027 23.1095 27.9267 24.0782 28.0361 25.0053L28.1663 26.1043L30.635 25.8126L30.7652 26.8959L29.8434 27.0053L28.2913 27.1928L29.0673 33.7709C28.5204 34.172 28.1923 34.8491 28.2756 35.5782C28.359 36.3126 28.8329 36.9063 29.4631 37.172L29.7704 39.7449C29.8329 40.2709 30.3069 40.6511 30.8329 40.5886C31.359 40.5261 31.734 40.047 31.6715 39.5157L31.3954 37.2032L35.1611 36.7813L35.2444 35.8438C35.3434 34.7501 35.9215 33.7709 36.8277 33.1616ZM33.109 27.9741C33.1559 28.3959 32.859 28.7813 32.4371 28.8282C32.0204 28.8803 31.635 28.5782 31.5881 28.1563C31.5361 27.7345 31.8381 27.3491 32.26 27.297C32.6767 27.2501 33.0569 27.5522 33.109 27.9741Z" fill="white"/>
</g>
<mask id="mask2_1028_4353" style="mask-type:luminance" maskUnits="userSpaceOnUse" x="33" y="40" width="10" height="14">
<path d="M33.333 40H42.6663V53.125H33.333V40Z" fill="white"/>
</mask>
<g mask="url(#mask2_1028_4353)">
<path d="M38.2239 49.1719C37.8541 47.625 38.5156 46.0313 39.8697 45.2084L41.1614 44.4271L41.526 40.4427L36.1458 42.0834C35.9062 42.1563 35.6614 42.1927 35.4114 42.1927C35.3489 42.1927 35.2864 42.1875 35.2291 42.1823L34.5416 49.6407C34.3854 51.3282 35.6249 52.8282 37.302 52.9844C37.401 52.9896 37.4947 52.9948 37.5885 52.9948C38.6458 52.9948 39.5989 52.4427 40.151 51.5938C39.1979 51.125 38.4791 50.2552 38.2239 49.1719Z" fill="white"/>
</g>
<path d="M43.7809 34.4636L39.7288 33.2344C38.8538 32.9688 37.9007 33.1146 37.1403 33.6302C36.3799 34.1459 35.8903 34.974 35.807 35.8959L35.708 36.9219L43.7809 34.4636Z" fill="white"/>
<path d="M39.7505 19.2864C42.0942 18.0573 43.7297 16.4687 43.6672 15.5364C44.1619 16.3541 42.7453 18.3437 40.4484 20.0416C40.0109 20.3646 39.5682 20.6562 39.1411 20.9114C40.7036 23.1406 43.6984 23.9219 46.1724 22.625C48.8651 21.2187 49.9172 17.8802 48.5161 15.1666C47.1099 12.4583 43.7922 11.401 41.0942 12.8125C39.7557 13.5104 38.8234 14.6875 38.3963 16.026C38.3078 16.0677 38.2244 16.1094 38.1359 16.1562C35.5578 17.5052 33.8338 19.2969 34.2817 20.1614C34.4172 20.4323 34.7557 20.5781 35.2297 20.6094C36.2713 20.6823 37.9849 20.2083 39.7505 19.2864Z" fill="white"/>
<path d="M35.4111 41.625C35.5986 41.625 35.7913 41.5989 35.9788 41.5416L46.7393 38.2656C47.2861 38.0989 47.734 37.6979 47.9632 37.1718L52.1195 27.6666C52.5518 26.6718 52.1038 25.5104 51.1143 25.0729C50.1247 24.6406 48.9736 25.0885 48.5361 26.0833L44.7445 34.7604L34.8434 37.776C33.8122 38.0937 33.2288 39.1927 33.5413 40.2291C33.7965 41.0781 34.5726 41.625 35.4111 41.625Z" fill="white"/>
<mask id="mask3_1028_4353" style="mask-type:luminance" maskUnits="userSpaceOnUse" x="12" y="48" width="18" height="6">
<path d="M12 48H29.3333V53.125H12V48Z" fill="white"/>
</mask>
<g mask="url(#mask3_1028_4353)">
<path d="M13.0469 48.7552H28.3646V53.0625H13.0469V48.7552Z" fill="white"/>
</g>
<path d="M28.3646 48.2135V45.3594H24.3125V43.474H25.0156V42.7344H16.3958V43.474H17.099V45.3594H13.0469V48.2135H28.3646ZM17.8333 43.8438H23.5781V45.3594H17.8333V43.8438Z" fill="white"/>
</g>
<defs>
<clipPath id="clip0_1028_4353">
<rect width="60" height="60" fill="white"/>
</clipPath>
</defs>
</svg>
