<svg width="60" height="60" viewBox="0 0 60 60" fill="none" xmlns="http://www.w3.org/2000/svg">
<g clip-path="url(#clip0_143_1053)">
<path d="M0.937506 19.6035V28.0983C0.937506 28.0983 4.50001 28.0983 8.92709 28.0983V29.4108H15.9323V28.0983C16.5417 28.0983 17.1406 28.0983 17.7292 28.0983C24.5052 28.0983 26.7552 20.6608 27.0208 19.6868H27.3021C27.724 19.6868 28.0677 19.3379 28.0677 18.916C28.0677 18.4941 27.724 18.1504 27.3021 18.1504H1.27605C0.854172 18.1504 0.510422 18.4941 0.510422 18.916C0.510422 19.2181 0.687506 19.4785 0.937506 19.6035Z" fill="black"/>
<path d="M13.3698 36.4642V35.9121H13.1042C13.1042 35.8861 13.1042 35.8652 13.1042 35.8444V30.3496H11.3958V35.8444C11.3958 35.8652 11.3906 35.8861 11.3906 35.9121H11.0469V36.4642H11.3281C11.0417 37.7819 9.875 38.7715 8.47917 38.7715C7.08333 38.7715 5.91667 37.7819 5.63542 36.4642H5.89063V35.9121H5.57292C5.56771 35.8861 5.56771 35.8652 5.56771 35.8444V32.1413H0V33.86H3.85417V35.8444C3.85417 35.8652 3.85937 35.8861 3.85937 35.9121H3.56771V36.4642H3.90104C4.20313 38.735 6.14063 40.4954 8.47917 40.4954C10.8229 40.4954 12.7552 38.735 13.0625 36.4642H13.3698Z" fill="black"/>
<mask id="mask0_143_1053" style="mask-type:luminance" maskUnits="userSpaceOnUse" x="2" y="7" width="13" height="12">
<path d="M2.66667 7.125H14.6667V18.6667H2.66667V7.125Z" fill="white"/>
</mask>
<g mask="url(#mask0_143_1053)">
<path d="M14.224 13.3021V12.3802C14.224 9.52083 11.9063 7.1875 9.0573 7.1875C6.20834 7.1875 3.89584 9.52083 3.89584 12.3802V17.4115H5.84897V12.3802C5.84897 10.6042 7.28647 9.15625 9.0573 9.15625C10.8281 9.15625 12.2656 10.6042 12.2656 12.3802V13.3021H14.224Z" fill="black"/>
</g>
<mask id="mask1_143_1053" style="mask-type:luminance" maskUnits="userSpaceOnUse" x="28" y="21" width="32" height="33">
<path d="M28 21.334H60V53.1257H28V21.334Z" fill="white"/>
</mask>
<g mask="url(#mask1_143_1053)">
<path d="M36.8281 33.1626C37.4271 32.7564 38.125 32.5376 38.849 32.5376C39.2031 32.5376 39.5521 32.5897 39.8958 32.6939L44.4323 34.0689L48.0208 25.8606C48.4219 24.9387 49.3281 24.3449 50.3281 24.3449C50.6771 24.3449 51.0208 24.4179 51.3438 24.5585C52.6146 25.121 53.1927 26.6158 52.6354 27.897L49.1042 35.9699C49.1146 36.0064 49.125 36.0481 49.1354 36.0897L49.0625 36.0689L48.4792 37.4022C48.1823 38.0793 47.6042 38.5897 46.901 38.8085L41.9271 40.3241L45.9271 41.5376L49.1667 39.5689L49.6406 38.7668C49.6875 39.1366 49.7292 39.5064 49.7552 39.8762L40.1615 45.6939C39.0208 46.3866 38.4583 47.7408 38.7708 49.0429C39.0781 50.3449 40.1927 51.2929 41.5208 51.3918L56.6198 52.496C56.6927 52.5012 56.7656 52.5064 56.8438 52.5064C58.4323 52.5064 59.7708 51.272 59.8854 49.6574C60.0104 47.9647 58.7448 46.4908 57.0625 46.3658L51.5469 45.9647L55.5521 43.5376C57.0104 42.9179 58.2344 41.6783 58.3594 38.9699C58.2292 34.3658 57.6354 31.4074 56.0573 27.8241C55.7552 27.1314 55.4167 26.4179 55.0365 25.6626C53.3021 22.2824 50.1458 21.5897 48.1563 22.4074C47.9844 22.4804 47.8281 22.5689 47.6823 22.6731C47.3958 22.8189 47.1406 23.0376 46.9479 23.3241L41.0781 32.1522L30.9375 33.2981L30.526 29.772L31.0938 29.7043L31.25 31.0429C31.3125 31.5689 31.7917 31.9491 32.3177 31.8866C32.8385 31.8241 33.2135 31.3449 33.1563 30.8137L32.9948 29.4647C33.6823 29.3033 34.151 28.647 34.0677 27.9283C33.9844 27.2043 33.375 26.6783 32.6667 26.6835L32.5417 25.5897L33.1979 25.5116L33.0677 24.4074C32.9583 23.4856 32.4792 22.7824 31.0938 22.9439C29.7031 23.1106 27.9271 24.0793 28.0365 25.0064L28.1667 26.1054L30.6354 25.8137L30.7656 26.897L29.8438 27.0064L28.2917 27.1939L29.0677 33.772C28.5208 34.1731 28.1927 34.8501 28.276 35.5793C28.3594 36.3137 28.8333 36.9074 29.4635 37.1731L29.7708 39.746C29.8333 40.272 30.3073 40.6522 30.8333 40.5897C31.3594 40.5272 31.7344 40.0481 31.6719 39.5168L31.3958 37.2043L35.1615 36.7824L35.2448 35.8449C35.3438 34.7512 35.9219 33.772 36.8281 33.1626ZM33.1094 27.9751C33.1563 28.397 32.8594 28.7824 32.4375 28.8293C32.0208 28.8814 31.6354 28.5793 31.5885 28.1574C31.5365 27.7356 31.8385 27.3501 32.2604 27.2981C32.6771 27.2512 33.0573 27.5533 33.1094 27.9751Z" fill="black"/>
</g>
<mask id="mask2_143_1053" style="mask-type:luminance" maskUnits="userSpaceOnUse" x="33" y="40" width="10" height="14">
<path d="M33.3333 40H42.6667V53.125H33.3333V40Z" fill="white"/>
</mask>
<g mask="url(#mask2_143_1053)">
<path d="M38.224 49.1725C37.8542 47.6257 38.5156 46.0319 39.8698 45.209L41.1615 44.4277L41.526 40.4434L36.1458 42.084C35.9063 42.1569 35.6615 42.1934 35.4115 42.1934C35.349 42.1934 35.2865 42.1882 35.2292 42.1829L34.5417 49.6413C34.3854 51.3288 35.625 52.8288 37.3021 52.985C37.401 52.9902 37.4948 52.9954 37.5885 52.9954C38.6458 52.9954 39.599 52.4434 40.151 51.5944C39.1979 51.1257 38.4792 50.2559 38.224 49.1725Z" fill="black"/>
</g>
<path d="M43.7813 34.4627L39.7292 33.2336C38.8542 32.9679 37.9011 33.1138 37.1406 33.6294C36.3802 34.145 35.8906 34.9731 35.8073 35.895L35.7083 36.9211L43.7813 34.4627Z" fill="black"/>
<path d="M39.75 19.2873C42.0937 18.0581 43.7292 16.4696 43.6667 15.5373C44.1615 16.355 42.7448 18.3446 40.4479 20.0425C40.0104 20.3654 39.5677 20.6571 39.1406 20.9123C40.7031 23.1415 43.6979 23.9227 46.1719 22.6258C48.8646 21.2196 49.9167 17.881 48.5156 15.1675C47.1094 12.4592 43.7917 11.4019 41.0937 12.8133C39.7552 13.5112 38.8229 14.6883 38.3958 16.0269C38.3073 16.0685 38.224 16.1102 38.1354 16.1571C35.5573 17.506 33.8333 19.2977 34.2812 20.1623C34.4167 20.4331 34.7552 20.579 35.2292 20.6102C36.2708 20.6831 37.9844 20.2092 39.75 19.2873Z" fill="black"/>
<path d="M35.4115 41.6248C35.599 41.6248 35.7917 41.5988 35.9792 41.5415L46.7396 38.2655C47.2865 38.0988 47.7344 37.6978 47.9635 37.1717L52.1198 27.6665C52.5521 26.6717 52.1042 25.5102 51.1146 25.0728C50.125 24.6405 48.974 25.0884 48.5365 26.0832L44.7448 34.7603L34.8438 37.7759C33.8125 38.0936 33.2292 39.1925 33.5417 40.229C33.7969 41.078 34.5729 41.6248 35.4115 41.6248Z" fill="black"/>
<mask id="mask3_143_1053" style="mask-type:luminance" maskUnits="userSpaceOnUse" x="12" y="48" width="18" height="6">
<path d="M12 48H29.3333V53.125H12V48Z" fill="white"/>
</mask>
<g mask="url(#mask3_143_1053)">
<path d="M13.0469 48.7559H28.3646V53.0632H13.0469V48.7559Z" fill="black"/>
</g>
<path d="M28.3646 48.2135V45.3594H24.3125V43.474H25.0156V42.7344H16.3958V43.474H17.099V45.3594H13.0469V48.2135H28.3646ZM17.8333 43.8438H23.5781V45.3594H17.8333V43.8438Z" fill="black"/>
</g>
<defs>
<clipPath id="clip0_143_1053">
<rect width="60" height="60" fill="white"/>
</clipPath>
</defs>
</svg>
