<svg xmlns="http://www.w3.org/2000/svg" xmlns:xlink="http://www.w3.org/1999/xlink" width="60" zoomAndPan="magnify" viewBox="0 0 45 44.999999" height="60" preserveAspectRatio="xMidYMid meet" version="1.0"><defs><clipPath id="1ab74f70b2"><path d="M 2 1.164062 L 43 1.164062 L 43 44.664062 L 2 44.664062 Z M 2 1.164062 " clip-rule="nonzero"/></clipPath></defs><g clip-path="url(#1ab74f70b2)"><path fill="#000000" d="M 22.410156 22.914062 C 16.386719 22.914062 11.5 18.042969 11.5 12.039062 C 11.5 6.035156 16.386719 1.164062 22.410156 1.164062 C 28.433594 1.164062 33.324219 6.035156 33.324219 12.039062 C 33.324219 18.042969 28.433594 22.914062 22.410156 22.914062 Z M 22.410156 21.101562 C 27.429688 21.101562 31.503906 17.039062 31.503906 12.039062 C 31.503906 7.035156 27.429688 2.976562 22.410156 2.976562 C 17.390625 2.976562 13.320312 7.035156 13.320312 12.039062 C 13.320312 17.039062 17.390625 21.101562 22.410156 21.101562 Z M 2.410156 43.757812 L 2.410156 40.132812 C 2.410156 32.796875 7.324219 26.539062 16.957031 26.539062 L 27.867188 26.539062 C 37.5 26.539062 42.414062 32.796875 42.414062 40.132812 L 42.414062 43.757812 C 42.414062 44.257812 42.007812 44.664062 41.503906 44.664062 L 3.316406 44.664062 C 2.816406 44.664062 2.410156 44.257812 2.410156 43.757812 Z M 16.957031 28.351562 C 8.441406 28.351562 4.226562 33.722656 4.226562 40.132812 L 4.226562 42.851562 L 40.597656 42.851562 L 40.597656 40.132812 C 40.597656 33.722656 36.382812 28.351562 27.867188 28.351562 Z M 16.957031 28.351562 " fill-opacity="1" fill-rule="evenodd"/></g></svg>