<svg width="56" height="56" viewBox="0 0 56 56" fill="none" xmlns="http://www.w3.org/2000/svg">
<path d="M26.3663 45.0333C25.9386 44.6055 25.7146 44.0611 25.6943 43.4C25.6757 42.7388 25.8802 42.1944 26.308 41.7666L37.7413 30.3333H11.6663C11.0052 30.3333 10.4507 30.1093 10.0027 29.6613C9.55623 29.2148 9.33301 28.6611 9.33301 28C9.33301 27.3388 9.55623 26.7843 10.0027 26.3363C10.4507 25.8898 11.0052 25.6666 11.6663 25.6666H37.7413L26.308 14.2333C25.8802 13.8055 25.6757 13.2611 25.6943 12.6C25.7146 11.9388 25.9386 11.3944 26.3663 10.9666C26.7941 10.5388 27.3386 10.325 27.9997 10.325C28.6608 10.325 29.2052 10.5388 29.633 10.9666L45.033 26.3666C45.2663 26.5611 45.432 26.8037 45.53 27.0946C45.6265 27.3871 45.6747 27.6888 45.6747 28C45.6747 28.3111 45.6265 28.6027 45.53 28.875C45.432 29.1472 45.2663 29.4 45.033 29.6333L29.633 45.0333C29.2052 45.4611 28.6608 45.6749 27.9997 45.6749C27.3386 45.6749 26.7941 45.4611 26.3663 45.0333Z" fill="black"/>
</svg>
