<svg width="24" height="24" viewBox="0 0 24 24" fill="none" xmlns="http://www.w3.org/2000/svg">
<path fill-rule="evenodd" clip-rule="evenodd" d="M16.001 9C16.001 10.0609 15.5795 11.0783 14.8294 11.8284C14.0793 12.5786 13.0618 13 12.001 13C10.9401 13 9.92269 12.5786 9.17255 11.8284C8.4224 11.0783 8.00098 10.0609 8.00098 9C8.00098 7.93913 8.4224 6.92172 9.17255 6.17157C9.92269 5.42143 10.9401 5 12.001 5C13.0618 5 14.0793 5.42143 14.8294 6.17157C15.5795 6.92172 16.001 7.93913 16.001 9ZM14.001 9C14.001 9.53043 13.7903 10.0391 13.4152 10.4142C13.0401 10.7893 12.5314 11 12.001 11C11.4705 11 10.9618 10.7893 10.5868 10.4142C10.2117 10.0391 10.001 9.53043 10.001 9C10.001 8.46957 10.2117 7.96086 10.5868 7.58579C10.9618 7.21071 11.4705 7 12.001 7C12.5314 7 13.0401 7.21071 13.4152 7.58579C13.7903 7.96086 14.001 8.46957 14.001 9Z" fill="#747474"/>
<path fill-rule="evenodd" clip-rule="evenodd" d="M12.001 1C5.92598 1 1.00098 5.925 1.00098 12C1.00098 18.075 5.92598 23 12.001 23C18.076 23 23.001 18.075 23.001 12C23.001 5.925 18.076 1 12.001 1ZM3.00098 12C3.00098 14.09 3.71398 16.014 4.90898 17.542C5.74821 16.4399 6.83088 15.5467 8.07241 14.9323C9.31394 14.3179 10.6807 13.9988 12.066 14C13.4333 13.9987 14.7829 14.3095 16.0119 14.9088C17.2409 15.508 18.3169 16.3799 19.158 17.458C20.0244 16.3216 20.6078 14.9952 20.8599 13.5886C21.1119 12.182 21.0254 10.7355 20.6075 9.36898C20.1895 8.00243 19.4522 6.75505 18.4565 5.73004C17.4607 4.70503 16.2352 3.93186 14.8814 3.47451C13.5275 3.01716 12.0842 2.88877 10.6708 3.09997C9.2575 3.31117 7.91477 3.85589 6.75375 4.68905C5.59272 5.52222 4.64679 6.61987 3.99421 7.8912C3.34162 9.16252 3.00116 10.571 3.00098 12ZM12.001 21C9.93493 21.0031 7.93124 20.2923 6.32898 18.988C6.97391 18.0647 7.83231 17.3109 8.83117 16.7907C9.83002 16.2705 10.9398 15.9992 12.066 16C13.1781 15.9991 14.2745 16.2636 15.2639 16.7714C16.2533 17.2793 17.1073 18.0159 17.755 18.92C16.1403 20.2667 14.1036 21.0029 12.001 21Z" fill="#747474"/>
</svg>
