<svg width="15" height="15" viewBox="0 0 15 15" fill="none" xmlns="http://www.w3.org/2000/svg">
<path d="M8.57813 13.125L4.375 8.75V7.5H6.5625C7.11458 7.5 7.59125 7.32021 7.9925 6.96063C8.39333 6.60146 8.63542 6.15625 8.71875 5.625H3.75V4.375H8.53125C8.35417 4.01042 8.09125 3.71083 7.7425 3.47625C7.39333 3.24208 7 3.125 6.5625 3.125H3.75V1.875H11.25V3.125H9.21875C9.36458 3.30208 9.49479 3.49479 9.60938 3.70313C9.72396 3.91146 9.8125 4.13542 9.875 4.375H11.25V5.625H9.98438C9.90104 6.51042 9.53646 7.2525 8.89063 7.85125C8.24479 8.45042 7.46875 8.75 6.5625 8.75H6.10937L10.3125 13.125H8.57813Z" fill="white"/>
</svg>
