<svg width="24" height="24" viewBox="0 0 24 24" fill="none" xmlns="http://www.w3.org/2000/svg">
<path d="M3.00098 21V7H7.00098V3H17.001V11H21.001V21H13.001V17H11.001V21H3.00098ZM5.00098 19H7.00098V17H5.00098V19ZM5.00098 15H7.00098V13H5.00098V15ZM5.00098 11H7.00098V9H5.00098V11ZM9.00098 15H11.001V13H9.00098V15ZM9.00098 11H11.001V9H9.00098V11ZM9.00098 7H11.001V5H9.00098V7ZM13.001 15H15.001V13H13.001V15ZM13.001 11H15.001V9H13.001V11ZM13.001 7H15.001V5H13.001V7ZM17.001 19H19.001V17H17.001V19ZM17.001 15H19.001V13H17.001V15Z" fill="#747474"/>
</svg>
